<mxfile host="app.diagrams.net" agent="Mozilla/5.0 (Windows NT 10.0; Win64; x64) AppleWebKit/537.36 (KHTML, like Gecko) Chrome/130.0.0.0 Safari/537.36 Edg/130.0.0.0" version="24.8.6" pages="4">
  <diagram id="YMsmsmocabXZ7E4HQHLQ" name="Context">
    <mxGraphModel dx="-31" dy="435" grid="1" gridSize="10" guides="1" tooltips="1" connect="1" arrows="1" fold="1" page="1" pageScale="1" pageWidth="850" pageHeight="1100" math="0" shadow="0">
      <root>
        <mxCell id="0" />
        <mxCell id="1" parent="0" />
        <mxCell id="oWr3W-EET1Abqjw7DiCn-14" style="edgeStyle=orthogonalEdgeStyle;rounded=0;orthogonalLoop=1;jettySize=auto;html=1;exitX=1;exitY=0.75;exitDx=0;exitDy=0;entryX=0.5;entryY=1;entryDx=0;entryDy=0;" parent="1" target="BwKrcgIl9ruZARwPmLWE-7" edge="1">
          <mxGeometry relative="1" as="geometry">
            <mxPoint x="1410" y="460" as="sourcePoint" />
          </mxGeometry>
        </mxCell>
        <mxCell id="hX3I04FVWS7Js9a_QmLL-5" value="&lt;font style=&quot;font-size: 25px;&quot;&gt;ลูกค้า&lt;/font&gt;" style="whiteSpace=wrap;html=1;aspect=fixed;" parent="1" vertex="1">
          <mxGeometry x="920" y="200" width="120" height="120" as="geometry" />
        </mxCell>
        <mxCell id="oWr3W-EET1Abqjw7DiCn-11" style="edgeStyle=orthogonalEdgeStyle;rounded=0;orthogonalLoop=1;jettySize=auto;html=1;exitX=0;exitY=0.5;exitDx=0;exitDy=0;entryX=0.75;entryY=0;entryDx=0;entryDy=0;" parent="1" source="BwKrcgIl9ruZARwPmLWE-7" edge="1">
          <mxGeometry relative="1" as="geometry">
            <mxPoint x="1365" y="339.9999999999999" as="targetPoint" />
          </mxGeometry>
        </mxCell>
        <mxCell id="BwKrcgIl9ruZARwPmLWE-7" value="&lt;b style=&quot;font-size: 17px;&quot;&gt;&lt;font style=&quot;font-size: 17px;&quot;&gt;Payment API&lt;/font&gt;&lt;/b&gt;&lt;div style=&quot;font-size: 17px;&quot;&gt;&lt;b style=&quot;&quot;&gt;&lt;font style=&quot;font-size: 17px;&quot;&gt;Service&lt;/font&gt;&lt;/b&gt;&lt;/div&gt;" style="whiteSpace=wrap;html=1;aspect=fixed;" parent="1" vertex="1">
          <mxGeometry x="1600" y="200" width="120" height="120" as="geometry" />
        </mxCell>
        <mxCell id="BwKrcgIl9ruZARwPmLWE-16" value="&lt;div&gt;-&amp;nbsp;&lt;span style=&quot;background-color: initial;&quot;&gt;ข้อมูลบัญชีลูกค้า&lt;/span&gt;&lt;/div&gt;&lt;div&gt;- ข้อมูลการสร้างฉลากพัสดุ&lt;/div&gt;&lt;div&gt;- ข้อมูลการชำระเงิน&lt;/div&gt;&lt;div&gt;&lt;span style=&quot;text-align: center; text-wrap-mode: nowrap;&quot;&gt;- ข้อมูลในการเข้าสู่ระบบ&lt;/span&gt;&lt;/div&gt;" style="text;html=1;align=left;verticalAlign=middle;whiteSpace=wrap;rounded=0;" parent="1" vertex="1">
          <mxGeometry x="1060" y="190" width="160" height="60" as="geometry" />
        </mxCell>
        <mxCell id="oWr3W-EET1Abqjw7DiCn-7" style="edgeStyle=orthogonalEdgeStyle;rounded=0;orthogonalLoop=1;jettySize=auto;html=1;exitX=0.5;exitY=0;exitDx=0;exitDy=0;entryX=0.293;entryY=1.017;entryDx=0;entryDy=0;entryPerimeter=0;" parent="1" source="oWr3W-EET1Abqjw7DiCn-2" edge="1">
          <mxGeometry relative="1" as="geometry">
            <mxPoint x="1296.88" y="461.19000000000005" as="targetPoint" />
            <Array as="points">
              <mxPoint x="970" y="480" />
              <mxPoint x="1297" y="480" />
            </Array>
          </mxGeometry>
        </mxCell>
        <mxCell id="oWr3W-EET1Abqjw7DiCn-2" value="&lt;span style=&quot;font-size: 25px;&quot;&gt;เจ้าหน้าที่ไปรษณีย์&lt;/span&gt;" style="whiteSpace=wrap;html=1;aspect=fixed;" parent="1" vertex="1">
          <mxGeometry x="910" y="560" width="120" height="120" as="geometry" />
        </mxCell>
        <mxCell id="oWr3W-EET1Abqjw7DiCn-15" style="edgeStyle=orthogonalEdgeStyle;rounded=0;orthogonalLoop=1;jettySize=auto;html=1;exitX=-0.009;exitY=0.912;exitDx=0;exitDy=0;entryX=0.708;entryY=0.989;entryDx=0;entryDy=0;startArrow=classicThin;startFill=1;endArrow=none;endFill=0;exitPerimeter=0;entryPerimeter=0;" parent="1" source="oWr3W-EET1Abqjw7DiCn-3" edge="1">
          <mxGeometry relative="1" as="geometry">
            <mxPoint x="1363.2800000000002" y="459.23" as="targetPoint" />
            <Array as="points">
              <mxPoint x="1510" y="669" />
              <mxPoint x="1363" y="670" />
            </Array>
          </mxGeometry>
        </mxCell>
        <mxCell id="oWr3W-EET1Abqjw7DiCn-3" value="&lt;b style=&quot;font-size: 17px;&quot;&gt;&lt;font style=&quot;font-size: 17px;&quot;&gt;Location API&lt;/font&gt;&lt;/b&gt;&lt;div style=&quot;font-size: 17px;&quot;&gt;&lt;b style=&quot;&quot;&gt;&lt;font style=&quot;font-size: 17px;&quot;&gt;Service&lt;/font&gt;&lt;/b&gt;&lt;/div&gt;" style="whiteSpace=wrap;html=1;aspect=fixed;" parent="1" vertex="1">
          <mxGeometry x="1640" y="560" width="120" height="120" as="geometry" />
        </mxCell>
        <mxCell id="oWr3W-EET1Abqjw7DiCn-5" style="edgeStyle=orthogonalEdgeStyle;rounded=0;orthogonalLoop=1;jettySize=auto;html=1;exitX=1;exitY=0.5;exitDx=0;exitDy=0;entryX=0.538;entryY=-0.005;entryDx=0;entryDy=0;entryPerimeter=0;" parent="1" source="hX3I04FVWS7Js9a_QmLL-5" edge="1">
          <mxGeometry relative="1" as="geometry">
            <mxPoint x="1326.8400000000001" y="339.19999999999993" as="targetPoint" />
          </mxGeometry>
        </mxCell>
        <mxCell id="idWe24kEickOzrx7UqR6-1" value="&lt;br&gt;&lt;div&gt;- ข้อมูลการติดตามสินค้า (Qr Code, รหัสสินค้า)&amp;nbsp;&lt;/div&gt;&lt;div&gt;- ใบเสร็จรับเงิน&lt;/div&gt;&lt;div&gt;- ใบแจ้งหนี้&lt;/div&gt;" style="text;html=1;align=left;verticalAlign=middle;whiteSpace=wrap;rounded=0;" parent="1" vertex="1">
          <mxGeometry x="980" y="403" width="250" height="30" as="geometry" />
        </mxCell>
        <mxCell id="DvAFKXmszkKarA0xK_uT-1" value="- ข้อมูลเจ้าหน้าที่&lt;div&gt;- ข้อมูลบัญชีลูกค้า&lt;/div&gt;&lt;div&gt;&lt;span style=&quot;color: rgba(0, 0, 0, 0); font-family: monospace; font-size: 0px; text-wrap-mode: nowrap;&quot;&gt;%3CmxGraphModel%3E%3Croot%3E%3CmxCell%20id%3D%220%22%2F%3E%3CmxCell%20id%3D%221%22%20parent%3D%220%22%2F%3E%3CmxCell%20id%3D%222%22%20style%3D%22edgeStyle%3DorthogonalEdgeStyle%3Brounded%3D0%3BorthogonalLoop%3D1%3BjettySize%3Dauto%3Bhtml%3D1%3BexitX%3D1%3BexitY%3D0.5%3BexitDx%3D0%3BexitDy%3D0%3BentryX%3D0.548%3BentryY%3D-0.025%3BentryDx%3D0%3BentryDy%3D0%3BentryPerimeter%3D0%3B%22%20edge%3D%221%22%20parent%3D%221%22%3E%3CmxGeometry%20relative%3D%221%22%20as%3D%22geometry%22%3E%3CmxPoint%20x%3D%221338%22%20y%3D%22337%22%20as%3D%22targetPoint%22%2F%3E%3CmxPoint%20x%3D%221040%22%20y%3D%22210.8%22%20as%3D%22sourcePoint%22%2F%3E%3C%2FmxGeometry%3E%3C%2FmxCell%3E%3C%2Froot%3E%3C%2FmxGraphModel%3E&lt;/span&gt;&lt;/div&gt;&lt;div&gt;&lt;span style=&quot;color: rgba(0, 0, 0, 0); font-family: monospace; font-size: 0px; text-wrap-mode: nowrap;&quot;&gt;-&lt;/span&gt;&lt;/div&gt;" style="text;html=1;align=left;verticalAlign=middle;whiteSpace=wrap;rounded=0;" parent="1" vertex="1">
          <mxGeometry x="990" y="500" width="160" height="50" as="geometry" />
        </mxCell>
        <mxCell id="pGnwdV4rsUxAihBqJnmd-1" value="- ข้อมูลพัสดุ&lt;div&gt;-ข้อมูลลูกค้า&lt;br&gt;&lt;div&gt;- รายงาน&lt;/div&gt;&lt;/div&gt;" style="text;html=1;align=left;verticalAlign=middle;whiteSpace=wrap;rounded=0;" parent="1" vertex="1">
          <mxGeometry x="1045" y="650" width="120" height="30" as="geometry" />
        </mxCell>
        <mxCell id="00KccdtuuS2LQPrpxwL_-1" value="&lt;div&gt;&lt;span style=&quot;background-color: initial;&quot;&gt;- ข้อมูลการชำระเงิน&lt;/span&gt;&lt;/div&gt;&lt;div&gt;- ข้อมูลการสร้างฉลากพัสดุ&lt;/div&gt;" style="text;html=1;align=left;verticalAlign=middle;whiteSpace=wrap;rounded=0;" parent="1" vertex="1">
          <mxGeometry x="1430" y="420" width="150" height="30" as="geometry" />
        </mxCell>
        <mxCell id="935j6Lscwc2SWGARaoRc-1" value="&lt;div&gt;- สถานะการชำระเงิน&lt;/div&gt;" style="text;html=1;align=left;verticalAlign=middle;whiteSpace=wrap;rounded=0;" parent="1" vertex="1">
          <mxGeometry x="1430" y="260" width="110" height="30" as="geometry" />
        </mxCell>
        <mxCell id="7CVZlEBBVNvwdXKg0i9e-1" value="- ข้อมูลพัสดุ" style="text;html=1;align=center;verticalAlign=middle;whiteSpace=wrap;rounded=0;" parent="1" vertex="1">
          <mxGeometry x="1410" y="640" width="80" height="30" as="geometry" />
        </mxCell>
        <mxCell id="JTaQd2OVJryP4jDqu7EG-1" value="- ข้อมูลพิกัดของพัสดุ" style="text;html=1;align=center;verticalAlign=middle;whiteSpace=wrap;rounded=0;" parent="1" vertex="1">
          <mxGeometry x="1420" y="480" width="110" height="30" as="geometry" />
        </mxCell>
        <mxCell id="02iYN7fQ2j9fb21IVjrz-5" style="edgeStyle=orthogonalEdgeStyle;rounded=0;orthogonalLoop=1;jettySize=auto;html=1;exitX=0.5;exitY=1;exitDx=0;exitDy=0;entryX=0.5;entryY=1;entryDx=0;entryDy=0;" parent="1" source="02iYN7fQ2j9fb21IVjrz-2" target="oWr3W-EET1Abqjw7DiCn-2" edge="1">
          <mxGeometry relative="1" as="geometry">
            <Array as="points">
              <mxPoint x="1310" y="460" />
              <mxPoint x="1310" y="700" />
              <mxPoint x="970" y="700" />
            </Array>
          </mxGeometry>
        </mxCell>
        <mxCell id="02iYN7fQ2j9fb21IVjrz-2" value="0" style="swimlane;childLayout=stackLayout;horizontal=1;startSize=50;horizontalStack=0;rounded=1;fontSize=14;fontStyle=0;strokeWidth=2;resizeParent=0;resizeLast=1;shadow=0;dashed=0;align=center;arcSize=4;whiteSpace=wrap;html=1;" parent="1" vertex="1">
          <mxGeometry x="1250" y="340" width="160" height="120" as="geometry" />
        </mxCell>
        <mxCell id="02iYN7fQ2j9fb21IVjrz-4" style="edgeStyle=orthogonalEdgeStyle;rounded=0;orthogonalLoop=1;jettySize=auto;html=1;exitX=0.5;exitY=0;exitDx=0;exitDy=0;entryX=0.873;entryY=1.023;entryDx=0;entryDy=0;entryPerimeter=0;" parent="1" source="oWr3W-EET1Abqjw7DiCn-3" edge="1">
          <mxGeometry relative="1" as="geometry">
            <mxPoint x="1389.6799999999998" y="461.61" as="targetPoint" />
            <Array as="points">
              <mxPoint x="1660" y="480" />
              <mxPoint x="1390" y="480" />
            </Array>
          </mxGeometry>
        </mxCell>
        <mxCell id="02iYN7fQ2j9fb21IVjrz-6" value="&lt;font style=&quot;font-size: 25px;&quot;&gt;ระบบไปรษณีย์&lt;/font&gt;" style="text;html=1;align=center;verticalAlign=middle;resizable=0;points=[];autosize=1;strokeColor=none;fillColor=none;" parent="1" vertex="1">
          <mxGeometry x="1245" y="403" width="170" height="40" as="geometry" />
        </mxCell>
        <mxCell id="02iYN7fQ2j9fb21IVjrz-7" style="edgeStyle=orthogonalEdgeStyle;rounded=0;orthogonalLoop=1;jettySize=auto;html=1;exitX=0;exitY=1;exitDx=0;exitDy=0;entryX=0.308;entryY=1.01;entryDx=0;entryDy=0;entryPerimeter=0;" parent="1" source="02iYN7fQ2j9fb21IVjrz-2" target="hX3I04FVWS7Js9a_QmLL-5" edge="1">
          <mxGeometry relative="1" as="geometry">
            <Array as="points">
              <mxPoint x="1250" y="450" />
              <mxPoint x="957" y="450" />
            </Array>
          </mxGeometry>
        </mxCell>
        <mxCell id="kY1BdkA7M8wkStmwTlIL-3" value="- ข้อมูลในการเข้าสู่ระบบ" style="text;html=1;align=center;verticalAlign=middle;whiteSpace=wrap;rounded=0;" parent="1" vertex="1">
          <mxGeometry x="990" y="520" width="120" height="30" as="geometry" />
        </mxCell>
        <mxCell id="Qx-9PMFSVq2sjDh1Mysa-1" value="&lt;span style=&quot;font-size: 25px;&quot;&gt;ผู้รับ&lt;/span&gt;" style="whiteSpace=wrap;html=1;aspect=fixed;" vertex="1" parent="1">
          <mxGeometry x="1280" y="750" width="120" height="120" as="geometry" />
        </mxCell>
        <mxCell id="Qx-9PMFSVq2sjDh1Mysa-2" style="edgeStyle=orthogonalEdgeStyle;rounded=0;orthogonalLoop=1;jettySize=auto;html=1;exitX=0.5;exitY=1;exitDx=0;exitDy=0;entryX=0.411;entryY=0.022;entryDx=0;entryDy=0;entryPerimeter=0;" edge="1" parent="1" source="02iYN7fQ2j9fb21IVjrz-2" target="Qx-9PMFSVq2sjDh1Mysa-1">
          <mxGeometry relative="1" as="geometry" />
        </mxCell>
        <mxCell id="Qx-9PMFSVq2sjDh1Mysa-4" value="" style="endArrow=classic;html=1;rounded=0;exitX=0.583;exitY=0;exitDx=0;exitDy=0;exitPerimeter=0;" edge="1" parent="1" source="Qx-9PMFSVq2sjDh1Mysa-1">
          <mxGeometry width="50" height="50" relative="1" as="geometry">
            <mxPoint x="1360" y="690" as="sourcePoint" />
            <mxPoint x="1350" y="460" as="targetPoint" />
          </mxGeometry>
        </mxCell>
      </root>
    </mxGraphModel>
  </diagram>
  <diagram id="Pun33VehzLimjHSa-jRa" name="Level 1">
    <mxGraphModel dx="1434" dy="1162" grid="0" gridSize="10" guides="1" tooltips="1" connect="1" arrows="1" fold="1" page="0" pageScale="1" pageWidth="850" pageHeight="1100" background="none" math="0" shadow="0">
      <root>
        <mxCell id="0" />
        <mxCell id="1" parent="0" />
        <mxCell id="JxoKzAN2XePWAYnJ4Uyl-1" value="ลูกค้า" style="rounded=0;whiteSpace=wrap;html=1;" parent="1" vertex="1">
          <mxGeometry x="50" y="170" width="120" height="60" as="geometry" />
        </mxCell>
        <mxCell id="HcCsx4PcDkGbOsXHTJcW-4" style="edgeStyle=orthogonalEdgeStyle;rounded=0;orthogonalLoop=1;jettySize=auto;html=1;exitX=1;exitY=0.5;exitDx=0;exitDy=0;entryX=0;entryY=0.5;entryDx=0;entryDy=0;" parent="1" edge="1">
          <mxGeometry relative="1" as="geometry">
            <mxPoint x="640" y="100" as="targetPoint" />
            <mxPoint x="505" y="100" as="sourcePoint" />
          </mxGeometry>
        </mxCell>
        <mxCell id="8IqEYIZ9sGLNR-ZfwYiF-1" value="2" style="swimlane;childLayout=stackLayout;horizontal=1;startSize=50;horizontalStack=0;rounded=1;fontSize=14;fontStyle=0;strokeWidth=2;resizeParent=0;resizeLast=1;shadow=0;dashed=0;align=center;arcSize=4;whiteSpace=wrap;html=1;" parent="1" vertex="1">
          <mxGeometry x="345" y="40" width="160" height="120" as="geometry" />
        </mxCell>
        <mxCell id="_jatliGTsfhydXnkZ1ws-1" value="&lt;font style=&quot;font-size: 21px;&quot;&gt;ลงทะเบียน&lt;/font&gt;" style="text;html=1;align=center;verticalAlign=middle;resizable=0;points=[];autosize=1;strokeColor=none;fillColor=none;" parent="8IqEYIZ9sGLNR-ZfwYiF-1" vertex="1">
          <mxGeometry y="50" width="160" height="70" as="geometry" />
        </mxCell>
        <mxCell id="SgvPFVHdcA0Vf626AR-4-2" style="edgeStyle=orthogonalEdgeStyle;rounded=0;orthogonalLoop=1;jettySize=auto;html=1;entryX=-0.004;entryY=0.217;entryDx=0;entryDy=0;entryPerimeter=0;" parent="1" target="_jatliGTsfhydXnkZ1ws-1" edge="1">
          <mxGeometry relative="1" as="geometry">
            <mxPoint x="170" y="176" as="sourcePoint" />
            <mxPoint x="340" y="104" as="targetPoint" />
          </mxGeometry>
        </mxCell>
        <mxCell id="42IY3z_Aax4cZinNtNj3-1" value="&lt;span style=&quot;color: rgb(0, 0, 0); font-family: Helvetica; font-size: 12px; font-style: normal; font-variant-ligatures: normal; font-variant-caps: normal; font-weight: 400; letter-spacing: normal; orphans: 2; text-align: left; text-indent: 0px; text-transform: none; widows: 2; word-spacing: 0px; -webkit-text-stroke-width: 0px; white-space: normal; background-color: rgb(251, 251, 251); text-decoration-thickness: initial; text-decoration-style: initial; text-decoration-color: initial; display: inline !important; float: none;&quot;&gt;ข้อมูลบัญชีลูกค้า&lt;/span&gt;" style="text;whiteSpace=wrap;html=1;" parent="1" vertex="1">
          <mxGeometry x="210" y="80" width="90" height="30" as="geometry" />
        </mxCell>
        <mxCell id="42IY3z_Aax4cZinNtNj3-2" value="D1&lt;span style=&quot;white-space: pre;&quot;&gt;&#x9;&lt;/span&gt;&amp;nbsp;ข้อมูลลูกค้า" style="html=1;dashed=0;whiteSpace=wrap;shape=mxgraph.dfd.dataStoreID;align=left;spacingLeft=3;points=[[0,0],[0.5,0],[1,0],[0,0.5],[1,0.5],[0,1],[0.5,1],[1,1]];" parent="1" vertex="1">
          <mxGeometry x="640" y="85" width="100" height="30" as="geometry" />
        </mxCell>
        <mxCell id="HcCsx4PcDkGbOsXHTJcW-5" value="&lt;span style=&quot;color: rgb(0, 0, 0); font-family: Helvetica; font-size: 12px; font-style: normal; font-variant-ligatures: normal; font-variant-caps: normal; font-weight: 400; letter-spacing: normal; orphans: 2; text-align: left; text-indent: 0px; text-transform: none; widows: 2; word-spacing: 0px; -webkit-text-stroke-width: 0px; white-space: normal; background-color: rgb(251, 251, 251); text-decoration-thickness: initial; text-decoration-style: initial; text-decoration-color: initial; display: inline !important; float: none;&quot;&gt;ข้อมูลบัญชีลูกค้า&lt;/span&gt;" style="text;whiteSpace=wrap;html=1;" parent="1" vertex="1">
          <mxGeometry x="530" y="70" width="90" height="30" as="geometry" />
        </mxCell>
        <mxCell id="_icq4aOBd_bypDhc8ptC-5" style="edgeStyle=orthogonalEdgeStyle;rounded=0;orthogonalLoop=1;jettySize=auto;html=1;exitX=1;exitY=0.25;exitDx=0;exitDy=0;entryX=0.005;entryY=0.305;entryDx=0;entryDy=0;entryPerimeter=0;" parent="1" source="p8fjeqhYe2DYJSzT5w0h-1" target="_icq4aOBd_bypDhc8ptC-3" edge="1">
          <mxGeometry relative="1" as="geometry">
            <mxPoint x="610" y="220.24324324324323" as="targetPoint" />
          </mxGeometry>
        </mxCell>
        <mxCell id="p8fjeqhYe2DYJSzT5w0h-1" value="3" style="swimlane;childLayout=stackLayout;horizontal=1;startSize=50;horizontalStack=0;rounded=1;fontSize=14;fontStyle=0;strokeWidth=2;resizeParent=0;resizeLast=1;shadow=0;dashed=0;align=center;arcSize=4;whiteSpace=wrap;html=1;" parent="1" vertex="1">
          <mxGeometry x="345" y="190" width="160" height="120" as="geometry" />
        </mxCell>
        <mxCell id="p8fjeqhYe2DYJSzT5w0h-2" value="&lt;span style=&quot;font-size: 21px;&quot;&gt;สร้างฉลากจัดส่ง&lt;/span&gt;" style="text;html=1;align=center;verticalAlign=middle;resizable=0;points=[];autosize=1;strokeColor=none;fillColor=none;" parent="p8fjeqhYe2DYJSzT5w0h-1" vertex="1">
          <mxGeometry y="50" width="160" height="70" as="geometry" />
        </mxCell>
        <mxCell id="U4FqtQmH0M0nAIyKFKRV-6" style="edgeStyle=orthogonalEdgeStyle;rounded=0;orthogonalLoop=1;jettySize=auto;html=1;exitX=1;exitY=0.75;exitDx=0;exitDy=0;entryX=0.013;entryY=0.206;entryDx=0;entryDy=0;entryPerimeter=0;" parent="1" edge="1">
          <mxGeometry relative="1" as="geometry">
            <mxPoint x="170" y="215.27999999999997" as="sourcePoint" />
            <mxPoint x="347.08000000000004" y="214.99999999999994" as="targetPoint" />
          </mxGeometry>
        </mxCell>
        <mxCell id="U4FqtQmH0M0nAIyKFKRV-7" value="ข้อมูลการสร้างฉลากจัดส่ง" style="text;html=1;align=center;verticalAlign=middle;resizable=0;points=[];autosize=1;strokeColor=none;fillColor=none;" parent="1" vertex="1">
          <mxGeometry x="185" y="190" width="150" height="30" as="geometry" />
        </mxCell>
        <mxCell id="_icq4aOBd_bypDhc8ptC-3" value="D3&lt;span style=&quot;white-space: pre;&quot;&gt;&#x9;&lt;/span&gt;&amp;nbsp;ข้อมูลพัสดุ" style="html=1;dashed=0;whiteSpace=wrap;shape=mxgraph.dfd.dataStoreID;align=left;spacingLeft=3;points=[[0,0],[0.5,0],[1,0],[0,0.5],[1,0.5],[0,1],[0.5,1],[1,1]];" parent="1" vertex="1">
          <mxGeometry x="640" y="210" width="130" height="30" as="geometry" />
        </mxCell>
        <mxCell id="_icq4aOBd_bypDhc8ptC-7" value="4" style="swimlane;childLayout=stackLayout;horizontal=1;startSize=50;horizontalStack=0;rounded=1;fontSize=14;fontStyle=0;strokeWidth=2;resizeParent=0;resizeLast=1;shadow=0;dashed=0;align=center;arcSize=4;whiteSpace=wrap;html=1;" parent="1" vertex="1">
          <mxGeometry x="345" y="360" width="168" height="120" as="geometry" />
        </mxCell>
        <mxCell id="_icq4aOBd_bypDhc8ptC-8" value="&lt;font style=&quot;font-size: 17px;&quot;&gt;การจัดการบัญชีลูกค้า&lt;/font&gt;" style="text;html=1;align=center;verticalAlign=middle;resizable=0;points=[];autosize=1;strokeColor=none;fillColor=none;" parent="_icq4aOBd_bypDhc8ptC-7" vertex="1">
          <mxGeometry y="50" width="168" height="70" as="geometry" />
        </mxCell>
        <mxCell id="y7Tho0uPEW10rR8h3ygS-3" style="edgeStyle=orthogonalEdgeStyle;rounded=0;orthogonalLoop=1;jettySize=auto;html=1;exitX=1;exitY=0.5;exitDx=0;exitDy=0;entryX=0;entryY=0.5;entryDx=0;entryDy=0;" parent="1" source="_icq4aOBd_bypDhc8ptC-9" target="_icq4aOBd_bypDhc8ptC-7" edge="1">
          <mxGeometry relative="1" as="geometry" />
        </mxCell>
        <mxCell id="_icq4aOBd_bypDhc8ptC-9" value="เจ้าหน้าที่ไปรษณีย์" style="rounded=0;whiteSpace=wrap;html=1;" parent="1" vertex="1">
          <mxGeometry x="50" y="390" width="120" height="60" as="geometry" />
        </mxCell>
        <mxCell id="y7Tho0uPEW10rR8h3ygS-1" value="ข้อมูลการสร้างฉลากจัดส่ง" style="text;html=1;align=center;verticalAlign=middle;resizable=0;points=[];autosize=1;strokeColor=none;fillColor=none;" parent="1" vertex="1">
          <mxGeometry x="500" y="185" width="150" height="30" as="geometry" />
        </mxCell>
        <mxCell id="y7Tho0uPEW10rR8h3ygS-4" value="" style="endArrow=none;html=1;rounded=0;exitX=0.993;exitY=0.139;exitDx=0;exitDy=0;exitPerimeter=0;endFill=0;" parent="1" source="_icq4aOBd_bypDhc8ptC-8" edge="1">
          <mxGeometry width="50" height="50" relative="1" as="geometry">
            <mxPoint x="470" y="330" as="sourcePoint" />
            <mxPoint x="800" y="100" as="targetPoint" />
            <Array as="points">
              <mxPoint x="800" y="420" />
            </Array>
          </mxGeometry>
        </mxCell>
        <mxCell id="y7Tho0uPEW10rR8h3ygS-5" value="" style="endArrow=classic;html=1;rounded=0;entryX=1;entryY=0.5;entryDx=0;entryDy=0;" parent="1" target="42IY3z_Aax4cZinNtNj3-2" edge="1">
          <mxGeometry width="50" height="50" relative="1" as="geometry">
            <mxPoint x="800" y="100" as="sourcePoint" />
            <mxPoint x="580" y="160" as="targetPoint" />
          </mxGeometry>
        </mxCell>
        <mxCell id="cyOBG8o1CMk2wq10r28m-1" value="" style="endArrow=none;html=1;rounded=0;exitX=0.515;exitY=1;exitDx=0;exitDy=0;exitPerimeter=0;endFill=0;" parent="1" source="_icq4aOBd_bypDhc8ptC-8" edge="1">
          <mxGeometry width="50" height="50" relative="1" as="geometry">
            <mxPoint x="400" y="550" as="sourcePoint" />
            <mxPoint x="150" y="520" as="targetPoint" />
            <Array as="points">
              <mxPoint x="432" y="520" />
            </Array>
          </mxGeometry>
        </mxCell>
        <mxCell id="cyOBG8o1CMk2wq10r28m-2" value="" style="endArrow=classic;html=1;rounded=0;entryX=0.831;entryY=0.994;entryDx=0;entryDy=0;entryPerimeter=0;" parent="1" target="_icq4aOBd_bypDhc8ptC-9" edge="1">
          <mxGeometry width="50" height="50" relative="1" as="geometry">
            <mxPoint x="150" y="520" as="sourcePoint" />
            <mxPoint x="150" y="460" as="targetPoint" />
          </mxGeometry>
        </mxCell>
        <mxCell id="cyOBG8o1CMk2wq10r28m-3" value="" style="endArrow=none;html=1;rounded=0;endFill=0;" parent="1" edge="1">
          <mxGeometry width="50" height="50" relative="1" as="geometry">
            <mxPoint x="750" y="90" as="sourcePoint" />
            <mxPoint x="820" y="440" as="targetPoint" />
            <Array as="points">
              <mxPoint x="820" y="90" />
            </Array>
          </mxGeometry>
        </mxCell>
        <mxCell id="cyOBG8o1CMk2wq10r28m-4" value="" style="endArrow=classic;html=1;rounded=0;" parent="1" edge="1">
          <mxGeometry width="50" height="50" relative="1" as="geometry">
            <mxPoint x="820" y="440" as="sourcePoint" />
            <mxPoint x="514" y="440" as="targetPoint" />
          </mxGeometry>
        </mxCell>
        <mxCell id="z0xXMs4xQg1NQrpVEuKd-2" value="&lt;span style=&quot;color: rgb(0, 0, 0); font-family: Helvetica; font-size: 12px; font-style: normal; font-variant-ligatures: normal; font-variant-caps: normal; font-weight: 400; letter-spacing: normal; orphans: 2; text-align: left; text-indent: 0px; text-transform: none; widows: 2; word-spacing: 0px; -webkit-text-stroke-width: 0px; white-space: normal; background-color: rgb(251, 251, 251); text-decoration-thickness: initial; text-decoration-style: initial; text-decoration-color: initial; display: inline !important; float: none;&quot;&gt;ข้อมูลบัญชีลูกค้า&lt;/span&gt;" style="text;whiteSpace=wrap;html=1;" parent="1" vertex="1">
          <mxGeometry x="600" y="440" width="120" height="40" as="geometry" />
        </mxCell>
        <mxCell id="z0xXMs4xQg1NQrpVEuKd-3" value="&lt;span style=&quot;color: rgb(0, 0, 0); font-family: Helvetica; font-size: 12px; font-style: normal; font-variant-ligatures: normal; font-variant-caps: normal; font-weight: 400; letter-spacing: normal; orphans: 2; text-align: left; text-indent: 0px; text-transform: none; widows: 2; word-spacing: 0px; -webkit-text-stroke-width: 0px; white-space: normal; background-color: rgb(251, 251, 251); text-decoration-thickness: initial; text-decoration-style: initial; text-decoration-color: initial; display: inline !important; float: none;&quot;&gt;ข้อมูลบัญชีลูกค้า&lt;/span&gt;" style="text;whiteSpace=wrap;html=1;" parent="1" vertex="1">
          <mxGeometry x="200" y="490" width="120" height="40" as="geometry" />
        </mxCell>
        <mxCell id="z0xXMs4xQg1NQrpVEuKd-4" value="&lt;span style=&quot;color: rgb(0, 0, 0); font-family: Helvetica; font-size: 12px; font-style: normal; font-variant-ligatures: normal; font-variant-caps: normal; font-weight: 400; letter-spacing: normal; orphans: 2; text-indent: 0px; text-transform: none; widows: 2; word-spacing: 0px; -webkit-text-stroke-width: 0px; white-space: normal; background-color: rgb(251, 251, 251); text-decoration-thickness: initial; text-decoration-style: initial; text-decoration-color: initial; float: none; display: inline !important;&quot;&gt;ข้อมูลบัญชีลูกค้า (อนุมัติ, แก้ไข, ลบ)&lt;/span&gt;" style="text;whiteSpace=wrap;html=1;align=center;" parent="1" vertex="1">
          <mxGeometry x="195" y="370" width="125" height="40" as="geometry" />
        </mxCell>
        <mxCell id="1pgErD_scefjk680Jdr--6" style="edgeStyle=orthogonalEdgeStyle;rounded=0;orthogonalLoop=1;jettySize=auto;html=1;exitX=1;exitY=0.25;exitDx=0;exitDy=0;entryX=1;entryY=0.333;entryDx=0;entryDy=0;entryPerimeter=0;" parent="1" source="1pgErD_scefjk680Jdr--1" target="_icq4aOBd_bypDhc8ptC-3" edge="1">
          <mxGeometry relative="1" as="geometry">
            <mxPoint x="930" y="590" as="targetPoint" />
            <Array as="points">
              <mxPoint x="880" y="590" />
              <mxPoint x="880" y="220" />
            </Array>
          </mxGeometry>
        </mxCell>
        <mxCell id="1pgErD_scefjk680Jdr--1" value="5" style="swimlane;childLayout=stackLayout;horizontal=1;startSize=50;horizontalStack=0;rounded=1;fontSize=14;fontStyle=0;strokeWidth=2;resizeParent=0;resizeLast=1;shadow=0;dashed=0;align=center;arcSize=4;whiteSpace=wrap;html=1;" parent="1" vertex="1">
          <mxGeometry x="345" y="560" width="168" height="120" as="geometry" />
        </mxCell>
        <mxCell id="1pgErD_scefjk680Jdr--2" value="&lt;font style=&quot;font-size: 17px;&quot;&gt;การจัดการพัสดุ&lt;/font&gt;" style="text;html=1;align=center;verticalAlign=middle;resizable=0;points=[];autosize=1;strokeColor=none;fillColor=none;" parent="1pgErD_scefjk680Jdr--1" vertex="1">
          <mxGeometry y="50" width="168" height="70" as="geometry" />
        </mxCell>
        <mxCell id="1pgErD_scefjk680Jdr--3" style="edgeStyle=orthogonalEdgeStyle;rounded=0;orthogonalLoop=1;jettySize=auto;html=1;exitX=1;exitY=0.5;exitDx=0;exitDy=0;entryX=0.997;entryY=0.424;entryDx=0;entryDy=0;entryPerimeter=0;" parent="1" source="_icq4aOBd_bypDhc8ptC-3" target="1pgErD_scefjk680Jdr--2" edge="1">
          <mxGeometry relative="1" as="geometry">
            <Array as="points">
              <mxPoint x="840" y="225" />
              <mxPoint x="840" y="640" />
            </Array>
          </mxGeometry>
        </mxCell>
        <mxCell id="1pgErD_scefjk680Jdr--7" style="edgeStyle=orthogonalEdgeStyle;rounded=0;orthogonalLoop=1;jettySize=auto;html=1;entryX=0.29;entryY=0.979;entryDx=0;entryDy=0;entryPerimeter=0;" parent="1" source="1pgErD_scefjk680Jdr--2" target="_icq4aOBd_bypDhc8ptC-9" edge="1">
          <mxGeometry relative="1" as="geometry">
            <Array as="points">
              <mxPoint x="429" y="710" />
              <mxPoint x="85" y="710" />
            </Array>
          </mxGeometry>
        </mxCell>
        <mxCell id="1pgErD_scefjk680Jdr--8" value="" style="endArrow=classic;html=1;rounded=0;exitX=0.579;exitY=0.994;exitDx=0;exitDy=0;exitPerimeter=0;entryX=0.007;entryY=0.396;entryDx=0;entryDy=0;entryPerimeter=0;" parent="1" source="_icq4aOBd_bypDhc8ptC-9" target="1pgErD_scefjk680Jdr--2" edge="1">
          <mxGeometry width="50" height="50" relative="1" as="geometry">
            <mxPoint x="330" y="530" as="sourcePoint" />
            <mxPoint x="120" y="670" as="targetPoint" />
            <Array as="points">
              <mxPoint x="120" y="638" />
            </Array>
          </mxGeometry>
        </mxCell>
        <mxCell id="UIxow4NNBWcOBgDovtzO-1" value="&lt;span style=&quot;color: rgb(0, 0, 0); font-family: Helvetica; font-size: 12px; font-style: normal; font-variant-ligatures: normal; font-variant-caps: normal; font-weight: 400; letter-spacing: normal; orphans: 2; text-align: center; text-indent: 0px; text-transform: none; widows: 2; word-spacing: 0px; -webkit-text-stroke-width: 0px; white-space: normal; background-color: rgb(251, 251, 251); text-decoration-thickness: initial; text-decoration-style: initial; text-decoration-color: initial; display: inline !important; float: none;&quot;&gt;ข้อมูลพัสดุ (แก้ไข, ลบ)&lt;/span&gt;" style="text;whiteSpace=wrap;html=1;" parent="1" vertex="1">
          <mxGeometry x="195" y="610" width="115" height="40" as="geometry" />
        </mxCell>
        <mxCell id="UIxow4NNBWcOBgDovtzO-2" value="&lt;span style=&quot;color: rgb(0, 0, 0); font-family: Helvetica; font-size: 12px; font-style: normal; font-variant-ligatures: normal; font-variant-caps: normal; font-weight: 400; letter-spacing: normal; orphans: 2; text-align: center; text-indent: 0px; text-transform: none; widows: 2; word-spacing: 0px; -webkit-text-stroke-width: 0px; white-space: normal; background-color: rgb(251, 251, 251); text-decoration-thickness: initial; text-decoration-style: initial; text-decoration-color: initial; display: inline !important; float: none;&quot;&gt;ข้อมูลพัสดุ&lt;span&gt;&amp;nbsp;&lt;/span&gt;&lt;/span&gt;" style="text;whiteSpace=wrap;html=1;" parent="1" vertex="1">
          <mxGeometry x="150" y="680" width="70" height="20" as="geometry" />
        </mxCell>
        <mxCell id="UIxow4NNBWcOBgDovtzO-3" value="&lt;span style=&quot;color: rgb(0, 0, 0); font-family: Helvetica; font-size: 12px; font-style: normal; font-variant-ligatures: normal; font-variant-caps: normal; font-weight: 400; letter-spacing: normal; orphans: 2; text-align: center; text-indent: 0px; text-transform: none; widows: 2; word-spacing: 0px; -webkit-text-stroke-width: 0px; white-space: normal; background-color: rgb(251, 251, 251); text-decoration-thickness: initial; text-decoration-style: initial; text-decoration-color: initial; display: inline !important; float: none;&quot;&gt;ข้อมูลพัสดุ&lt;span&gt;&amp;nbsp;&lt;/span&gt;&lt;/span&gt;" style="text;whiteSpace=wrap;html=1;" parent="1" vertex="1">
          <mxGeometry x="533" y="610" width="90" height="40" as="geometry" />
        </mxCell>
        <mxCell id="UIxow4NNBWcOBgDovtzO-5" value="&lt;span style=&quot;color: rgb(0, 0, 0); font-family: Helvetica; font-size: 12px; font-style: normal; font-variant-ligatures: normal; font-variant-caps: normal; font-weight: 400; letter-spacing: normal; orphans: 2; text-align: center; text-indent: 0px; text-transform: none; widows: 2; word-spacing: 0px; -webkit-text-stroke-width: 0px; white-space: normal; background-color: rgb(251, 251, 251); text-decoration-thickness: initial; text-decoration-style: initial; text-decoration-color: initial; display: inline !important; float: none;&quot;&gt;ข้อมูลพัสดุ (แก้ไข, ลบ)&lt;/span&gt;" style="text;whiteSpace=wrap;html=1;" parent="1" vertex="1">
          <mxGeometry x="590" y="560" width="115" height="40" as="geometry" />
        </mxCell>
        <mxCell id="UIxow4NNBWcOBgDovtzO-6" value="&lt;span style=&quot;color: rgb(0, 0, 0); font-family: Helvetica; font-size: 12px; font-style: normal; font-variant-ligatures: normal; font-variant-caps: normal; font-weight: 400; letter-spacing: normal; orphans: 2; text-indent: 0px; text-transform: none; widows: 2; word-spacing: 0px; -webkit-text-stroke-width: 0px; white-space: normal; background-color: rgb(251, 251, 251); text-decoration-thickness: initial; text-decoration-style: initial; text-decoration-color: initial; float: none; display: inline !important;&quot;&gt;ข้อมูลบัญชีลูกค้า (อนุมัติ, แก้ไข, ลบ)&lt;/span&gt;" style="text;whiteSpace=wrap;html=1;align=center;" parent="1" vertex="1">
          <mxGeometry x="568.75" y="390" width="182.5" height="40" as="geometry" />
        </mxCell>
        <mxCell id="e7sbUX2ducIs3pXZIczz-12" style="edgeStyle=orthogonalEdgeStyle;rounded=0;orthogonalLoop=1;jettySize=auto;html=1;exitX=0;exitY=0.75;exitDx=0;exitDy=0;entryX=0.5;entryY=1;entryDx=0;entryDy=0;" parent="1" source="e7sbUX2ducIs3pXZIczz-1" target="e7sbUX2ducIs3pXZIczz-3" edge="1">
          <mxGeometry relative="1" as="geometry">
            <Array as="points">
              <mxPoint x="330" y="830" />
              <mxPoint x="330" y="880" />
              <mxPoint x="120" y="880" />
            </Array>
          </mxGeometry>
        </mxCell>
        <mxCell id="e7sbUX2ducIs3pXZIczz-1" value="6" style="swimlane;childLayout=stackLayout;horizontal=1;startSize=50;horizontalStack=0;rounded=1;fontSize=14;fontStyle=0;strokeWidth=2;resizeParent=0;resizeLast=1;shadow=0;dashed=0;align=center;arcSize=4;whiteSpace=wrap;html=1;" parent="1" vertex="1">
          <mxGeometry x="345" y="740" width="168" height="120" as="geometry" />
        </mxCell>
        <mxCell id="e7sbUX2ducIs3pXZIczz-2" value="&lt;span style=&quot;font-size: 17px;&quot;&gt;การจัดทำรายงาน&lt;/span&gt;" style="text;html=1;align=center;verticalAlign=middle;resizable=0;points=[];autosize=1;strokeColor=none;fillColor=none;" parent="e7sbUX2ducIs3pXZIczz-1" vertex="1">
          <mxGeometry y="50" width="168" height="70" as="geometry" />
        </mxCell>
        <mxCell id="e7sbUX2ducIs3pXZIczz-3" value="เจ้าหน้าที่ไปรษณีย์" style="rounded=0;whiteSpace=wrap;html=1;" parent="1" vertex="1">
          <mxGeometry x="60" y="780" width="120" height="60" as="geometry" />
        </mxCell>
        <mxCell id="e7sbUX2ducIs3pXZIczz-4" value="D1&lt;span style=&quot;white-space: pre;&quot;&gt;&#x9;&lt;/span&gt;&amp;nbsp;ข้อมูลลูกค้า" style="html=1;dashed=0;whiteSpace=wrap;shape=mxgraph.dfd.dataStoreID;align=left;spacingLeft=3;points=[[0,0],[0.5,0],[1,0],[0,0.5],[1,0.5],[0,1],[0.5,1],[1,1]];" parent="1" vertex="1">
          <mxGeometry x="640" y="740" width="100" height="30" as="geometry" />
        </mxCell>
        <mxCell id="e7sbUX2ducIs3pXZIczz-5" value="D4&lt;span style=&quot;white-space: pre;&quot;&gt;&#x9;&lt;/span&gt;&amp;nbsp;ข้อมูลการชำระเงิน" style="html=1;dashed=0;whiteSpace=wrap;shape=mxgraph.dfd.dataStoreID;align=left;spacingLeft=3;points=[[0,0],[0.5,0],[1,0],[0,0.5],[1,0.5],[0,1],[0.5,1],[1,1]];" parent="1" vertex="1">
          <mxGeometry x="640" y="890" width="130" height="30" as="geometry" />
        </mxCell>
        <mxCell id="e7sbUX2ducIs3pXZIczz-6" value="D3&lt;span style=&quot;white-space: pre;&quot;&gt;&#x9;&lt;/span&gt;&amp;nbsp;ข้อมูลพัสดุ" style="html=1;dashed=0;whiteSpace=wrap;shape=mxgraph.dfd.dataStoreID;align=left;spacingLeft=3;points=[[0,0],[0.5,0],[1,0],[0,0.5],[1,0.5],[0,1],[0.5,1],[1,1]];" parent="1" vertex="1">
          <mxGeometry x="640" y="810" width="130" height="30" as="geometry" />
        </mxCell>
        <mxCell id="e7sbUX2ducIs3pXZIczz-7" style="edgeStyle=orthogonalEdgeStyle;rounded=0;orthogonalLoop=1;jettySize=auto;html=1;exitX=0;exitY=0.5;exitDx=0;exitDy=0;entryX=0.99;entryY=0.188;entryDx=0;entryDy=0;entryPerimeter=0;" parent="1" source="e7sbUX2ducIs3pXZIczz-4" target="e7sbUX2ducIs3pXZIczz-1" edge="1">
          <mxGeometry relative="1" as="geometry" />
        </mxCell>
        <mxCell id="e7sbUX2ducIs3pXZIczz-8" style="edgeStyle=orthogonalEdgeStyle;rounded=0;orthogonalLoop=1;jettySize=auto;html=1;exitX=0;exitY=0.5;exitDx=0;exitDy=0;entryX=0.99;entryY=0.702;entryDx=0;entryDy=0;entryPerimeter=0;" parent="1" source="e7sbUX2ducIs3pXZIczz-6" target="e7sbUX2ducIs3pXZIczz-2" edge="1">
          <mxGeometry relative="1" as="geometry" />
        </mxCell>
        <mxCell id="e7sbUX2ducIs3pXZIczz-9" style="edgeStyle=orthogonalEdgeStyle;rounded=0;orthogonalLoop=1;jettySize=auto;html=1;exitX=0;exitY=0.5;exitDx=0;exitDy=0;entryX=0.888;entryY=1.02;entryDx=0;entryDy=0;entryPerimeter=0;" parent="1" source="e7sbUX2ducIs3pXZIczz-5" target="e7sbUX2ducIs3pXZIczz-2" edge="1">
          <mxGeometry relative="1" as="geometry" />
        </mxCell>
        <mxCell id="e7sbUX2ducIs3pXZIczz-10" style="edgeStyle=orthogonalEdgeStyle;rounded=0;orthogonalLoop=1;jettySize=auto;html=1;exitX=0;exitY=0.25;exitDx=0;exitDy=0;entryX=0.889;entryY=0.005;entryDx=0;entryDy=0;entryPerimeter=0;" parent="1" source="e7sbUX2ducIs3pXZIczz-1" target="e7sbUX2ducIs3pXZIczz-3" edge="1">
          <mxGeometry relative="1" as="geometry">
            <Array as="points">
              <mxPoint x="345" y="760" />
              <mxPoint x="167" y="760" />
            </Array>
          </mxGeometry>
        </mxCell>
        <mxCell id="e7sbUX2ducIs3pXZIczz-11" style="edgeStyle=orthogonalEdgeStyle;rounded=0;orthogonalLoop=1;jettySize=auto;html=1;exitX=0;exitY=0.5;exitDx=0;exitDy=0;entryX=0.994;entryY=0.348;entryDx=0;entryDy=0;entryPerimeter=0;" parent="1" source="e7sbUX2ducIs3pXZIczz-1" target="e7sbUX2ducIs3pXZIczz-3" edge="1">
          <mxGeometry relative="1" as="geometry" />
        </mxCell>
        <mxCell id="e7sbUX2ducIs3pXZIczz-13" value="รายงานการชำระเงิน" style="text;html=1;align=center;verticalAlign=middle;resizable=0;points=[];autosize=1;strokeColor=none;fillColor=none;" parent="1" vertex="1">
          <mxGeometry x="192.5" y="738" width="120" height="30" as="geometry" />
        </mxCell>
        <mxCell id="e7sbUX2ducIs3pXZIczz-14" value="รายงานข้อมูลผู้ใช้บริการ" style="text;html=1;align=center;verticalAlign=middle;resizable=0;points=[];autosize=1;strokeColor=none;fillColor=none;" parent="1" vertex="1">
          <mxGeometry x="192.5" y="770" width="140" height="30" as="geometry" />
        </mxCell>
        <mxCell id="e7sbUX2ducIs3pXZIczz-15" value="&lt;span style=&quot;color: rgb(0, 0, 0); font-family: Helvetica; font-size: 12px; font-style: normal; font-variant-ligatures: normal; font-variant-caps: normal; font-weight: 400; letter-spacing: normal; orphans: 2; text-align: center; text-indent: 0px; text-transform: none; widows: 2; word-spacing: 0px; -webkit-text-stroke-width: 0px; white-space: nowrap; text-decoration-thickness: initial; text-decoration-style: initial; text-decoration-color: initial; float: none; display: inline !important;&quot;&gt;รายงานพัสดุ&lt;/span&gt;" style="text;whiteSpace=wrap;html=1;labelBackgroundColor=none;" parent="1" vertex="1">
          <mxGeometry x="200" y="860" width="67.5" height="20" as="geometry" />
        </mxCell>
        <mxCell id="e7sbUX2ducIs3pXZIczz-16" value="&lt;span style=&quot;color: rgb(0, 0, 0); font-family: Helvetica; font-size: 12px; font-style: normal; font-variant-ligatures: normal; font-variant-caps: normal; font-weight: 400; letter-spacing: normal; orphans: 2; text-align: left; text-indent: 0px; text-transform: none; widows: 2; word-spacing: 0px; -webkit-text-stroke-width: 0px; white-space: normal; background-color: rgb(251, 251, 251); text-decoration-thickness: initial; text-decoration-style: initial; text-decoration-color: initial; display: inline !important; float: none;&quot;&gt;ข้อมูลบัญชีลูกค้า&lt;/span&gt;" style="text;whiteSpace=wrap;html=1;" parent="1" vertex="1">
          <mxGeometry x="540" y="720" width="90" height="30" as="geometry" />
        </mxCell>
        <mxCell id="e7sbUX2ducIs3pXZIczz-17" value="&lt;span style=&quot;color: rgb(0, 0, 0); font-family: Helvetica; font-size: 12px; font-style: normal; font-variant-ligatures: normal; font-variant-caps: normal; font-weight: 400; letter-spacing: normal; orphans: 2; text-align: center; text-indent: 0px; text-transform: none; widows: 2; word-spacing: 0px; -webkit-text-stroke-width: 0px; white-space: normal; background-color: rgb(251, 251, 251); text-decoration-thickness: initial; text-decoration-style: initial; text-decoration-color: initial; display: inline !important; float: none;&quot;&gt;ข้อมูลพัสดุ&lt;span&gt;&amp;nbsp;&lt;/span&gt;&lt;/span&gt;" style="text;whiteSpace=wrap;html=1;" parent="1" vertex="1">
          <mxGeometry x="550" y="800" width="90" height="40" as="geometry" />
        </mxCell>
        <mxCell id="e7sbUX2ducIs3pXZIczz-18" value="ข้อมูลการชำระเงิน" style="text;html=1;align=center;verticalAlign=middle;resizable=0;points=[];autosize=1;strokeColor=none;fillColor=none;" parent="1" vertex="1">
          <mxGeometry x="523" y="880" width="110" height="30" as="geometry" />
        </mxCell>
        <mxCell id="e7sbUX2ducIs3pXZIczz-22" style="edgeStyle=orthogonalEdgeStyle;rounded=0;orthogonalLoop=1;jettySize=auto;html=1;exitX=0.5;exitY=1;exitDx=0;exitDy=0;entryX=0.25;entryY=1;entryDx=0;entryDy=0;" parent="1" source="e7sbUX2ducIs3pXZIczz-19" target="e7sbUX2ducIs3pXZIczz-21" edge="1">
          <mxGeometry relative="1" as="geometry" />
        </mxCell>
        <mxCell id="e7sbUX2ducIs3pXZIczz-19" value="7" style="swimlane;childLayout=stackLayout;horizontal=1;startSize=50;horizontalStack=0;rounded=1;fontSize=14;fontStyle=0;strokeWidth=2;resizeParent=0;resizeLast=1;shadow=0;dashed=0;align=center;arcSize=4;whiteSpace=wrap;html=1;" parent="1" vertex="1">
          <mxGeometry x="345" y="930" width="168" height="120" as="geometry" />
        </mxCell>
        <mxCell id="e7sbUX2ducIs3pXZIczz-20" value="&lt;span style=&quot;font-size: 17px;&quot;&gt;การชำระเงิน&lt;/span&gt;" style="text;html=1;align=center;verticalAlign=middle;resizable=0;points=[];autosize=1;strokeColor=none;fillColor=none;" parent="e7sbUX2ducIs3pXZIczz-19" vertex="1">
          <mxGeometry y="50" width="168" height="70" as="geometry" />
        </mxCell>
        <mxCell id="e7sbUX2ducIs3pXZIczz-23" style="edgeStyle=orthogonalEdgeStyle;rounded=0;orthogonalLoop=1;jettySize=auto;html=1;exitX=1;exitY=0.5;exitDx=0;exitDy=0;entryX=0;entryY=0.5;entryDx=0;entryDy=0;" parent="1" source="e7sbUX2ducIs3pXZIczz-21" target="e7sbUX2ducIs3pXZIczz-19" edge="1">
          <mxGeometry relative="1" as="geometry" />
        </mxCell>
        <mxCell id="e7sbUX2ducIs3pXZIczz-21" value="ลูกค้า" style="rounded=0;whiteSpace=wrap;html=1;" parent="1" vertex="1">
          <mxGeometry x="75" y="960" width="120" height="60" as="geometry" />
        </mxCell>
        <mxCell id="e7sbUX2ducIs3pXZIczz-24" style="edgeStyle=orthogonalEdgeStyle;rounded=0;orthogonalLoop=1;jettySize=auto;html=1;" parent="1" source="e7sbUX2ducIs3pXZIczz-20" edge="1">
          <mxGeometry relative="1" as="geometry">
            <mxPoint x="720" y="921" as="targetPoint" />
          </mxGeometry>
        </mxCell>
        <mxCell id="e7sbUX2ducIs3pXZIczz-25" value="ใบแจ้งชำระค่าบริการ" style="text;html=1;align=center;verticalAlign=middle;resizable=0;points=[];autosize=1;strokeColor=none;fillColor=none;" parent="1" vertex="1">
          <mxGeometry x="150" y="1048" width="120" height="30" as="geometry" />
        </mxCell>
        <mxCell id="e7sbUX2ducIs3pXZIczz-26" value="ข้อมูลการชำระเงิน" style="text;html=1;align=center;verticalAlign=middle;resizable=0;points=[];autosize=1;strokeColor=none;fillColor=none;" parent="1" vertex="1">
          <mxGeometry x="207.5" y="968" width="110" height="30" as="geometry" />
        </mxCell>
        <mxCell id="e7sbUX2ducIs3pXZIczz-27" value="ข้อมูลการชำระเงิน" style="text;html=1;align=center;verticalAlign=middle;resizable=0;points=[];autosize=1;strokeColor=none;fillColor=none;" parent="1" vertex="1">
          <mxGeometry x="568.75" y="990" width="110" height="30" as="geometry" />
        </mxCell>
        <mxCell id="kjNaebWljjRCqEQofx6S-1" value="&lt;font style=&quot;font-size: 13px;&quot;&gt;&amp;lt;&amp;lt;&lt;b style=&quot;&quot;&gt;Payment API&lt;br&gt;&lt;/b&gt;&lt;b style=&quot;background-color: initial;&quot;&gt;Service&lt;/b&gt;&amp;gt;&amp;gt;&lt;/font&gt;" style="rounded=0;whiteSpace=wrap;html=1;" parent="1" vertex="1">
          <mxGeometry x="640" y="1040" width="120" height="60" as="geometry" />
        </mxCell>
        <mxCell id="orwC93veUZTLWgv8OVGT-1" style="edgeStyle=orthogonalEdgeStyle;rounded=0;orthogonalLoop=1;jettySize=auto;html=1;exitX=0;exitY=0.5;exitDx=0;exitDy=0;entryX=0.744;entryY=1;entryDx=0;entryDy=0;entryPerimeter=0;" parent="1" source="kjNaebWljjRCqEQofx6S-1" target="e7sbUX2ducIs3pXZIczz-20" edge="1">
          <mxGeometry relative="1" as="geometry" />
        </mxCell>
        <mxCell id="orwC93veUZTLWgv8OVGT-2" value="ข้อมูลการชำระเงิน" style="text;html=1;align=center;verticalAlign=middle;resizable=0;points=[];autosize=1;strokeColor=none;fillColor=none;" parent="1" vertex="1">
          <mxGeometry x="510" y="1048" width="110" height="30" as="geometry" />
        </mxCell>
        <mxCell id="Uqflz2liN4iyfqkf-5U8-1" style="edgeStyle=orthogonalEdgeStyle;rounded=0;orthogonalLoop=1;jettySize=auto;html=1;exitX=0.25;exitY=0;exitDx=0;exitDy=0;entryX=0.458;entryY=0;entryDx=0;entryDy=0;entryPerimeter=0;" parent="1" source="e7sbUX2ducIs3pXZIczz-19" target="e7sbUX2ducIs3pXZIczz-21" edge="1">
          <mxGeometry relative="1" as="geometry" />
        </mxCell>
        <mxCell id="Uqflz2liN4iyfqkf-5U8-2" value="ใบเสร็จรับเงิน" style="text;html=1;align=center;verticalAlign=middle;resizable=0;points=[];autosize=1;strokeColor=none;fillColor=none;" parent="1" vertex="1">
          <mxGeometry x="185" y="888" width="90" height="30" as="geometry" />
        </mxCell>
        <mxCell id="P-4tDb3lVwZGA76Fb62j-3" value="8" style="swimlane;childLayout=stackLayout;horizontal=1;startSize=50;horizontalStack=0;rounded=1;fontSize=14;fontStyle=0;strokeWidth=2;resizeParent=0;resizeLast=1;shadow=0;dashed=0;align=center;arcSize=4;whiteSpace=wrap;html=1;" parent="1" vertex="1">
          <mxGeometry x="345" y="1120" width="174" height="120" as="geometry" />
        </mxCell>
        <mxCell id="P-4tDb3lVwZGA76Fb62j-4" value="&lt;font style=&quot;font-size: 14px;&quot;&gt;การติดตามสถานะการจัดส่ง&lt;/font&gt;" style="text;html=1;align=center;verticalAlign=middle;resizable=0;points=[];autosize=1;strokeColor=none;fillColor=none;" parent="P-4tDb3lVwZGA76Fb62j-3" vertex="1">
          <mxGeometry y="50" width="174" height="70" as="geometry" />
        </mxCell>
        <mxCell id="P-4tDb3lVwZGA76Fb62j-5" value="ลูกค้า" style="rounded=0;whiteSpace=wrap;html=1;" parent="1" vertex="1">
          <mxGeometry x="80" y="1170" width="120" height="60" as="geometry" />
        </mxCell>
        <mxCell id="P-4tDb3lVwZGA76Fb62j-7" style="edgeStyle=orthogonalEdgeStyle;rounded=0;orthogonalLoop=1;jettySize=auto;html=1;exitX=0;exitY=0.5;exitDx=0;exitDy=0;entryX=1;entryY=0.5;entryDx=0;entryDy=0;" parent="1" source="P-4tDb3lVwZGA76Fb62j-6" target="P-4tDb3lVwZGA76Fb62j-3" edge="1">
          <mxGeometry relative="1" as="geometry" />
        </mxCell>
        <mxCell id="P-4tDb3lVwZGA76Fb62j-6" value="D3&lt;span style=&quot;white-space: pre;&quot;&gt;&#x9;&lt;/span&gt;&amp;nbsp;ข้อมูลพัสดุ" style="html=1;dashed=0;whiteSpace=wrap;shape=mxgraph.dfd.dataStoreID;align=left;spacingLeft=3;points=[[0,0],[0.5,0],[1,0],[0,0.5],[1,0.5],[0,1],[0.5,1],[1,1]];" parent="1" vertex="1">
          <mxGeometry x="640" y="1165" width="130" height="30" as="geometry" />
        </mxCell>
        <mxCell id="P-4tDb3lVwZGA76Fb62j-10" value="&lt;font style=&quot;font-size: 13px;&quot;&gt;&amp;lt;&amp;lt;&lt;b&gt;Location API Service&lt;/b&gt;&amp;gt;&amp;gt;&lt;/font&gt;" style="rounded=0;whiteSpace=wrap;html=1;" parent="1" vertex="1">
          <mxGeometry x="650" y="1260" width="120" height="60" as="geometry" />
        </mxCell>
        <mxCell id="6cJKyRYa-gxrEDVLR7Ho-1" style="edgeStyle=orthogonalEdgeStyle;rounded=0;orthogonalLoop=1;jettySize=auto;html=1;exitX=0;exitY=0.5;exitDx=0;exitDy=0;entryX=0.773;entryY=1.036;entryDx=0;entryDy=0;entryPerimeter=0;" parent="1" source="P-4tDb3lVwZGA76Fb62j-10" target="P-4tDb3lVwZGA76Fb62j-4" edge="1">
          <mxGeometry relative="1" as="geometry" />
        </mxCell>
        <mxCell id="6cJKyRYa-gxrEDVLR7Ho-3" value="&lt;span style=&quot;color: rgb(0, 0, 0); font-family: Helvetica; font-size: 12px; font-style: normal; font-variant-ligatures: normal; font-variant-caps: normal; font-weight: 400; letter-spacing: normal; orphans: 2; text-align: center; text-indent: 0px; text-transform: none; widows: 2; word-spacing: 0px; -webkit-text-stroke-width: 0px; white-space: normal; background-color: rgb(251, 251, 251); text-decoration-thickness: initial; text-decoration-style: initial; text-decoration-color: initial; display: inline !important; float: none;&quot;&gt;ข้อมูลพัสดุ&lt;span&gt;&amp;nbsp;&lt;/span&gt;&lt;/span&gt;" style="text;whiteSpace=wrap;html=1;" parent="1" vertex="1">
          <mxGeometry x="543" y="1155" width="90" height="40" as="geometry" />
        </mxCell>
        <mxCell id="9CXsd26vqf6vB2BYOoo_-1" value="&lt;span style=&quot;color: rgba(0, 0, 0, 0); font-family: monospace; font-size: 0px; text-align: start;&quot;&gt;%3CmxGraphModel%3E%3Croot%3E%3CmxCell%20id%3D%220%22%2F%3E%3CmxCell%20id%3D%221%22%20parent%3D%220%22%2F%3E%3CmxCell%20id%3D%222%22%20value%3D%22%E0%B8%82%E0%B9%89%E0%B8%AD%E0%B8%A1%E0%B8%B9%E0%B8%A5%E0%B8%9E%E0%B8%B1%E0%B8%AA%E0%B8%94%E0%B8%B8%20(%E0%B8%AB%E0%B8%A1%E0%B8%B2%E0%B8%A2%E0%B9%80%E0%B8%A5%E0%B8%82%E0%B8%9E%E0%B8%B1%E0%B8%AA%E0%B8%94%E0%B8%B8)%22%20style%3D%22text%3Bhtml%3D1%3Balign%3Dcenter%3BverticalAlign%3Dmiddle%3Bresizable%3D0%3Bpoints%3D%5B%5D%3Bautosize%3D1%3BstrokeColor%3Dnone%3BfillColor%3Dnone%3B%22%20vertex%3D%221%22%20parent%3D%221%22%3E%3CmxGeometry%20x%3D%22182.5%22%20y%3D%22908%22%20width%3D%22160%22%20height%3D%2230%22%20as%3D%22geometry%22%2F%3E%3C%2FmxCell%3E%3C%2Froot%3E%3C%2FmxGraphModel%3E&lt;/span&gt;" style="text;html=1;align=center;verticalAlign=middle;resizable=0;points=[];autosize=1;strokeColor=none;fillColor=none;" parent="1" vertex="1">
          <mxGeometry x="260" y="1170" width="20" height="30" as="geometry" />
        </mxCell>
        <mxCell id="kZK_6mA5pcyWOGpNaCXV-1" style="edgeStyle=orthogonalEdgeStyle;rounded=0;orthogonalLoop=1;jettySize=auto;html=1;exitX=1;exitY=0.5;exitDx=0;exitDy=0;entryX=1;entryY=0.174;entryDx=0;entryDy=0;entryPerimeter=0;" parent="1" source="e7sbUX2ducIs3pXZIczz-6" target="e7sbUX2ducIs3pXZIczz-20" edge="1">
          <mxGeometry relative="1" as="geometry" />
        </mxCell>
        <mxCell id="kZK_6mA5pcyWOGpNaCXV-2" style="edgeStyle=orthogonalEdgeStyle;rounded=0;orthogonalLoop=1;jettySize=auto;html=1;exitX=0;exitY=0;exitDx=0;exitDy=0;entryX=0.782;entryY=0.001;entryDx=0;entryDy=0;entryPerimeter=0;" parent="1" source="e7sbUX2ducIs3pXZIczz-19" target="e7sbUX2ducIs3pXZIczz-21" edge="1">
          <mxGeometry relative="1" as="geometry">
            <Array as="points">
              <mxPoint x="169" y="930" />
            </Array>
          </mxGeometry>
        </mxCell>
        <mxCell id="kZK_6mA5pcyWOGpNaCXV-3" value="ข้อมูลพัสดุ (หมายเลขพัสดุ)" style="text;html=1;align=center;verticalAlign=middle;resizable=0;points=[];autosize=1;strokeColor=none;fillColor=none;" parent="1" vertex="1">
          <mxGeometry x="182.5" y="908" width="160" height="30" as="geometry" />
        </mxCell>
        <mxCell id="kZK_6mA5pcyWOGpNaCXV-4" value="&lt;span style=&quot;color: rgb(0, 0, 0); font-family: Helvetica; font-size: 12px; font-style: normal; font-variant-ligatures: normal; font-variant-caps: normal; font-weight: 400; letter-spacing: normal; orphans: 2; text-align: center; text-indent: 0px; text-transform: none; widows: 2; word-spacing: 0px; -webkit-text-stroke-width: 0px; white-space: nowrap; background-color: rgb(251, 251, 251); text-decoration-thickness: initial; text-decoration-style: initial; text-decoration-color: initial; display: inline !important; float: none;&quot;&gt;ข้อมูลพัสดุ (หมายเลขพัสดุ, QR Code)&lt;/span&gt;" style="text;whiteSpace=wrap;html=1;" parent="1" vertex="1">
          <mxGeometry x="530" y="968" width="220" height="40" as="geometry" />
        </mxCell>
        <mxCell id="kZK_6mA5pcyWOGpNaCXV-5" style="edgeStyle=orthogonalEdgeStyle;rounded=0;orthogonalLoop=1;jettySize=auto;html=1;exitX=1;exitY=0.5;exitDx=0;exitDy=0;entryX=0.013;entryY=0.416;entryDx=0;entryDy=0;entryPerimeter=0;" parent="1" source="P-4tDb3lVwZGA76Fb62j-5" target="P-4tDb3lVwZGA76Fb62j-4" edge="1">
          <mxGeometry relative="1" as="geometry" />
        </mxCell>
        <mxCell id="kZK_6mA5pcyWOGpNaCXV-6" style="edgeStyle=orthogonalEdgeStyle;rounded=0;orthogonalLoop=1;jettySize=auto;html=1;entryX=0.417;entryY=1;entryDx=0;entryDy=0;entryPerimeter=0;" parent="1" source="P-4tDb3lVwZGA76Fb62j-4" target="P-4tDb3lVwZGA76Fb62j-5" edge="1">
          <mxGeometry relative="1" as="geometry">
            <Array as="points">
              <mxPoint x="432" y="1290" />
              <mxPoint x="130" y="1290" />
            </Array>
          </mxGeometry>
        </mxCell>
        <mxCell id="kZK_6mA5pcyWOGpNaCXV-7" style="edgeStyle=orthogonalEdgeStyle;rounded=0;orthogonalLoop=1;jettySize=auto;html=1;exitX=0.25;exitY=0;exitDx=0;exitDy=0;entryX=0.333;entryY=0;entryDx=0;entryDy=0;entryPerimeter=0;" parent="1" source="P-4tDb3lVwZGA76Fb62j-3" target="P-4tDb3lVwZGA76Fb62j-5" edge="1">
          <mxGeometry relative="1" as="geometry" />
        </mxCell>
        <mxCell id="kZK_6mA5pcyWOGpNaCXV-8" value="ข้อมูลพิกัดสถานที่" style="text;html=1;align=center;verticalAlign=middle;resizable=0;points=[];autosize=1;strokeColor=none;fillColor=none;" parent="1" vertex="1">
          <mxGeometry x="513" y="1270" width="110" height="30" as="geometry" />
        </mxCell>
        <mxCell id="kZK_6mA5pcyWOGpNaCXV-9" value="ข้อมูลพัสดุ (สถานะพัสดุ)" style="text;html=1;align=center;verticalAlign=middle;resizable=0;points=[];autosize=1;strokeColor=none;fillColor=none;" parent="1" vertex="1">
          <mxGeometry x="202.5" y="1260" width="140" height="30" as="geometry" />
        </mxCell>
        <mxCell id="kZK_6mA5pcyWOGpNaCXV-10" value="ข้อมูลพัสดุ (Qr Code พิกัดพัสดุ)" style="text;html=1;align=center;verticalAlign=middle;resizable=0;points=[];autosize=1;strokeColor=none;fillColor=none;" parent="1" vertex="1">
          <mxGeometry x="155" y="1100" width="180" height="30" as="geometry" />
        </mxCell>
        <mxCell id="kZK_6mA5pcyWOGpNaCXV-11" value="ข้อมูลพัสดุ (หมายเลขพัสดุ)" style="text;html=1;align=center;verticalAlign=middle;resizable=0;points=[];autosize=1;strokeColor=none;fillColor=none;" parent="1" vertex="1">
          <mxGeometry x="195" y="1170" width="160" height="30" as="geometry" />
        </mxCell>
        <mxCell id="kZK_6mA5pcyWOGpNaCXV-12" value="1" style="swimlane;childLayout=stackLayout;horizontal=1;startSize=50;horizontalStack=0;rounded=1;fontSize=14;fontStyle=0;strokeWidth=2;resizeParent=0;resizeLast=1;shadow=0;dashed=0;align=center;arcSize=4;whiteSpace=wrap;html=1;" parent="1" vertex="1">
          <mxGeometry x="345" y="-120" width="160" height="120" as="geometry" />
        </mxCell>
        <mxCell id="kZK_6mA5pcyWOGpNaCXV-13" value="&lt;span style=&quot;font-size: 21px;&quot;&gt;การเข้าสู่ระบบ&lt;/span&gt;" style="text;html=1;align=center;verticalAlign=middle;resizable=0;points=[];autosize=1;strokeColor=none;fillColor=none;" parent="kZK_6mA5pcyWOGpNaCXV-12" vertex="1">
          <mxGeometry y="50" width="160" height="70" as="geometry" />
        </mxCell>
        <mxCell id="kZK_6mA5pcyWOGpNaCXV-14" value="ลูกค้า" style="rounded=0;whiteSpace=wrap;html=1;" parent="1" vertex="1">
          <mxGeometry x="110" y="-60" width="120" height="60" as="geometry" />
        </mxCell>
        <mxCell id="kZK_6mA5pcyWOGpNaCXV-16" value="เจ้าหน้าที่ไปรษณีย์" style="rounded=0;whiteSpace=wrap;html=1;" parent="1" vertex="1">
          <mxGeometry x="110" y="-230" width="120" height="60" as="geometry" />
        </mxCell>
        <mxCell id="kZK_6mA5pcyWOGpNaCXV-19" value="&lt;span style=&quot;color: rgb(0, 0, 0); font-family: Helvetica; font-size: 12px; font-style: normal; font-variant-ligatures: normal; font-variant-caps: normal; font-weight: 400; letter-spacing: normal; orphans: 2; text-align: left; text-indent: 0px; text-transform: none; widows: 2; word-spacing: 0px; -webkit-text-stroke-width: 0px; white-space: normal; background-color: rgb(251, 251, 251); text-decoration-thickness: initial; text-decoration-style: initial; text-decoration-color: initial; display: inline !important; float: none;&quot;&gt;ข้อมูล&lt;/span&gt;&lt;span style=&quot;text-align: center;&quot;&gt;เจ้าหน้าที่ไปรษณีย์&lt;/span&gt;" style="text;whiteSpace=wrap;html=1;" parent="1" vertex="1">
          <mxGeometry x="182.5" y="-120" width="125" height="30" as="geometry" />
        </mxCell>
        <mxCell id="kZK_6mA5pcyWOGpNaCXV-20" value="D1&lt;span style=&quot;white-space: pre;&quot;&gt;&#x9;&lt;/span&gt;&amp;nbsp;ข้อมูลลูกค้า" style="html=1;dashed=0;whiteSpace=wrap;shape=mxgraph.dfd.dataStoreID;align=left;spacingLeft=3;points=[[0,0],[0.5,0],[1,0],[0,0.5],[1,0.5],[0,1],[0.5,1],[1,1]];" parent="1" vertex="1">
          <mxGeometry x="636.28" y="-100" width="100" height="30" as="geometry" />
        </mxCell>
        <mxCell id="kZK_6mA5pcyWOGpNaCXV-22" style="edgeStyle=orthogonalEdgeStyle;rounded=0;orthogonalLoop=1;jettySize=auto;html=1;entryX=1.007;entryY=0.42;entryDx=0;entryDy=0;entryPerimeter=0;" parent="1" source="kZK_6mA5pcyWOGpNaCXV-13" target="kZK_6mA5pcyWOGpNaCXV-14" edge="1">
          <mxGeometry relative="1" as="geometry" />
        </mxCell>
        <mxCell id="kZK_6mA5pcyWOGpNaCXV-25" value="D2&lt;span style=&quot;white-space: pre;&quot;&gt;&#x9;&lt;/span&gt;&amp;nbsp;ข้อมูล&lt;span style=&quot;text-align: center;&quot;&gt;เจ้าหน้าที่ไปรษณีย์&lt;/span&gt;" style="html=1;dashed=0;whiteSpace=wrap;shape=mxgraph.dfd.dataStoreID;align=left;spacingLeft=3;points=[[0,0],[0.5,0],[1,0],[0,0.5],[1,0.5],[0,1],[0.5,1],[1,1]];" parent="1" vertex="1">
          <mxGeometry x="636.28" y="-60" width="160" height="30" as="geometry" />
        </mxCell>
        <mxCell id="kZK_6mA5pcyWOGpNaCXV-26" style="edgeStyle=orthogonalEdgeStyle;rounded=0;orthogonalLoop=1;jettySize=auto;html=1;exitX=0;exitY=0.5;exitDx=0;exitDy=0;entryX=1.004;entryY=0.36;entryDx=0;entryDy=0;entryPerimeter=0;" parent="1" source="kZK_6mA5pcyWOGpNaCXV-25" target="kZK_6mA5pcyWOGpNaCXV-13" edge="1">
          <mxGeometry relative="1" as="geometry">
            <mxPoint x="510" y="-45" as="targetPoint" />
          </mxGeometry>
        </mxCell>
        <mxCell id="kZK_6mA5pcyWOGpNaCXV-27" style="edgeStyle=orthogonalEdgeStyle;rounded=0;orthogonalLoop=1;jettySize=auto;html=1;exitX=0;exitY=0.5;exitDx=0;exitDy=0;entryX=1;entryY=0.155;entryDx=0;entryDy=0;entryPerimeter=0;" parent="1" source="kZK_6mA5pcyWOGpNaCXV-20" target="kZK_6mA5pcyWOGpNaCXV-13" edge="1">
          <mxGeometry relative="1" as="geometry" />
        </mxCell>
        <mxCell id="kZK_6mA5pcyWOGpNaCXV-35" value="&lt;span style=&quot;text-align: center; text-wrap-mode: nowrap;&quot;&gt;ข้อมูลในการเข้าสู่ระบบ&lt;/span&gt;" style="text;whiteSpace=wrap;html=1;" parent="1" vertex="1">
          <mxGeometry x="230" y="-10" width="120" height="40" as="geometry" />
        </mxCell>
        <mxCell id="kZK_6mA5pcyWOGpNaCXV-36" value="&lt;span style=&quot;color: rgb(0, 0, 0); font-family: Helvetica; font-size: 12px; font-style: normal; font-variant-ligatures: normal; font-variant-caps: normal; font-weight: 400; letter-spacing: normal; orphans: 2; text-align: left; text-indent: 0px; text-transform: none; widows: 2; word-spacing: 0px; -webkit-text-stroke-width: 0px; white-space: normal; background-color: rgb(251, 251, 251); text-decoration-thickness: initial; text-decoration-style: initial; text-decoration-color: initial; display: inline !important; float: none;&quot;&gt;ข้อมูล&lt;/span&gt;&lt;span style=&quot;text-align: center;&quot;&gt;เจ้าหน้าที่ไปรษณีย์&lt;/span&gt;" style="text;whiteSpace=wrap;html=1;" parent="1" vertex="1">
          <mxGeometry x="513" y="-40" width="125" height="30" as="geometry" />
        </mxCell>
        <mxCell id="kZK_6mA5pcyWOGpNaCXV-37" value="&lt;span style=&quot;color: rgb(0, 0, 0); font-family: Helvetica; font-size: 12px; font-style: normal; font-variant-ligatures: normal; font-variant-caps: normal; font-weight: 400; letter-spacing: normal; orphans: 2; text-align: left; text-indent: 0px; text-transform: none; widows: 2; word-spacing: 0px; -webkit-text-stroke-width: 0px; white-space: normal; background-color: rgb(251, 251, 251); text-decoration-thickness: initial; text-decoration-style: initial; text-decoration-color: initial; display: inline !important; float: none;&quot;&gt;ข้อมูลลูกค้า&lt;/span&gt;" style="text;whiteSpace=wrap;html=1;" parent="1" vertex="1">
          <mxGeometry x="543" y="-110" width="120" height="40" as="geometry" />
        </mxCell>
        <mxCell id="5eDu0_kOvzQTs9TH_nDC-1" style="edgeStyle=orthogonalEdgeStyle;rounded=0;orthogonalLoop=1;jettySize=auto;html=1;exitX=1;exitY=0.75;exitDx=0;exitDy=0;entryX=-0.007;entryY=0.794;entryDx=0;entryDy=0;entryPerimeter=0;" parent="1" source="kZK_6mA5pcyWOGpNaCXV-14" target="kZK_6mA5pcyWOGpNaCXV-13" edge="1">
          <mxGeometry relative="1" as="geometry" />
        </mxCell>
        <mxCell id="5eDu0_kOvzQTs9TH_nDC-2" value="&lt;span style=&quot;color: rgb(0, 0, 0); font-family: Helvetica; font-size: 12px; font-style: normal; font-variant-ligatures: normal; font-variant-caps: normal; font-weight: 400; letter-spacing: normal; orphans: 2; text-align: left; text-indent: 0px; text-transform: none; widows: 2; word-spacing: 0px; -webkit-text-stroke-width: 0px; white-space: normal; background-color: rgb(251, 251, 251); text-decoration-thickness: initial; text-decoration-style: initial; text-decoration-color: initial; display: inline !important; float: none;&quot;&gt;ข้อมูลบัญชีลูกค้า&lt;/span&gt;" style="text;whiteSpace=wrap;html=1;" parent="1" vertex="1">
          <mxGeometry x="245" y="-60" width="90" height="30" as="geometry" />
        </mxCell>
        <mxCell id="qWrCar5kT_dJZMUnJHkB-1" style="edgeStyle=orthogonalEdgeStyle;rounded=0;orthogonalLoop=1;jettySize=auto;html=1;exitX=0.5;exitY=0;exitDx=0;exitDy=0;entryX=0.993;entryY=0.387;entryDx=0;entryDy=0;entryPerimeter=0;startArrow=classic;startFill=1;endArrow=none;endFill=0;" parent="1" source="kZK_6mA5pcyWOGpNaCXV-12" target="kZK_6mA5pcyWOGpNaCXV-16" edge="1">
          <mxGeometry relative="1" as="geometry" />
        </mxCell>
        <mxCell id="qWrCar5kT_dJZMUnJHkB-2" style="edgeStyle=orthogonalEdgeStyle;rounded=0;orthogonalLoop=1;jettySize=auto;html=1;exitX=0;exitY=0.25;exitDx=0;exitDy=0;entryX=0.42;entryY=0.992;entryDx=0;entryDy=0;entryPerimeter=0;" parent="1" source="kZK_6mA5pcyWOGpNaCXV-12" target="kZK_6mA5pcyWOGpNaCXV-16" edge="1">
          <mxGeometry relative="1" as="geometry" />
        </mxCell>
        <mxCell id="qWrCar5kT_dJZMUnJHkB-5" value="&lt;span style=&quot;color: rgb(0, 0, 0); font-family: Helvetica; font-size: 12px; font-style: normal; font-variant-ligatures: normal; font-variant-caps: normal; font-weight: 400; letter-spacing: normal; orphans: 2; text-align: center; text-indent: 0px; text-transform: none; widows: 2; word-spacing: 0px; -webkit-text-stroke-width: 0px; white-space: nowrap; background-color: rgb(251, 251, 251); text-decoration-thickness: initial; text-decoration-style: initial; text-decoration-color: initial; display: inline !important; float: none;&quot;&gt;ข้อมูลในการเข้าสู่ระบบ&lt;/span&gt;" style="text;whiteSpace=wrap;html=1;" parent="1" vertex="1">
          <mxGeometry x="267.5" y="-230" width="140" height="40" as="geometry" />
        </mxCell>
        <mxCell id="cr6GS48L2RAbN9MBNts5-1" value="9" style="swimlane;childLayout=stackLayout;horizontal=1;startSize=50;horizontalStack=0;rounded=1;fontSize=14;fontStyle=0;strokeWidth=2;resizeParent=0;resizeLast=1;shadow=0;dashed=0;align=center;arcSize=4;whiteSpace=wrap;html=1;" vertex="1" parent="1">
          <mxGeometry x="345" y="1346" width="174" height="120" as="geometry" />
        </mxCell>
        <mxCell id="cr6GS48L2RAbN9MBNts5-2" value="&lt;span style=&quot;font-size: 14px;&quot;&gt;ยืนยันสถานะจากผู้รับ&lt;/span&gt;" style="text;html=1;align=center;verticalAlign=middle;resizable=0;points=[];autosize=1;strokeColor=none;fillColor=none;" vertex="1" parent="cr6GS48L2RAbN9MBNts5-1">
          <mxGeometry y="50" width="174" height="70" as="geometry" />
        </mxCell>
        <mxCell id="9VXtDLJB-4Lw-txzKCnB-1" value="ผู้รับ" style="rounded=0;whiteSpace=wrap;html=1;" vertex="1" parent="1">
          <mxGeometry x="87.5" y="1381" width="120" height="60" as="geometry" />
        </mxCell>
        <mxCell id="9VXtDLJB-4Lw-txzKCnB-2" style="edgeStyle=orthogonalEdgeStyle;rounded=0;orthogonalLoop=1;jettySize=auto;html=1;exitX=1;exitY=0.5;exitDx=0;exitDy=0;entryX=0.007;entryY=0.218;entryDx=0;entryDy=0;entryPerimeter=0;" edge="1" parent="1" source="9VXtDLJB-4Lw-txzKCnB-1" target="cr6GS48L2RAbN9MBNts5-2">
          <mxGeometry relative="1" as="geometry" />
        </mxCell>
        <mxCell id="9VXtDLJB-4Lw-txzKCnB-4" value="ข้อมูลยืนยันพัสดุ" style="text;html=1;align=center;verticalAlign=middle;resizable=0;points=[];autosize=1;strokeColor=none;fillColor=none;" vertex="1" parent="1">
          <mxGeometry x="217.5" y="1381" width="100" height="30" as="geometry" />
        </mxCell>
        <mxCell id="9VXtDLJB-4Lw-txzKCnB-7" style="edgeStyle=orthogonalEdgeStyle;rounded=0;orthogonalLoop=1;jettySize=auto;html=1;entryX=1;entryY=0.5;entryDx=0;entryDy=0;" edge="1" parent="1" source="cr6GS48L2RAbN9MBNts5-2" target="P-4tDb3lVwZGA76Fb62j-6">
          <mxGeometry relative="1" as="geometry">
            <Array as="points">
              <mxPoint x="810" y="1431" />
              <mxPoint x="810" y="1180" />
            </Array>
          </mxGeometry>
        </mxCell>
        <mxCell id="9VXtDLJB-4Lw-txzKCnB-11" value="ข้อมูลพัสดุที่ได้รับการยืนยัน" style="text;html=1;align=center;verticalAlign=middle;resizable=0;points=[];autosize=1;strokeColor=none;fillColor=none;" vertex="1" parent="1">
          <mxGeometry x="576.28" y="1396" width="160" height="30" as="geometry" />
        </mxCell>
      </root>
    </mxGraphModel>
  </diagram>
  <diagram id="trGnV7OedYbYuNJ72Bhj" name="level 2">
    <mxGraphModel dx="1909" dy="1602" grid="0" gridSize="10" guides="1" tooltips="1" connect="1" arrows="1" fold="1" page="0" pageScale="1" pageWidth="850" pageHeight="1100" math="0" shadow="0">
      <root>
        <mxCell id="0" />
        <mxCell id="1" parent="0" />
        <mxCell id="remXbCl7s2oGMmsp1BID-3" value="&lt;font style=&quot;font-size: 22px;&quot;&gt;ลูกค้า&lt;/font&gt;" style="rounded=0;whiteSpace=wrap;html=1;" parent="1" vertex="1">
          <mxGeometry x="13" y="139.5" width="112.5" height="45" as="geometry" />
        </mxCell>
        <mxCell id="remXbCl7s2oGMmsp1BID-4" value="2.1" style="swimlane;childLayout=stackLayout;horizontal=1;startSize=50;horizontalStack=0;rounded=1;fontSize=14;fontStyle=0;strokeWidth=2;resizeParent=0;resizeLast=1;shadow=0;dashed=0;align=center;arcSize=4;whiteSpace=wrap;html=1;" parent="1" vertex="1">
          <mxGeometry x="283" y="102" width="160" height="120" as="geometry" />
        </mxCell>
        <mxCell id="remXbCl7s2oGMmsp1BID-5" value="เก็บข้อมูลลูกค้า" style="text;align=center;verticalAlign=middle;resizable=0;points=[];autosize=1;imageAspect=0;fontColor=default;fontSize=15;" parent="remXbCl7s2oGMmsp1BID-4" vertex="1">
          <mxGeometry y="50" width="160" height="70" as="geometry" />
        </mxCell>
        <mxCell id="remXbCl7s2oGMmsp1BID-6" style="edgeStyle=orthogonalEdgeStyle;rounded=0;orthogonalLoop=1;jettySize=auto;html=1;exitX=1;exitY=0.5;exitDx=0;exitDy=0;entryX=-0.001;entryY=0.154;entryDx=0;entryDy=0;entryPerimeter=0;" parent="1" source="remXbCl7s2oGMmsp1BID-3" target="remXbCl7s2oGMmsp1BID-5" edge="1">
          <mxGeometry relative="1" as="geometry" />
        </mxCell>
        <mxCell id="remXbCl7s2oGMmsp1BID-8" value="ข้อมูลรายละเอียดการสมัคร" style="text;html=1;align=center;verticalAlign=middle;resizable=0;points=[];autosize=1;strokeColor=none;fillColor=none;" parent="1" vertex="1">
          <mxGeometry x="125.5" y="139.5" width="150" height="30" as="geometry" />
        </mxCell>
        <mxCell id="remXbCl7s2oGMmsp1BID-13" style="edgeStyle=orthogonalEdgeStyle;rounded=0;orthogonalLoop=1;jettySize=auto;html=1;exitX=0.5;exitY=0;exitDx=0;exitDy=0;entryX=0.5;entryY=0;entryDx=0;entryDy=0;" parent="1" source="remXbCl7s2oGMmsp1BID-9" target="remXbCl7s2oGMmsp1BID-3" edge="1">
          <mxGeometry relative="1" as="geometry" />
        </mxCell>
        <mxCell id="remXbCl7s2oGMmsp1BID-9" value="2.2" style="swimlane;childLayout=stackLayout;horizontal=1;startSize=50;horizontalStack=0;rounded=1;fontSize=14;fontStyle=0;strokeWidth=2;resizeParent=0;resizeLast=1;shadow=0;dashed=0;align=center;arcSize=4;whiteSpace=wrap;html=1;" parent="1" vertex="1">
          <mxGeometry x="603" y="102" width="175" height="120" as="geometry" />
        </mxCell>
        <mxCell id="remXbCl7s2oGMmsp1BID-10" value="ตรวจสอบความถูกต้องข้อมูล" style="text;align=center;verticalAlign=middle;resizable=0;points=[];autosize=1;imageAspect=0;fontColor=default;fontSize=15;" parent="remXbCl7s2oGMmsp1BID-9" vertex="1">
          <mxGeometry y="50" width="175" height="70" as="geometry" />
        </mxCell>
        <mxCell id="remXbCl7s2oGMmsp1BID-11" value="" style="endArrow=classic;html=1;rounded=0;exitX=0.997;exitY=0.12;exitDx=0;exitDy=0;exitPerimeter=0;entryX=0.003;entryY=0.121;entryDx=0;entryDy=0;entryPerimeter=0;" parent="1" source="remXbCl7s2oGMmsp1BID-5" target="remXbCl7s2oGMmsp1BID-10" edge="1">
          <mxGeometry width="50" height="50" relative="1" as="geometry">
            <mxPoint x="523" y="119.5" as="sourcePoint" />
            <mxPoint x="573" y="69.5" as="targetPoint" />
          </mxGeometry>
        </mxCell>
        <mxCell id="remXbCl7s2oGMmsp1BID-12" value="ข้อมูลรายละเอียดการสมัคร" style="text;html=1;align=center;verticalAlign=middle;resizable=0;points=[];autosize=1;strokeColor=none;fillColor=none;" parent="1" vertex="1">
          <mxGeometry x="443" y="139.5" width="150" height="30" as="geometry" />
        </mxCell>
        <mxCell id="remXbCl7s2oGMmsp1BID-14" value="ข้อมูลผิดพลาด" style="text;html=1;align=center;verticalAlign=middle;resizable=0;points=[];autosize=1;strokeColor=none;fillColor=none;" parent="1" vertex="1">
          <mxGeometry x="308" y="50" width="100" height="30" as="geometry" />
        </mxCell>
        <mxCell id="remXbCl7s2oGMmsp1BID-15" value="2.3" style="swimlane;childLayout=stackLayout;horizontal=1;startSize=50;horizontalStack=0;rounded=1;fontSize=14;fontStyle=0;strokeWidth=2;resizeParent=0;resizeLast=1;shadow=0;dashed=0;align=center;arcSize=4;whiteSpace=wrap;html=1;" parent="1" vertex="1">
          <mxGeometry x="603" y="322" width="175" height="120" as="geometry" />
        </mxCell>
        <mxCell id="remXbCl7s2oGMmsp1BID-16" value="สร้างบัญชีผู้ใช้" style="text;align=center;verticalAlign=middle;resizable=0;points=[];autosize=1;imageAspect=0;fontColor=default;fontSize=15;" parent="remXbCl7s2oGMmsp1BID-15" vertex="1">
          <mxGeometry y="50" width="175" height="70" as="geometry" />
        </mxCell>
        <mxCell id="remXbCl7s2oGMmsp1BID-18" value="" style="endArrow=classic;html=1;rounded=0;exitX=0.292;exitY=0.998;exitDx=0;exitDy=0;exitPerimeter=0;" parent="1" edge="1">
          <mxGeometry width="50" height="50" relative="1" as="geometry">
            <mxPoint x="687.9999999999999" y="222.0000000000001" as="sourcePoint" />
            <mxPoint x="688" y="322" as="targetPoint" />
          </mxGeometry>
        </mxCell>
        <mxCell id="remXbCl7s2oGMmsp1BID-19" value="ข้อมูลรายละเอียดการสมัคร" style="text;html=1;align=center;verticalAlign=middle;resizable=0;points=[];autosize=1;strokeColor=none;fillColor=none;" parent="1" vertex="1">
          <mxGeometry x="688" y="262" width="150" height="30" as="geometry" />
        </mxCell>
        <mxCell id="remXbCl7s2oGMmsp1BID-20" value="D1&lt;span style=&quot;white-space: pre;&quot;&gt;&#x9;&lt;/span&gt;&amp;nbsp;ข้อมูลลูกค้า" style="html=1;dashed=0;whiteSpace=wrap;shape=mxgraph.dfd.dataStoreID;align=left;spacingLeft=3;points=[[0,0],[0.5,0],[1,0],[0,0.5],[1,0.5],[0,1],[0.5,1],[1,1]];" parent="1" vertex="1">
          <mxGeometry x="328" y="367" width="100" height="30" as="geometry" />
        </mxCell>
        <mxCell id="remXbCl7s2oGMmsp1BID-21" value="" style="endArrow=classic;html=1;rounded=0;exitX=0.015;exitY=0.134;exitDx=0;exitDy=0;exitPerimeter=0;" parent="1" source="remXbCl7s2oGMmsp1BID-16" target="remXbCl7s2oGMmsp1BID-20" edge="1">
          <mxGeometry width="50" height="50" relative="1" as="geometry">
            <mxPoint x="518" y="392" as="sourcePoint" />
            <mxPoint x="468" y="362" as="targetPoint" />
          </mxGeometry>
        </mxCell>
        <mxCell id="mm9nFc05XXXpfdDoJltu-1" value="&lt;span style=&quot;color: rgb(0, 0, 0); font-family: Helvetica; font-size: 12px; font-style: normal; font-variant-ligatures: normal; font-variant-caps: normal; font-weight: 400; letter-spacing: normal; orphans: 2; text-align: left; text-indent: 0px; text-transform: none; widows: 2; word-spacing: 0px; -webkit-text-stroke-width: 0px; white-space: normal; background-color: rgb(251, 251, 251); text-decoration-thickness: initial; text-decoration-style: initial; text-decoration-color: initial; display: inline !important; float: none;&quot;&gt;ข้อมูลบัญชีลูกค้า&lt;/span&gt;" style="text;whiteSpace=wrap;html=1;" parent="1" vertex="1">
          <mxGeometry x="478" y="352" width="90" height="30" as="geometry" />
        </mxCell>
        <mxCell id="6QzvMrfWdoTyalFXkRVF-1" value="&lt;font style=&quot;font-size: 23px;&quot;&gt;ลูกค้า&lt;/font&gt;" style="rounded=0;whiteSpace=wrap;html=1;" parent="1" vertex="1">
          <mxGeometry x="30" y="-355" width="120" height="60" as="geometry" />
        </mxCell>
        <mxCell id="6QzvMrfWdoTyalFXkRVF-2" style="edgeStyle=orthogonalEdgeStyle;rounded=0;orthogonalLoop=1;jettySize=auto;html=1;exitX=0.25;exitY=0;exitDx=0;exitDy=0;entryX=0.5;entryY=1;entryDx=0;entryDy=0;" parent="1" source="6QzvMrfWdoTyalFXkRVF-3" target="6QzvMrfWdoTyalFXkRVF-12" edge="1">
          <mxGeometry relative="1" as="geometry" />
        </mxCell>
        <mxCell id="6QzvMrfWdoTyalFXkRVF-3" value="1.1" style="swimlane;childLayout=stackLayout;horizontal=1;startSize=50;horizontalStack=0;rounded=1;fontSize=11;fontStyle=0;strokeWidth=2;resizeParent=0;resizeLast=1;shadow=0;dashed=0;align=center;arcSize=4;whiteSpace=wrap;html=1;" parent="1" vertex="1">
          <mxGeometry x="360" y="-380" width="160" height="115" as="geometry" />
        </mxCell>
        <mxCell id="6QzvMrfWdoTyalFXkRVF-4" value="ตรวจสอบข้อมูลในฐานข้อมูล" style="text;align=center;verticalAlign=middle;resizable=0;points=[];autosize=1;imageAspect=0;fontColor=default;fontSize=12;" parent="6QzvMrfWdoTyalFXkRVF-3" vertex="1">
          <mxGeometry y="50" width="160" height="65" as="geometry" />
        </mxCell>
        <mxCell id="6QzvMrfWdoTyalFXkRVF-5" value="D1&lt;span style=&quot;white-space: pre;&quot;&gt;&#x9;&lt;/span&gt;&amp;nbsp;ข้อมูลลูกค้า" style="html=1;dashed=0;whiteSpace=wrap;shape=mxgraph.dfd.dataStoreID;align=left;spacingLeft=3;points=[[0,0],[0.5,0],[1,0],[0,0.5],[1,0.5],[0,1],[0.5,1],[1,1]];" parent="1" vertex="1">
          <mxGeometry x="720" y="-385" width="130" height="50" as="geometry" />
        </mxCell>
        <mxCell id="6QzvMrfWdoTyalFXkRVF-6" value="D2&lt;span style=&quot;white-space: pre;&quot;&gt;&#x9;&lt;/span&gt;&amp;nbsp;ข้อมูล&lt;span style=&quot;text-align: center;&quot;&gt;เจ้าหน้าที่ไปรษณีย์&lt;/span&gt;" style="html=1;dashed=0;whiteSpace=wrap;shape=mxgraph.dfd.dataStoreID;align=left;spacingLeft=3;points=[[0,0],[0.5,0],[1,0],[0,0.5],[1,0.5],[0,1],[0.5,1],[1,1]];" parent="1" vertex="1">
          <mxGeometry x="720" y="-310" width="160" height="45" as="geometry" />
        </mxCell>
        <mxCell id="6QzvMrfWdoTyalFXkRVF-7" value="1.2" style="swimlane;childLayout=stackLayout;horizontal=1;startSize=50;horizontalStack=0;rounded=1;fontSize=14;fontStyle=0;strokeWidth=2;resizeParent=0;resizeLast=1;shadow=0;dashed=0;align=center;arcSize=4;whiteSpace=wrap;html=1;" parent="1" vertex="1">
          <mxGeometry x="352" y="-150" width="198" height="120" as="geometry" />
        </mxCell>
        <mxCell id="6QzvMrfWdoTyalFXkRVF-8" value="ข้อมูลเข้าสู่ระบบไม่ถูกต้อง" style="text;align=center;verticalAlign=middle;resizable=0;points=[];autosize=1;imageAspect=0;fontColor=default;fontSize=15;" parent="6QzvMrfWdoTyalFXkRVF-7" vertex="1">
          <mxGeometry y="50" width="198" height="70" as="geometry" />
        </mxCell>
        <mxCell id="6QzvMrfWdoTyalFXkRVF-9" style="edgeStyle=orthogonalEdgeStyle;rounded=0;orthogonalLoop=1;jettySize=auto;html=1;entryX=0.5;entryY=1;entryDx=0;entryDy=0;" parent="1" source="6QzvMrfWdoTyalFXkRVF-8" target="6QzvMrfWdoTyalFXkRVF-1" edge="1">
          <mxGeometry relative="1" as="geometry" />
        </mxCell>
        <mxCell id="6QzvMrfWdoTyalFXkRVF-10" style="edgeStyle=orthogonalEdgeStyle;rounded=0;orthogonalLoop=1;jettySize=auto;html=1;entryX=0.5;entryY=0;entryDx=0;entryDy=0;" parent="1" edge="1">
          <mxGeometry relative="1" as="geometry">
            <mxPoint x="390" y="-265" as="sourcePoint" />
            <mxPoint x="390" y="-150" as="targetPoint" />
          </mxGeometry>
        </mxCell>
        <mxCell id="6QzvMrfWdoTyalFXkRVF-11" style="edgeStyle=orthogonalEdgeStyle;rounded=0;orthogonalLoop=1;jettySize=auto;html=1;exitX=1;exitY=0.5;exitDx=0;exitDy=0;" parent="1" source="6QzvMrfWdoTyalFXkRVF-12" target="6QzvMrfWdoTyalFXkRVF-3" edge="1">
          <mxGeometry relative="1" as="geometry" />
        </mxCell>
        <mxCell id="6QzvMrfWdoTyalFXkRVF-12" value="&lt;font style=&quot;font-size: 19px;&quot;&gt;เจ้าหน้าที่ไปรษณีย์&lt;/font&gt;" style="rounded=0;whiteSpace=wrap;html=1;" parent="1" vertex="1">
          <mxGeometry x="30" y="-490" width="120" height="60" as="geometry" />
        </mxCell>
        <mxCell id="6QzvMrfWdoTyalFXkRVF-13" style="edgeStyle=orthogonalEdgeStyle;rounded=0;orthogonalLoop=1;jettySize=auto;html=1;entryX=0;entryY=0.5;entryDx=0;entryDy=0;" parent="1" source="6QzvMrfWdoTyalFXkRVF-8" target="6QzvMrfWdoTyalFXkRVF-12" edge="1">
          <mxGeometry relative="1" as="geometry">
            <Array as="points">
              <mxPoint x="440" y="-10" />
              <mxPoint y="-10" />
              <mxPoint y="-460" />
            </Array>
          </mxGeometry>
        </mxCell>
        <mxCell id="6QzvMrfWdoTyalFXkRVF-14" style="edgeStyle=orthogonalEdgeStyle;rounded=0;orthogonalLoop=1;jettySize=auto;html=1;exitX=-0.008;exitY=0.306;exitDx=0;exitDy=0;entryX=1.013;entryY=0.207;entryDx=0;entryDy=0;entryPerimeter=0;exitPerimeter=0;" parent="1" source="6QzvMrfWdoTyalFXkRVF-5" edge="1">
          <mxGeometry relative="1" as="geometry">
            <mxPoint x="717.9199999999997" y="-369.84000000000003" as="sourcePoint" />
            <mxPoint x="519.9999999999999" y="-369.9999999999999" as="targetPoint" />
            <Array as="points">
              <mxPoint x="658" y="-370" />
            </Array>
          </mxGeometry>
        </mxCell>
        <mxCell id="6QzvMrfWdoTyalFXkRVF-15" value="" style="endArrow=classic;html=1;rounded=0;" parent="1" edge="1">
          <mxGeometry width="50" height="50" relative="1" as="geometry">
            <mxPoint x="520" y="-350" as="sourcePoint" />
            <mxPoint x="720" y="-349" as="targetPoint" />
          </mxGeometry>
        </mxCell>
        <mxCell id="6QzvMrfWdoTyalFXkRVF-16" value="" style="endArrow=classic;html=1;rounded=0;exitX=0.001;exitY=0.231;exitDx=0;exitDy=0;exitPerimeter=0;" parent="1" source="6QzvMrfWdoTyalFXkRVF-6" edge="1">
          <mxGeometry width="50" height="50" relative="1" as="geometry">
            <mxPoint x="590" y="-280" as="sourcePoint" />
            <mxPoint x="520" y="-300" as="targetPoint" />
          </mxGeometry>
        </mxCell>
        <mxCell id="6QzvMrfWdoTyalFXkRVF-17" value="" style="endArrow=none;html=1;rounded=0;entryX=0.997;entryY=0.927;entryDx=0;entryDy=0;entryPerimeter=0;exitX=0.001;exitY=0.883;exitDx=0;exitDy=0;exitPerimeter=0;endFill=0;startArrow=classic;startFill=1;" parent="1" source="6QzvMrfWdoTyalFXkRVF-6" target="6QzvMrfWdoTyalFXkRVF-4" edge="1">
          <mxGeometry width="50" height="50" relative="1" as="geometry">
            <mxPoint x="580" y="-280" as="sourcePoint" />
            <mxPoint x="630" y="-330" as="targetPoint" />
          </mxGeometry>
        </mxCell>
        <mxCell id="6QzvMrfWdoTyalFXkRVF-18" style="edgeStyle=orthogonalEdgeStyle;rounded=0;orthogonalLoop=1;jettySize=auto;html=1;exitX=1;exitY=0.5;exitDx=0;exitDy=0;entryX=0.006;entryY=0.072;entryDx=0;entryDy=0;entryPerimeter=0;endArrow=none;endFill=0;startArrow=classic;startFill=1;" parent="1" source="6QzvMrfWdoTyalFXkRVF-1" target="6QzvMrfWdoTyalFXkRVF-4" edge="1">
          <mxGeometry relative="1" as="geometry" />
        </mxCell>
        <mxCell id="6QzvMrfWdoTyalFXkRVF-19" value="" style="endArrow=none;html=1;rounded=0;entryX=1.011;entryY=0.828;entryDx=0;entryDy=0;entryPerimeter=0;exitX=-0.004;exitY=0.311;exitDx=0;exitDy=0;exitPerimeter=0;endFill=0;startArrow=classic;startFill=1;" parent="1" source="6QzvMrfWdoTyalFXkRVF-4" edge="1">
          <mxGeometry width="50" height="50" relative="1" as="geometry">
            <mxPoint x="357.4" y="-309.655" as="sourcePoint" />
            <mxPoint x="149.99999999999994" y="-310" as="targetPoint" />
          </mxGeometry>
        </mxCell>
        <mxCell id="6QzvMrfWdoTyalFXkRVF-20" value="ข้อมูลในการเข้าสู่ระบบ" style="text;html=1;align=center;verticalAlign=middle;resizable=0;points=[];autosize=1;strokeColor=none;fillColor=none;" parent="1" vertex="1">
          <mxGeometry x="200" y="-310" width="130" height="30" as="geometry" />
        </mxCell>
        <mxCell id="6QzvMrfWdoTyalFXkRVF-21" value="ข้อมูลในการเข้าสู่ระบบ" style="text;html=1;align=center;verticalAlign=middle;resizable=0;points=[];autosize=1;strokeColor=none;fillColor=none;" parent="1" vertex="1">
          <mxGeometry x="550" y="-355" width="130" height="30" as="geometry" />
        </mxCell>
        <mxCell id="6QzvMrfWdoTyalFXkRVF-22" value="" style="endArrow=classic;html=1;rounded=0;exitX=0.75;exitY=1;exitDx=0;exitDy=0;entryX=0.646;entryY=0.011;entryDx=0;entryDy=0;entryPerimeter=0;" parent="1" source="6QzvMrfWdoTyalFXkRVF-3" target="6QzvMrfWdoTyalFXkRVF-7" edge="1">
          <mxGeometry width="50" height="50" relative="1" as="geometry">
            <mxPoint x="520" y="-210" as="sourcePoint" />
            <mxPoint x="570" y="-260" as="targetPoint" />
          </mxGeometry>
        </mxCell>
        <mxCell id="6QzvMrfWdoTyalFXkRVF-23" value="ข้อมูลลูกค้า" style="text;html=1;align=center;verticalAlign=middle;resizable=0;points=[];autosize=1;strokeColor=none;fillColor=none;" parent="1" vertex="1">
          <mxGeometry x="540" y="-402" width="80" height="30" as="geometry" />
        </mxCell>
        <mxCell id="6QzvMrfWdoTyalFXkRVF-24" value="ข้อมูลลูกค้า" style="text;html=1;align=center;verticalAlign=middle;resizable=0;points=[];autosize=1;strokeColor=none;fillColor=none;" parent="1" vertex="1">
          <mxGeometry x="210" y="-355" width="80" height="30" as="geometry" />
        </mxCell>
        <mxCell id="6QzvMrfWdoTyalFXkRVF-25" value="ข้อมูลผิดพลาด" style="text;html=1;align=center;verticalAlign=middle;resizable=0;points=[];autosize=1;strokeColor=none;fillColor=none;" parent="1" vertex="1">
          <mxGeometry x="170" y="-90" width="100" height="30" as="geometry" />
        </mxCell>
        <mxCell id="6QzvMrfWdoTyalFXkRVF-26" value="ข้อมูลผิดพลาด" style="text;html=1;align=center;verticalAlign=middle;resizable=0;points=[];autosize=1;strokeColor=none;fillColor=none;labelBackgroundColor=default;" parent="1" vertex="1">
          <mxGeometry x="-50" y="-265" width="100" height="30" as="geometry" />
        </mxCell>
        <mxCell id="6QzvMrfWdoTyalFXkRVF-27" value="ข้อมูลในการเข้าสู่ระบบ" style="text;align=center;verticalAlign=middle;resizable=0;points=[];autosize=1;strokeColor=none;fillColor=none;" parent="1" vertex="1">
          <mxGeometry x="192" y="-490" width="130" height="30" as="geometry" />
        </mxCell>
        <mxCell id="6QzvMrfWdoTyalFXkRVF-28" value="&lt;span style=&quot;color: rgb(0, 0, 0); font-family: Helvetica; font-size: 12px; font-style: normal; font-variant-ligatures: normal; font-variant-caps: normal; font-weight: 400; letter-spacing: normal; orphans: 2; text-align: center; text-indent: 0px; text-transform: none; widows: 2; word-spacing: 0px; -webkit-text-stroke-width: 0px; white-space: nowrap; background-color: rgb(251, 251, 251); text-decoration-thickness: initial; text-decoration-style: initial; text-decoration-color: initial; display: inline !important; float: none;&quot;&gt;ข้อมูลเจ้าหน้าที่ไปรษณีย์&lt;/span&gt;" style="text;whiteSpace=wrap;html=1;" parent="1" vertex="1">
          <mxGeometry x="200" y="-430" width="90" height="40" as="geometry" />
        </mxCell>
        <mxCell id="6QzvMrfWdoTyalFXkRVF-29" value="ข้อมูลในการเข้าสู่ระบบ" style="text;align=center;verticalAlign=middle;resizable=0;points=[];autosize=1;strokeColor=none;fillColor=none;" parent="1" vertex="1">
          <mxGeometry x="550" y="-270" width="130" height="30" as="geometry" />
        </mxCell>
        <mxCell id="6QzvMrfWdoTyalFXkRVF-30" value="&lt;span style=&quot;color: rgb(0, 0, 0); font-family: Helvetica; font-size: 12px; font-style: normal; font-variant-ligatures: normal; font-variant-caps: normal; font-weight: 400; letter-spacing: normal; orphans: 2; text-align: center; text-indent: 0px; text-transform: none; widows: 2; word-spacing: 0px; -webkit-text-stroke-width: 0px; white-space: nowrap; background-color: rgb(251, 251, 251); text-decoration-thickness: initial; text-decoration-style: initial; text-decoration-color: initial; display: inline !important; float: none;&quot;&gt;ข้อมูลเจ้าหน้าที่ไปรษณีย์&lt;/span&gt;" style="text;whiteSpace=wrap;html=1;" parent="1" vertex="1">
          <mxGeometry x="560" y="-325" width="90" height="40" as="geometry" />
        </mxCell>
        <mxCell id="eG_dJfSZcnhEtbJPcA7u-1" value="ข้อมูลในการเข้าสู่ระบบของลูกค้า" style="text;html=1;align=center;verticalAlign=middle;resizable=0;points=[];autosize=1;strokeColor=none;fillColor=none;" parent="1" vertex="1">
          <mxGeometry x="210" y="-220" width="180" height="30" as="geometry" />
        </mxCell>
        <mxCell id="eG_dJfSZcnhEtbJPcA7u-2" value="ข้อมูลในการเข้าสู่ระบบของเจ้าหน้าที่" style="text;html=1;align=center;verticalAlign=middle;resizable=0;points=[];autosize=1;strokeColor=none;fillColor=none;" parent="1" vertex="1">
          <mxGeometry x="488" y="-210" width="200" height="30" as="geometry" />
        </mxCell>
        <mxCell id="yvj8PirodueDFOA23nZT-1" value="&lt;font style=&quot;font-size: 22px;&quot;&gt;ลูกค้า&lt;/font&gt;" style="rounded=0;whiteSpace=wrap;html=1;" parent="1" vertex="1">
          <mxGeometry x="-290" y="657.5" width="112.5" height="45" as="geometry" />
        </mxCell>
        <mxCell id="yvj8PirodueDFOA23nZT-2" value="3.1" style="swimlane;childLayout=stackLayout;horizontal=1;startSize=50;horizontalStack=0;rounded=1;fontSize=14;fontStyle=0;strokeWidth=2;resizeParent=0;resizeLast=1;shadow=0;dashed=0;align=center;arcSize=4;whiteSpace=wrap;html=1;" parent="1" vertex="1">
          <mxGeometry x="-60" y="500" width="188" height="120" as="geometry" />
        </mxCell>
        <mxCell id="yvj8PirodueDFOA23nZT-3" value="เก็บข้อมูลการสร้างฉลากพัสดุ" style="text;align=center;verticalAlign=middle;resizable=0;points=[];autosize=1;imageAspect=0;fontColor=default;fontSize=15;" parent="yvj8PirodueDFOA23nZT-2" vertex="1">
          <mxGeometry y="50" width="188" height="70" as="geometry" />
        </mxCell>
        <mxCell id="yvj8PirodueDFOA23nZT-4" value="3.3" style="swimlane;childLayout=stackLayout;horizontal=1;startSize=50;horizontalStack=0;rounded=1;fontSize=14;fontStyle=0;strokeWidth=2;resizeParent=0;resizeLast=1;shadow=0;dashed=0;align=center;arcSize=4;whiteSpace=wrap;html=1;" parent="1" vertex="1">
          <mxGeometry x="631.5" y="500" width="160" height="120" as="geometry" />
        </mxCell>
        <mxCell id="yvj8PirodueDFOA23nZT-5" value="คำนวณค่าบริการ" style="text;align=center;verticalAlign=middle;resizable=0;points=[];autosize=1;imageAspect=0;fontColor=default;fontSize=15;" parent="yvj8PirodueDFOA23nZT-4" vertex="1">
          <mxGeometry y="50" width="160" height="70" as="geometry" />
        </mxCell>
        <mxCell id="yvj8PirodueDFOA23nZT-6" value="3.4" style="swimlane;childLayout=stackLayout;horizontal=1;startSize=50;horizontalStack=0;rounded=1;fontSize=14;fontStyle=0;strokeWidth=2;resizeParent=0;resizeLast=1;shadow=0;dashed=0;align=center;arcSize=4;whiteSpace=wrap;html=1;" parent="1" vertex="1">
          <mxGeometry x="760" y="690" width="160" height="120" as="geometry" />
        </mxCell>
        <mxCell id="yvj8PirodueDFOA23nZT-7" value="สร้างข้อมูลฉลากพัสดุ" style="text;align=center;verticalAlign=middle;resizable=0;points=[];autosize=1;imageAspect=0;fontColor=default;fontSize=15;" parent="yvj8PirodueDFOA23nZT-6" vertex="1">
          <mxGeometry y="50" width="160" height="70" as="geometry" />
        </mxCell>
        <mxCell id="yvj8PirodueDFOA23nZT-8" value="3.5" style="swimlane;childLayout=stackLayout;horizontal=1;startSize=50;horizontalStack=0;rounded=1;fontSize=14;fontStyle=0;strokeWidth=2;resizeParent=0;resizeLast=1;shadow=0;dashed=0;align=center;arcSize=4;whiteSpace=wrap;html=1;" parent="1" vertex="1">
          <mxGeometry x="115" y="860" width="160" height="120" as="geometry" />
        </mxCell>
        <mxCell id="yvj8PirodueDFOA23nZT-9" value="แสดงผลฉลากพัสดุ" style="text;align=center;verticalAlign=middle;resizable=0;points=[];autosize=1;imageAspect=0;fontColor=default;fontSize=15;" parent="yvj8PirodueDFOA23nZT-8" vertex="1">
          <mxGeometry y="50" width="160" height="70" as="geometry" />
        </mxCell>
        <mxCell id="yvj8PirodueDFOA23nZT-10" style="edgeStyle=orthogonalEdgeStyle;rounded=0;orthogonalLoop=1;jettySize=auto;html=1;exitX=0.75;exitY=0;exitDx=0;exitDy=0;entryX=-0.001;entryY=0.235;entryDx=0;entryDy=0;entryPerimeter=0;curved=1;" parent="1" source="yvj8PirodueDFOA23nZT-1" target="yvj8PirodueDFOA23nZT-3" edge="1">
          <mxGeometry relative="1" as="geometry" />
        </mxCell>
        <mxCell id="yvj8PirodueDFOA23nZT-11" value="D3&lt;span style=&quot;white-space: pre;&quot;&gt;&#x9;&lt;/span&gt;&amp;nbsp;ข้อมูลพัสดุ" style="html=1;dashed=0;whiteSpace=wrap;shape=mxgraph.dfd.dataStoreID;align=left;spacingLeft=3;points=[[0,0],[0.5,0],[1,0],[0,0.5],[1,0.5],[0,1],[0.5,1],[1,1]];" parent="1" vertex="1">
          <mxGeometry x="1080" y="760" width="130" height="30" as="geometry" />
        </mxCell>
        <mxCell id="yvj8PirodueDFOA23nZT-12" style="edgeStyle=orthogonalEdgeStyle;rounded=0;orthogonalLoop=1;jettySize=auto;html=1;entryX=0;entryY=0.5;entryDx=0;entryDy=0;" parent="1" source="yvj8PirodueDFOA23nZT-7" target="yvj8PirodueDFOA23nZT-11" edge="1">
          <mxGeometry relative="1" as="geometry">
            <mxPoint x="920" y="705" as="targetPoint" />
          </mxGeometry>
        </mxCell>
        <mxCell id="yvj8PirodueDFOA23nZT-13" style="edgeStyle=orthogonalEdgeStyle;rounded=0;orthogonalLoop=1;jettySize=auto;html=1;entryX=0.5;entryY=1;entryDx=0;entryDy=0;curved=1;" parent="1" source="yvj8PirodueDFOA23nZT-9" target="yvj8PirodueDFOA23nZT-1" edge="1">
          <mxGeometry relative="1" as="geometry" />
        </mxCell>
        <mxCell id="yvj8PirodueDFOA23nZT-14" value="3.2" style="swimlane;childLayout=stackLayout;horizontal=1;startSize=50;horizontalStack=0;rounded=1;fontSize=14;fontStyle=0;strokeWidth=2;resizeParent=0;resizeLast=1;shadow=0;dashed=0;align=center;arcSize=4;whiteSpace=wrap;html=1;" parent="1" vertex="1">
          <mxGeometry x="300" y="500" width="175" height="120" as="geometry" />
        </mxCell>
        <mxCell id="yvj8PirodueDFOA23nZT-15" value="ตรวจสอบความถูกต้องข้อมูล" style="text;align=center;verticalAlign=middle;resizable=0;points=[];autosize=1;imageAspect=0;fontColor=default;fontSize=15;" parent="yvj8PirodueDFOA23nZT-14" vertex="1">
          <mxGeometry y="50" width="175" height="70" as="geometry" />
        </mxCell>
        <mxCell id="yvj8PirodueDFOA23nZT-16" style="edgeStyle=orthogonalEdgeStyle;rounded=0;orthogonalLoop=1;jettySize=auto;html=1;" parent="1" source="yvj8PirodueDFOA23nZT-3" target="yvj8PirodueDFOA23nZT-15" edge="1">
          <mxGeometry relative="1" as="geometry" />
        </mxCell>
        <mxCell id="yvj8PirodueDFOA23nZT-17" style="edgeStyle=orthogonalEdgeStyle;rounded=0;orthogonalLoop=1;jettySize=auto;html=1;entryX=1;entryY=0.75;entryDx=0;entryDy=0;curved=1;" parent="1" source="yvj8PirodueDFOA23nZT-15" target="yvj8PirodueDFOA23nZT-1" edge="1">
          <mxGeometry relative="1" as="geometry">
            <Array as="points">
              <mxPoint x="350" y="691" />
            </Array>
          </mxGeometry>
        </mxCell>
        <mxCell id="yvj8PirodueDFOA23nZT-18" style="edgeStyle=orthogonalEdgeStyle;rounded=0;orthogonalLoop=1;jettySize=auto;html=1;entryX=-0.008;entryY=0.508;entryDx=0;entryDy=0;entryPerimeter=0;" parent="1" source="yvj8PirodueDFOA23nZT-15" target="yvj8PirodueDFOA23nZT-5" edge="1">
          <mxGeometry relative="1" as="geometry" />
        </mxCell>
        <mxCell id="yvj8PirodueDFOA23nZT-19" style="edgeStyle=orthogonalEdgeStyle;rounded=0;orthogonalLoop=1;jettySize=auto;html=1;entryX=0.5;entryY=0;entryDx=0;entryDy=0;exitX=1.001;exitY=0.552;exitDx=0;exitDy=0;exitPerimeter=0;" parent="1" source="yvj8PirodueDFOA23nZT-5" target="yvj8PirodueDFOA23nZT-6" edge="1">
          <mxGeometry relative="1" as="geometry" />
        </mxCell>
        <mxCell id="yvj8PirodueDFOA23nZT-20" style="edgeStyle=orthogonalEdgeStyle;rounded=0;orthogonalLoop=1;jettySize=auto;html=1;entryX=1.005;entryY=0.476;entryDx=0;entryDy=0;entryPerimeter=0;curved=1;" parent="1" source="yvj8PirodueDFOA23nZT-7" target="yvj8PirodueDFOA23nZT-9" edge="1">
          <mxGeometry relative="1" as="geometry">
            <Array as="points">
              <mxPoint x="860" y="943" />
            </Array>
          </mxGeometry>
        </mxCell>
        <mxCell id="yvj8PirodueDFOA23nZT-21" value="ข้อมูลในการสร้างฉลากพัสดุ" style="text;html=1;align=center;verticalAlign=middle;resizable=0;points=[];autosize=1;strokeColor=none;fillColor=none;labelBackgroundColor=default;fontSize=17;" parent="1" vertex="1">
          <mxGeometry x="-290" y="590" width="210" height="30" as="geometry" />
        </mxCell>
        <mxCell id="yvj8PirodueDFOA23nZT-22" value="ข้อมูลในการสร้างฉลากพัสดุ" style="text;html=1;align=center;verticalAlign=middle;resizable=0;points=[];autosize=1;strokeColor=none;fillColor=none;labelBackgroundColor=default;fontSize=13;" parent="1" vertex="1">
          <mxGeometry x="123" y="560" width="170" height="30" as="geometry" />
        </mxCell>
        <mxCell id="yvj8PirodueDFOA23nZT-23" value="ข้อมูลในการสร้างฉลากพัสดุ" style="text;html=1;align=center;verticalAlign=middle;resizable=0;points=[];autosize=1;strokeColor=none;fillColor=none;labelBackgroundColor=default;fontSize=13;" parent="1" vertex="1">
          <mxGeometry x="470" y="560" width="170" height="30" as="geometry" />
        </mxCell>
        <mxCell id="yvj8PirodueDFOA23nZT-24" value="ข้อมูลพัสดุ" style="text;html=1;align=center;verticalAlign=middle;resizable=0;points=[];autosize=1;strokeColor=none;fillColor=none;labelBackgroundColor=default;fontSize=16;" parent="1" vertex="1">
          <mxGeometry x="835" y="627.5" width="90" height="30" as="geometry" />
        </mxCell>
        <mxCell id="yvj8PirodueDFOA23nZT-25" value="ข้อมูลพัสดุ" style="text;html=1;align=center;verticalAlign=middle;resizable=0;points=[];autosize=1;strokeColor=none;fillColor=none;labelBackgroundColor=default;fontSize=17;" parent="1" vertex="1">
          <mxGeometry x="952" y="750" width="100" height="30" as="geometry" />
        </mxCell>
        <mxCell id="yvj8PirodueDFOA23nZT-26" value="&lt;font style=&quot;font-size: 17px;&quot;&gt;ข้อมูลพัสดุ&lt;/font&gt;" style="text;html=1;align=center;verticalAlign=middle;resizable=0;points=[];autosize=1;strokeColor=none;fillColor=none;labelBackgroundColor=default;" parent="1" vertex="1">
          <mxGeometry x="504" y="905" width="100" height="30" as="geometry" />
        </mxCell>
        <mxCell id="yvj8PirodueDFOA23nZT-27" value="ฉลากพัสดุ" style="text;html=1;align=center;verticalAlign=middle;resizable=0;points=[];autosize=1;strokeColor=none;fillColor=none;labelBackgroundColor=default;fontSize=15;" parent="1" vertex="1">
          <mxGeometry x="-260" y="790" width="90" height="30" as="geometry" />
        </mxCell>
        <mxCell id="yvj8PirodueDFOA23nZT-28" value="&lt;span style=&quot;color: rgba(0, 0, 0, 0); font-family: monospace; font-size: 0px; text-align: start;&quot;&gt;%3CmxGraphModel%3E%3Croot%3E%3CmxCell%20id%3D%220%22%2F%3E%3CmxCell%20id%3D%221%22%20parent%3D%220%22%2F%3E%3CmxCell%20id%3D%222%22%20value%3D%22%E0%B8%82%E0%B9%89%E0%B8%AD%E0%B8%A1%E0%B8%B9%E0%B8%A5%E0%B8%9C%E0%B8%B4%E0%B8%94%E0%B8%9E%E0%B8%A5%E0%B8%B2%E0%B8%94%E0%B9%81%E0%B8%88%E0%B9%89%E0%B8%87%E0%B9%80%E0%B8%95%E0%B8%B7%E0%B8%AD%E0%B8%99%22%20style%3D%22text%3Bhtml%3D1%3Balign%3Dcenter%3BverticalAlign%3Dmiddle%3Bresizable%3D0%3Bpoints%3D%5B%5D%3Bautosize%3D1%3BstrokeColor%3Dnone%3BfillColor%3Dnone%3B%22%20vertex%3D%221%22%20parent%3D%221%22%3E%3CmxGeometry%20x%3D%22288%22%20y%3D%2250%22%20width%3D%22140%22%20height%3D%2230%22%20as%3D%22geometry%22%2F%3E%3C%2FmxCell%3E%3C%2Froot%3E%3C%2FmxGraphModel%3E&lt;/span&gt;" style="text;html=1;align=center;verticalAlign=middle;resizable=0;points=[];autosize=1;strokeColor=none;fillColor=none;" parent="1" vertex="1">
          <mxGeometry x="30" y="648" width="20" height="30" as="geometry" />
        </mxCell>
        <mxCell id="yvj8PirodueDFOA23nZT-29" value="ข้อมูลผิดพลาด" style="text;html=1;align=center;verticalAlign=middle;resizable=0;points=[];autosize=1;strokeColor=none;fillColor=none;fontSize=17;" parent="1" vertex="1">
          <mxGeometry x="20" y="657.5" width="130" height="30" as="geometry" />
        </mxCell>
        <mxCell id="lQUiz-LF3UIp0jU_hJWq-1" value="เจ้าหน้าที่ไปรษณีย์" style="rounded=0;whiteSpace=wrap;html=1;" parent="1" vertex="1">
          <mxGeometry x="-170" y="1285" width="120" height="60" as="geometry" />
        </mxCell>
        <mxCell id="lQUiz-LF3UIp0jU_hJWq-2" value="D1&lt;span style=&quot;white-space: pre;&quot;&gt;&#x9;&lt;/span&gt;&amp;nbsp;ข้อมูลลูกค้า" style="html=1;dashed=0;whiteSpace=wrap;shape=mxgraph.dfd.dataStoreID;align=left;spacingLeft=3;points=[[0,0],[0.5,0],[1,0],[0,0.5],[1,0.5],[0,1],[0.5,1],[1,1]];" parent="1" vertex="1">
          <mxGeometry x="500" y="1285" width="130" height="50" as="geometry" />
        </mxCell>
        <mxCell id="lQUiz-LF3UIp0jU_hJWq-3" value="4.1" style="swimlane;childLayout=stackLayout;horizontal=1;startSize=50;horizontalStack=0;rounded=1;fontSize=11;fontStyle=0;strokeWidth=2;resizeParent=0;resizeLast=1;shadow=0;dashed=0;align=center;arcSize=4;whiteSpace=wrap;html=1;" parent="1" vertex="1">
          <mxGeometry x="120" y="1240" width="160" height="115" as="geometry" />
        </mxCell>
        <mxCell id="lQUiz-LF3UIp0jU_hJWq-4" value="ดูฐานข้อมูลลูกค้า" style="text;align=center;verticalAlign=middle;resizable=0;points=[];autosize=1;imageAspect=0;fontColor=default;fontSize=12;" parent="lQUiz-LF3UIp0jU_hJWq-3" vertex="1">
          <mxGeometry y="50" width="160" height="65" as="geometry" />
        </mxCell>
        <mxCell id="lQUiz-LF3UIp0jU_hJWq-5" value="4.2" style="swimlane;childLayout=stackLayout;horizontal=1;startSize=50;horizontalStack=0;rounded=1;fontSize=11;fontStyle=0;strokeWidth=2;resizeParent=0;resizeLast=1;shadow=0;dashed=0;align=center;arcSize=4;whiteSpace=wrap;html=1;" parent="1" vertex="1">
          <mxGeometry x="500" y="1050" width="160" height="115" as="geometry" />
        </mxCell>
        <mxCell id="lQUiz-LF3UIp0jU_hJWq-6" value="แก้ไขข้อมูลลูกค้า" style="text;align=center;verticalAlign=middle;resizable=0;points=[];autosize=1;imageAspect=0;fontColor=default;fontSize=12;" parent="lQUiz-LF3UIp0jU_hJWq-5" vertex="1">
          <mxGeometry y="50" width="160" height="65" as="geometry" />
        </mxCell>
        <mxCell id="lQUiz-LF3UIp0jU_hJWq-7" value="4.3" style="swimlane;childLayout=stackLayout;horizontal=1;startSize=50;horizontalStack=0;rounded=1;fontSize=11;fontStyle=0;strokeWidth=2;resizeParent=0;resizeLast=1;shadow=0;dashed=0;align=center;arcSize=4;whiteSpace=wrap;html=1;" parent="1" vertex="1">
          <mxGeometry x="491" y="1470" width="178" height="115" as="geometry" />
        </mxCell>
        <mxCell id="lQUiz-LF3UIp0jU_hJWq-8" value="ปิดใช้งานและเปิดใช้งานบัญชี" style="text;align=center;verticalAlign=middle;resizable=0;points=[];autosize=1;imageAspect=0;fontColor=default;fontSize=12;" parent="lQUiz-LF3UIp0jU_hJWq-7" vertex="1">
          <mxGeometry y="50" width="178" height="65" as="geometry" />
        </mxCell>
        <mxCell id="lQUiz-LF3UIp0jU_hJWq-9" value="" style="endArrow=classic;html=1;rounded=0;entryX=-0.003;entryY=0.515;entryDx=0;entryDy=0;entryPerimeter=0;curved=1;exitX=0.995;exitY=0.669;exitDx=0;exitDy=0;exitPerimeter=0;" parent="1" source="lQUiz-LF3UIp0jU_hJWq-1" target="lQUiz-LF3UIp0jU_hJWq-4" edge="1">
          <mxGeometry width="50" height="50" relative="1" as="geometry">
            <mxPoint x="-50" y="1309" as="sourcePoint" />
            <mxPoint x="150" y="1180" as="targetPoint" />
            <Array as="points">
              <mxPoint x="30" y="1350" />
            </Array>
          </mxGeometry>
        </mxCell>
        <mxCell id="lQUiz-LF3UIp0jU_hJWq-10" value="" style="endArrow=classic;html=1;rounded=0;exitX=0.994;exitY=0.3;exitDx=0;exitDy=0;exitPerimeter=0;entryX=0.001;entryY=0.752;entryDx=0;entryDy=0;curved=1;entryPerimeter=0;" parent="1" target="lQUiz-LF3UIp0jU_hJWq-2" edge="1">
          <mxGeometry width="50" height="50" relative="1" as="geometry">
            <mxPoint x="280.0000000000002" y="1327" as="sourcePoint" />
            <mxPoint x="500.96000000000004" y="1327.5" as="targetPoint" />
            <Array as="points">
              <mxPoint x="390.96000000000004" y="1367.5" />
            </Array>
          </mxGeometry>
        </mxCell>
        <mxCell id="lQUiz-LF3UIp0jU_hJWq-11" value="" style="endArrow=classic;html=1;rounded=0;exitX=-0.003;exitY=0.353;exitDx=0;exitDy=0;exitPerimeter=0;entryX=0.989;entryY=0.303;entryDx=0;entryDy=0;entryPerimeter=0;curved=1;" parent="1" source="lQUiz-LF3UIp0jU_hJWq-2" target="lQUiz-LF3UIp0jU_hJWq-4" edge="1">
          <mxGeometry width="50" height="50" relative="1" as="geometry">
            <mxPoint x="330" y="1350" as="sourcePoint" />
            <mxPoint x="320" y="1300" as="targetPoint" />
            <Array as="points">
              <mxPoint x="390" y="1290" />
            </Array>
          </mxGeometry>
        </mxCell>
        <mxCell id="lQUiz-LF3UIp0jU_hJWq-12" value="" style="endArrow=classic;html=1;rounded=0;exitX=0.006;exitY=0.18;exitDx=0;exitDy=0;exitPerimeter=0;entryX=0.989;entryY=0.303;entryDx=0;entryDy=0;entryPerimeter=0;curved=1;" parent="1" source="lQUiz-LF3UIp0jU_hJWq-4" edge="1">
          <mxGeometry width="50" height="50" relative="1" as="geometry">
            <mxPoint x="172" y="1298" as="sourcePoint" />
            <mxPoint x="-50" y="1305" as="targetPoint" />
            <Array as="points">
              <mxPoint x="62" y="1285" />
            </Array>
          </mxGeometry>
        </mxCell>
        <mxCell id="lQUiz-LF3UIp0jU_hJWq-13" value="" style="endArrow=classic;html=1;rounded=0;exitX=0.75;exitY=0;exitDx=0;exitDy=0;entryX=0;entryY=-0.047;entryDx=0;entryDy=0;entryPerimeter=0;curved=1;" parent="1" source="lQUiz-LF3UIp0jU_hJWq-1" target="lQUiz-LF3UIp0jU_hJWq-6" edge="1">
          <mxGeometry width="50" height="50" relative="1" as="geometry">
            <mxPoint x="280" y="1190" as="sourcePoint" />
            <mxPoint x="330" y="1140" as="targetPoint" />
            <Array as="points">
              <mxPoint x="130" y="1080" />
            </Array>
          </mxGeometry>
        </mxCell>
        <mxCell id="lQUiz-LF3UIp0jU_hJWq-14" value="" style="endArrow=classic;html=1;rounded=0;entryX=0.189;entryY=1.005;entryDx=0;entryDy=0;entryPerimeter=0;exitX=0.231;exitY=0.017;exitDx=0;exitDy=0;exitPerimeter=0;" parent="1" source="lQUiz-LF3UIp0jU_hJWq-2" target="lQUiz-LF3UIp0jU_hJWq-6" edge="1">
          <mxGeometry width="50" height="50" relative="1" as="geometry">
            <mxPoint x="530" y="1280" as="sourcePoint" />
            <mxPoint x="570" y="1200" as="targetPoint" />
          </mxGeometry>
        </mxCell>
        <mxCell id="lQUiz-LF3UIp0jU_hJWq-15" value="" style="endArrow=classic;html=1;rounded=0;exitX=0.689;exitY=1.021;exitDx=0;exitDy=0;exitPerimeter=0;entryX=0.847;entryY=0.013;entryDx=0;entryDy=0;entryPerimeter=0;" parent="1" source="lQUiz-LF3UIp0jU_hJWq-6" target="lQUiz-LF3UIp0jU_hJWq-2" edge="1">
          <mxGeometry width="50" height="50" relative="1" as="geometry">
            <mxPoint x="540" y="1290" as="sourcePoint" />
            <mxPoint x="660" y="1260" as="targetPoint" />
          </mxGeometry>
        </mxCell>
        <mxCell id="lQUiz-LF3UIp0jU_hJWq-16" value="" style="endArrow=classic;html=1;rounded=0;exitX=0.101;exitY=0.975;exitDx=0;exitDy=0;exitPerimeter=0;entryX=0;entryY=0.5;entryDx=0;entryDy=0;curved=1;" parent="1" target="lQUiz-LF3UIp0jU_hJWq-7" edge="1">
          <mxGeometry width="50" height="50" relative="1" as="geometry">
            <mxPoint x="-78" y="1345" as="sourcePoint" />
            <mxPoint x="573" y="1571" as="targetPoint" />
            <Array as="points">
              <mxPoint x="20" y="1550" />
            </Array>
          </mxGeometry>
        </mxCell>
        <mxCell id="lQUiz-LF3UIp0jU_hJWq-17" value="" style="endArrow=classic;html=1;rounded=0;exitX=0.689;exitY=1.021;exitDx=0;exitDy=0;exitPerimeter=0;entryX=0.663;entryY=0.004;entryDx=0;entryDy=0;entryPerimeter=0;" parent="1" target="lQUiz-LF3UIp0jU_hJWq-7" edge="1">
          <mxGeometry width="50" height="50" relative="1" as="geometry">
            <mxPoint x="610" y="1335" as="sourcePoint" />
            <mxPoint x="610" y="1455" as="targetPoint" />
          </mxGeometry>
        </mxCell>
        <mxCell id="lQUiz-LF3UIp0jU_hJWq-18" value="" style="endArrow=classic;html=1;rounded=0;entryX=0.189;entryY=1.005;entryDx=0;entryDy=0;entryPerimeter=0;exitX=0.223;exitY=-0.002;exitDx=0;exitDy=0;exitPerimeter=0;" parent="1" source="lQUiz-LF3UIp0jU_hJWq-7" edge="1">
          <mxGeometry width="50" height="50" relative="1" as="geometry">
            <mxPoint x="531" y="1455" as="sourcePoint" />
            <mxPoint x="530" y="1335" as="targetPoint" />
          </mxGeometry>
        </mxCell>
        <mxCell id="lQUiz-LF3UIp0jU_hJWq-19" value="ข้อมูลลูกค้า" style="text;html=1;align=center;verticalAlign=middle;resizable=0;points=[];autosize=1;strokeColor=none;fillColor=none;" parent="1" vertex="1">
          <mxGeometry x="350" y="1270" width="80" height="30" as="geometry" />
        </mxCell>
        <mxCell id="lQUiz-LF3UIp0jU_hJWq-20" value="ข้อมูลลูกค้า" style="text;html=1;align=center;verticalAlign=middle;resizable=0;points=[];autosize=1;strokeColor=none;fillColor=none;" parent="1" vertex="1">
          <mxGeometry x="-5" y="1270" width="80" height="30" as="geometry" />
        </mxCell>
        <mxCell id="lQUiz-LF3UIp0jU_hJWq-21" value="ข้อมูลลูกค้า" style="text;html=1;align=center;verticalAlign=middle;resizable=0;points=[];autosize=1;strokeColor=none;fillColor=none;" parent="1" vertex="1">
          <mxGeometry x="450" y="1228" width="80" height="30" as="geometry" />
        </mxCell>
        <mxCell id="lQUiz-LF3UIp0jU_hJWq-22" value="ข้อมูลลูกค้าที่มีการแก้ไข" style="text;html=1;align=center;verticalAlign=middle;resizable=0;points=[];autosize=1;strokeColor=none;fillColor=none;" parent="1" vertex="1">
          <mxGeometry x="610" y="1228" width="140" height="30" as="geometry" />
        </mxCell>
        <mxCell id="lQUiz-LF3UIp0jU_hJWq-23" value="ข้อมูลลูกค้า" style="text;html=1;align=center;verticalAlign=middle;resizable=0;points=[];autosize=1;strokeColor=none;fillColor=none;" parent="1" vertex="1">
          <mxGeometry x="620" y="1410" width="80" height="30" as="geometry" />
        </mxCell>
        <mxCell id="lQUiz-LF3UIp0jU_hJWq-24" value="ข้อมูลลูกค้าที่มีการแก้ไข" style="text;html=1;align=center;verticalAlign=middle;resizable=0;points=[];autosize=1;strokeColor=none;fillColor=none;" parent="1" vertex="1">
          <mxGeometry x="390" y="1410" width="140" height="30" as="geometry" />
        </mxCell>
        <mxCell id="lQUiz-LF3UIp0jU_hJWq-50" value="เจ้าหน้าที่ไปรษณีย์" style="rounded=0;whiteSpace=wrap;html=1;" parent="1" vertex="1">
          <mxGeometry x="-160" y="1905" width="120" height="60" as="geometry" />
        </mxCell>
        <mxCell id="lQUiz-LF3UIp0jU_hJWq-51" value="D3&lt;span style=&quot;white-space: pre;&quot;&gt;&#x9;&lt;/span&gt;&amp;nbsp;&lt;span style=&quot;text-align: center; text-wrap-mode: nowrap;&quot;&gt;ข้อมูลพัสดุ&lt;/span&gt;" style="html=1;dashed=0;whiteSpace=wrap;shape=mxgraph.dfd.dataStoreID;align=left;spacingLeft=3;points=[[0,0],[0.5,0],[1,0],[0,0.5],[1,0.5],[0,1],[0.5,1],[1,1]];" parent="1" vertex="1">
          <mxGeometry x="510" y="1905" width="130" height="50" as="geometry" />
        </mxCell>
        <mxCell id="lQUiz-LF3UIp0jU_hJWq-52" value="5.1" style="swimlane;childLayout=stackLayout;horizontal=1;startSize=50;horizontalStack=0;rounded=1;fontSize=11;fontStyle=0;strokeWidth=2;resizeParent=0;resizeLast=1;shadow=0;dashed=0;align=center;arcSize=4;whiteSpace=wrap;html=1;" parent="1" vertex="1">
          <mxGeometry x="130" y="1860" width="160" height="115" as="geometry" />
        </mxCell>
        <mxCell id="lQUiz-LF3UIp0jU_hJWq-53" value="ดูฐานข้อมูลพัสดุ" style="text;align=center;verticalAlign=middle;resizable=0;points=[];autosize=1;imageAspect=0;fontColor=default;fontSize=12;" parent="lQUiz-LF3UIp0jU_hJWq-52" vertex="1">
          <mxGeometry y="50" width="160" height="65" as="geometry" />
        </mxCell>
        <mxCell id="lQUiz-LF3UIp0jU_hJWq-54" value="5.2" style="swimlane;childLayout=stackLayout;horizontal=1;startSize=50;horizontalStack=0;rounded=1;fontSize=11;fontStyle=0;strokeWidth=2;resizeParent=0;resizeLast=1;shadow=0;dashed=0;align=center;arcSize=4;whiteSpace=wrap;html=1;" parent="1" vertex="1">
          <mxGeometry x="510" y="1670" width="160" height="115" as="geometry" />
        </mxCell>
        <mxCell id="lQUiz-LF3UIp0jU_hJWq-55" value="แก้ไขข้อมูลพัสดุ" style="text;align=center;verticalAlign=middle;resizable=0;points=[];autosize=1;imageAspect=0;fontColor=default;fontSize=12;" parent="lQUiz-LF3UIp0jU_hJWq-54" vertex="1">
          <mxGeometry y="50" width="160" height="65" as="geometry" />
        </mxCell>
        <mxCell id="lQUiz-LF3UIp0jU_hJWq-58" value="" style="endArrow=classic;html=1;rounded=0;entryX=-0.003;entryY=0.515;entryDx=0;entryDy=0;entryPerimeter=0;curved=1;exitX=0.995;exitY=0.669;exitDx=0;exitDy=0;exitPerimeter=0;" parent="1" source="lQUiz-LF3UIp0jU_hJWq-50" target="lQUiz-LF3UIp0jU_hJWq-53" edge="1">
          <mxGeometry width="50" height="50" relative="1" as="geometry">
            <mxPoint x="-40" y="1929" as="sourcePoint" />
            <mxPoint x="160" y="1800" as="targetPoint" />
            <Array as="points">
              <mxPoint x="40" y="1970" />
            </Array>
          </mxGeometry>
        </mxCell>
        <mxCell id="lQUiz-LF3UIp0jU_hJWq-59" value="" style="endArrow=classic;html=1;rounded=0;exitX=0.994;exitY=0.3;exitDx=0;exitDy=0;exitPerimeter=0;entryX=0.001;entryY=0.752;entryDx=0;entryDy=0;curved=1;entryPerimeter=0;" parent="1" target="lQUiz-LF3UIp0jU_hJWq-51" edge="1">
          <mxGeometry width="50" height="50" relative="1" as="geometry">
            <mxPoint x="290.0000000000002" y="1947" as="sourcePoint" />
            <mxPoint x="510.96000000000004" y="1947.5" as="targetPoint" />
            <Array as="points">
              <mxPoint x="400.96000000000004" y="1987.5" />
            </Array>
          </mxGeometry>
        </mxCell>
        <mxCell id="lQUiz-LF3UIp0jU_hJWq-60" value="" style="endArrow=classic;html=1;rounded=0;exitX=-0.003;exitY=0.353;exitDx=0;exitDy=0;exitPerimeter=0;entryX=0.989;entryY=0.303;entryDx=0;entryDy=0;entryPerimeter=0;curved=1;" parent="1" source="lQUiz-LF3UIp0jU_hJWq-51" target="lQUiz-LF3UIp0jU_hJWq-53" edge="1">
          <mxGeometry width="50" height="50" relative="1" as="geometry">
            <mxPoint x="340" y="1970" as="sourcePoint" />
            <mxPoint x="330" y="1920" as="targetPoint" />
            <Array as="points">
              <mxPoint x="400" y="1910" />
            </Array>
          </mxGeometry>
        </mxCell>
        <mxCell id="lQUiz-LF3UIp0jU_hJWq-61" value="" style="endArrow=classic;html=1;rounded=0;exitX=0.006;exitY=0.18;exitDx=0;exitDy=0;exitPerimeter=0;entryX=0.989;entryY=0.303;entryDx=0;entryDy=0;entryPerimeter=0;curved=1;" parent="1" source="lQUiz-LF3UIp0jU_hJWq-53" edge="1">
          <mxGeometry width="50" height="50" relative="1" as="geometry">
            <mxPoint x="182" y="1918" as="sourcePoint" />
            <mxPoint x="-40" y="1925" as="targetPoint" />
            <Array as="points">
              <mxPoint x="72" y="1905" />
            </Array>
          </mxGeometry>
        </mxCell>
        <mxCell id="lQUiz-LF3UIp0jU_hJWq-62" value="" style="endArrow=classic;html=1;rounded=0;exitX=0.75;exitY=0;exitDx=0;exitDy=0;entryX=0;entryY=-0.047;entryDx=0;entryDy=0;entryPerimeter=0;curved=1;" parent="1" source="lQUiz-LF3UIp0jU_hJWq-50" target="lQUiz-LF3UIp0jU_hJWq-55" edge="1">
          <mxGeometry width="50" height="50" relative="1" as="geometry">
            <mxPoint x="290" y="1810" as="sourcePoint" />
            <mxPoint x="340" y="1760" as="targetPoint" />
            <Array as="points">
              <mxPoint x="140" y="1700" />
            </Array>
          </mxGeometry>
        </mxCell>
        <mxCell id="lQUiz-LF3UIp0jU_hJWq-63" value="" style="endArrow=classic;html=1;rounded=0;entryX=0.189;entryY=1.005;entryDx=0;entryDy=0;entryPerimeter=0;exitX=0.231;exitY=0.017;exitDx=0;exitDy=0;exitPerimeter=0;" parent="1" source="lQUiz-LF3UIp0jU_hJWq-51" target="lQUiz-LF3UIp0jU_hJWq-55" edge="1">
          <mxGeometry width="50" height="50" relative="1" as="geometry">
            <mxPoint x="540" y="1900" as="sourcePoint" />
            <mxPoint x="580" y="1820" as="targetPoint" />
          </mxGeometry>
        </mxCell>
        <mxCell id="lQUiz-LF3UIp0jU_hJWq-64" value="" style="endArrow=classic;html=1;rounded=0;exitX=0.689;exitY=1.021;exitDx=0;exitDy=0;exitPerimeter=0;entryX=0.847;entryY=0.013;entryDx=0;entryDy=0;entryPerimeter=0;" parent="1" source="lQUiz-LF3UIp0jU_hJWq-55" target="lQUiz-LF3UIp0jU_hJWq-51" edge="1">
          <mxGeometry width="50" height="50" relative="1" as="geometry">
            <mxPoint x="550" y="1910" as="sourcePoint" />
            <mxPoint x="670" y="1880" as="targetPoint" />
          </mxGeometry>
        </mxCell>
        <mxCell id="lQUiz-LF3UIp0jU_hJWq-68" value="ข้อมูลพัสดุ" style="text;html=1;align=center;verticalAlign=middle;resizable=0;points=[];autosize=1;strokeColor=none;fillColor=none;" parent="1" vertex="1">
          <mxGeometry x="360" y="1890" width="80" height="30" as="geometry" />
        </mxCell>
        <mxCell id="lQUiz-LF3UIp0jU_hJWq-69" value="ข้อมูลพัสดุ" style="text;html=1;align=center;verticalAlign=middle;resizable=0;points=[];autosize=1;strokeColor=none;fillColor=none;" parent="1" vertex="1">
          <mxGeometry x="5" y="1890" width="80" height="30" as="geometry" />
        </mxCell>
        <mxCell id="lQUiz-LF3UIp0jU_hJWq-70" value="ข้อมูลพัสดุ" style="text;html=1;align=center;verticalAlign=middle;resizable=0;points=[];autosize=1;strokeColor=none;fillColor=none;" parent="1" vertex="1">
          <mxGeometry x="460" y="1848" width="80" height="30" as="geometry" />
        </mxCell>
        <mxCell id="lQUiz-LF3UIp0jU_hJWq-71" value="ข้อมูลพัสดุที่มีการแก้ไข" style="text;html=1;align=center;verticalAlign=middle;resizable=0;points=[];autosize=1;strokeColor=none;fillColor=none;" parent="1" vertex="1">
          <mxGeometry x="620" y="1848" width="140" height="30" as="geometry" />
        </mxCell>
        <mxCell id="UppJsEeOcosS14Obp48s-1" value="คำขอข้อมูล" style="text;html=1;align=center;verticalAlign=middle;resizable=0;points=[];autosize=1;strokeColor=none;fillColor=none;" parent="1" vertex="1">
          <mxGeometry x="-6" y="1338" width="80" height="30" as="geometry" />
        </mxCell>
        <mxCell id="UppJsEeOcosS14Obp48s-2" value="คำขอข้อมูล" style="text;html=1;align=center;verticalAlign=middle;resizable=0;points=[];autosize=1;strokeColor=none;fillColor=none;" parent="1" vertex="1">
          <mxGeometry x="360" y="1345" width="80" height="30" as="geometry" />
        </mxCell>
        <mxCell id="UppJsEeOcosS14Obp48s-3" value="คำขอแก้ไข" style="text;html=1;align=center;verticalAlign=middle;resizable=0;points=[];autosize=1;strokeColor=none;fillColor=none;" parent="1" vertex="1">
          <mxGeometry x="150" y="1092.5" width="80" height="30" as="geometry" />
        </mxCell>
        <mxCell id="UppJsEeOcosS14Obp48s-4" value="คำขอแก้ไขข้อมูล" style="text;html=1;align=center;verticalAlign=middle;resizable=0;points=[];autosize=1;strokeColor=none;fillColor=none;labelBackgroundColor=default;" parent="1" vertex="1">
          <mxGeometry x="25" y="1470" width="110" height="30" as="geometry" />
        </mxCell>
        <mxCell id="UppJsEeOcosS14Obp48s-10" value="คำขอแก้ไขข้อมูล" style="text;html=1;align=center;verticalAlign=middle;resizable=0;points=[];autosize=1;strokeColor=none;fillColor=none;labelBackgroundColor=default;" parent="1" vertex="1">
          <mxGeometry x="155" y="1730" width="110" height="30" as="geometry" />
        </mxCell>
        <mxCell id="UppJsEeOcosS14Obp48s-11" value="&lt;span style=&quot;color: rgb(0, 0, 0); font-family: Helvetica; font-size: 12px; font-style: normal; font-variant-ligatures: normal; font-variant-caps: normal; font-weight: 400; letter-spacing: normal; orphans: 2; text-align: center; text-indent: 0px; text-transform: none; widows: 2; word-spacing: 0px; -webkit-text-stroke-width: 0px; white-space: nowrap; text-decoration-thickness: initial; text-decoration-style: initial; text-decoration-color: initial; float: none; display: inline !important;&quot;&gt;คำขอข้อมูล&lt;/span&gt;" style="text;whiteSpace=wrap;html=1;labelBackgroundColor=default;" parent="1" vertex="1">
          <mxGeometry x="10" y="1960" width="60" height="20" as="geometry" />
        </mxCell>
        <mxCell id="UppJsEeOcosS14Obp48s-13" value="&lt;span style=&quot;color: rgb(0, 0, 0); font-family: Helvetica; font-size: 12px; font-style: normal; font-variant-ligatures: normal; font-variant-caps: normal; font-weight: 400; letter-spacing: normal; orphans: 2; text-align: center; text-indent: 0px; text-transform: none; widows: 2; word-spacing: 0px; -webkit-text-stroke-width: 0px; white-space: nowrap; text-decoration-thickness: initial; text-decoration-style: initial; text-decoration-color: initial; float: none; display: inline !important;&quot;&gt;คำขอข้อมูล&lt;/span&gt;" style="text;whiteSpace=wrap;html=1;labelBackgroundColor=default;" parent="1" vertex="1">
          <mxGeometry x="370" y="1975" width="60" height="20" as="geometry" />
        </mxCell>
        <mxCell id="W7xPWg52uy3qARGWKzhD-1" value="เจ้าหน้าที่ไปรษณีย์" style="rounded=0;whiteSpace=wrap;html=1;" parent="1" vertex="1">
          <mxGeometry x="-130" y="2110" width="120" height="60" as="geometry" />
        </mxCell>
        <mxCell id="W7xPWg52uy3qARGWKzhD-2" style="edgeStyle=orthogonalEdgeStyle;rounded=0;orthogonalLoop=1;jettySize=auto;html=1;exitX=1;exitY=0.25;exitDx=0;exitDy=0;entryX=0.5;entryY=1;entryDx=0;entryDy=0;curved=1;" parent="1" source="W7xPWg52uy3qARGWKzhD-3" target="W7xPWg52uy3qARGWKzhD-5" edge="1">
          <mxGeometry relative="1" as="geometry">
            <Array as="points">
              <mxPoint x="610" y="2110" />
              <mxPoint x="825" y="2110" />
            </Array>
          </mxGeometry>
        </mxCell>
        <mxCell id="W7xPWg52uy3qARGWKzhD-3" value="6.2" style="swimlane;childLayout=stackLayout;horizontal=1;startSize=50;horizontalStack=0;rounded=1;fontSize=11;fontStyle=0;strokeWidth=2;resizeParent=0;resizeLast=1;shadow=0;dashed=0;align=center;arcSize=4;whiteSpace=wrap;html=1;" parent="1" vertex="1">
          <mxGeometry x="450" y="2090" width="160" height="115" as="geometry" />
        </mxCell>
        <mxCell id="W7xPWg52uy3qARGWKzhD-4" value="เรียกดูฐานข้อมูล" style="text;align=center;verticalAlign=middle;resizable=0;points=[];autosize=1;imageAspect=0;fontColor=default;fontSize=12;" parent="W7xPWg52uy3qARGWKzhD-3" vertex="1">
          <mxGeometry y="50" width="160" height="65" as="geometry" />
        </mxCell>
        <mxCell id="W7xPWg52uy3qARGWKzhD-5" value="D1&lt;span style=&quot;white-space: pre;&quot;&gt;&#x9;&lt;/span&gt;&amp;nbsp;ข้อมูลลูกค้า" style="html=1;dashed=0;whiteSpace=wrap;shape=mxgraph.dfd.dataStoreID;align=left;spacingLeft=3;points=[[0,0],[0.5,0],[1,0],[0,0.5],[1,0.5],[0,1],[0.5,1],[1,1]];" parent="1" vertex="1">
          <mxGeometry x="775" y="2040" width="100" height="30" as="geometry" />
        </mxCell>
        <mxCell id="W7xPWg52uy3qARGWKzhD-6" value="D4&lt;span style=&quot;white-space: pre;&quot;&gt;&#x9;&lt;/span&gt;&amp;nbsp;ข้อมูลการชำระเงิน" style="html=1;dashed=0;whiteSpace=wrap;shape=mxgraph.dfd.dataStoreID;align=left;spacingLeft=3;points=[[0,0],[0.5,0],[1,0],[0,0.5],[1,0.5],[0,1],[0.5,1],[1,1]];" parent="1" vertex="1">
          <mxGeometry x="775" y="2205" width="130" height="30" as="geometry" />
        </mxCell>
        <mxCell id="W7xPWg52uy3qARGWKzhD-7" value="D3&lt;span style=&quot;white-space: pre;&quot;&gt;&#x9;&lt;/span&gt;&amp;nbsp;ข้อมูลพัสดุ" style="html=1;dashed=0;whiteSpace=wrap;shape=mxgraph.dfd.dataStoreID;align=left;spacingLeft=3;points=[[0,0],[0.5,0],[1,0],[0,0.5],[1,0.5],[0,1],[0.5,1],[1,1]];" parent="1" vertex="1">
          <mxGeometry x="775" y="2132.5" width="130" height="30" as="geometry" />
        </mxCell>
        <mxCell id="W7xPWg52uy3qARGWKzhD-8" value="6.3" style="swimlane;childLayout=stackLayout;horizontal=1;startSize=50;horizontalStack=0;rounded=1;fontSize=11;fontStyle=0;strokeWidth=2;resizeParent=0;resizeLast=1;shadow=0;dashed=0;align=center;arcSize=4;whiteSpace=wrap;html=1;" parent="1" vertex="1">
          <mxGeometry x="115" y="2330" width="160" height="115" as="geometry" />
        </mxCell>
        <mxCell id="W7xPWg52uy3qARGWKzhD-9" value="สร้างรายงาน" style="text;align=center;verticalAlign=middle;resizable=0;points=[];autosize=1;imageAspect=0;fontColor=default;fontSize=12;" parent="W7xPWg52uy3qARGWKzhD-8" vertex="1">
          <mxGeometry y="50" width="160" height="65" as="geometry" />
        </mxCell>
        <mxCell id="W7xPWg52uy3qARGWKzhD-10" style="edgeStyle=orthogonalEdgeStyle;rounded=0;orthogonalLoop=1;jettySize=auto;html=1;exitX=1;exitY=0.5;exitDx=0;exitDy=0;entryX=-0.021;entryY=0.437;entryDx=0;entryDy=0;entryPerimeter=0;" parent="1" source="W7xPWg52uy3qARGWKzhD-1" target="W7xPWg52uy3qARGWKzhD-11" edge="1">
          <mxGeometry relative="1" as="geometry">
            <mxPoint x="114.67999999999984" y="2139.26" as="targetPoint" />
          </mxGeometry>
        </mxCell>
        <mxCell id="W7xPWg52uy3qARGWKzhD-11" value="6.1" style="swimlane;childLayout=stackLayout;horizontal=1;startSize=50;horizontalStack=0;rounded=1;fontSize=11;fontStyle=0;strokeWidth=2;resizeParent=0;resizeLast=1;shadow=0;dashed=0;align=center;arcSize=4;whiteSpace=wrap;html=1;" parent="1" vertex="1">
          <mxGeometry x="145" y="2090" width="165" height="115" as="geometry" />
        </mxCell>
        <mxCell id="W7xPWg52uy3qARGWKzhD-12" value="สร้างคำขอการสร้างรายงาน" style="text;align=center;verticalAlign=middle;resizable=0;points=[];autosize=1;imageAspect=0;fontColor=default;fontSize=12;" parent="W7xPWg52uy3qARGWKzhD-11" vertex="1">
          <mxGeometry y="50" width="165" height="65" as="geometry" />
        </mxCell>
        <mxCell id="W7xPWg52uy3qARGWKzhD-13" style="edgeStyle=orthogonalEdgeStyle;rounded=0;orthogonalLoop=1;jettySize=auto;html=1;exitX=0;exitY=0.5;exitDx=0;exitDy=0;entryX=0.997;entryY=0.131;entryDx=0;entryDy=0;entryPerimeter=0;curved=1;" parent="1" source="W7xPWg52uy3qARGWKzhD-5" target="W7xPWg52uy3qARGWKzhD-3" edge="1">
          <mxGeometry relative="1" as="geometry" />
        </mxCell>
        <mxCell id="W7xPWg52uy3qARGWKzhD-14" style="edgeStyle=orthogonalEdgeStyle;rounded=0;orthogonalLoop=1;jettySize=auto;html=1;entryX=0.989;entryY=0.117;entryDx=0;entryDy=0;entryPerimeter=0;" parent="1" source="W7xPWg52uy3qARGWKzhD-7" target="W7xPWg52uy3qARGWKzhD-4" edge="1">
          <mxGeometry relative="1" as="geometry" />
        </mxCell>
        <mxCell id="W7xPWg52uy3qARGWKzhD-15" style="edgeStyle=orthogonalEdgeStyle;rounded=0;orthogonalLoop=1;jettySize=auto;html=1;entryX=0.994;entryY=0.756;entryDx=0;entryDy=0;entryPerimeter=0;curved=1;" parent="1" source="W7xPWg52uy3qARGWKzhD-6" target="W7xPWg52uy3qARGWKzhD-4" edge="1">
          <mxGeometry relative="1" as="geometry">
            <Array as="points">
              <mxPoint x="825" y="2255" />
              <mxPoint x="640" y="2255" />
              <mxPoint x="640" y="2189" />
            </Array>
          </mxGeometry>
        </mxCell>
        <mxCell id="W7xPWg52uy3qARGWKzhD-16" style="edgeStyle=orthogonalEdgeStyle;rounded=0;orthogonalLoop=1;jettySize=auto;html=1;" parent="1" edge="1">
          <mxGeometry relative="1" as="geometry">
            <mxPoint x="310" y="2140" as="sourcePoint" />
            <mxPoint x="450" y="2140" as="targetPoint" />
          </mxGeometry>
        </mxCell>
        <mxCell id="W7xPWg52uy3qARGWKzhD-17" style="edgeStyle=orthogonalEdgeStyle;rounded=0;orthogonalLoop=1;jettySize=auto;html=1;exitX=0.5;exitY=1;exitDx=0;exitDy=0;entryX=1.003;entryY=0.459;entryDx=0;entryDy=0;entryPerimeter=0;curved=1;" parent="1" source="W7xPWg52uy3qARGWKzhD-3" target="W7xPWg52uy3qARGWKzhD-9" edge="1">
          <mxGeometry relative="1" as="geometry" />
        </mxCell>
        <mxCell id="W7xPWg52uy3qARGWKzhD-18" style="edgeStyle=orthogonalEdgeStyle;rounded=0;orthogonalLoop=1;jettySize=auto;html=1;entryX=0.5;entryY=1;entryDx=0;entryDy=0;curved=1;" parent="1" source="W7xPWg52uy3qARGWKzhD-9" target="W7xPWg52uy3qARGWKzhD-1" edge="1">
          <mxGeometry relative="1" as="geometry">
            <Array as="points">
              <mxPoint x="-70" y="2413" />
            </Array>
          </mxGeometry>
        </mxCell>
        <mxCell id="W7xPWg52uy3qARGWKzhD-19" style="edgeStyle=orthogonalEdgeStyle;rounded=0;orthogonalLoop=1;jettySize=auto;html=1;entryX=0.544;entryY=0.983;entryDx=0;entryDy=0;entryPerimeter=0;curved=1;" parent="1" source="W7xPWg52uy3qARGWKzhD-4" target="W7xPWg52uy3qARGWKzhD-7" edge="1">
          <mxGeometry relative="1" as="geometry">
            <Array as="points">
              <mxPoint x="693" y="2173" />
              <mxPoint x="693" y="2183" />
              <mxPoint x="846" y="2183" />
            </Array>
          </mxGeometry>
        </mxCell>
        <mxCell id="W7xPWg52uy3qARGWKzhD-20" value="" style="endArrow=classic;html=1;rounded=0;exitX=0.917;exitY=1.015;exitDx=0;exitDy=0;exitPerimeter=0;entryX=0.671;entryY=1.021;entryDx=0;entryDy=0;entryPerimeter=0;curved=1;" parent="1" source="W7xPWg52uy3qARGWKzhD-4" target="W7xPWg52uy3qARGWKzhD-6" edge="1">
          <mxGeometry width="50" height="50" relative="1" as="geometry">
            <mxPoint x="690" y="2290" as="sourcePoint" />
            <mxPoint x="740" y="2240" as="targetPoint" />
            <Array as="points">
              <mxPoint x="720" y="2370" />
            </Array>
          </mxGeometry>
        </mxCell>
        <mxCell id="W7xPWg52uy3qARGWKzhD-21" value="ข้อมูลคำขอการสร้างรายงาน" style="text;html=1;align=center;verticalAlign=middle;resizable=0;points=[];autosize=1;strokeColor=none;fillColor=none;" parent="1" vertex="1">
          <mxGeometry x="-10" y="2110" width="160" height="30" as="geometry" />
        </mxCell>
        <mxCell id="W7xPWg52uy3qARGWKzhD-22" value="คำขอการสร้างรายงาน" style="text;html=1;align=center;verticalAlign=middle;resizable=0;points=[];autosize=1;strokeColor=none;fillColor=none;" parent="1" vertex="1">
          <mxGeometry x="310" y="2110" width="130" height="30" as="geometry" />
        </mxCell>
        <mxCell id="W7xPWg52uy3qARGWKzhD-23" value="คำขอข้อมูล" style="text;html=1;align=center;verticalAlign=middle;resizable=0;points=[];autosize=1;strokeColor=none;fillColor=none;" parent="1" vertex="1">
          <mxGeometry x="695" y="2090" width="80" height="30" as="geometry" />
        </mxCell>
        <mxCell id="W7xPWg52uy3qARGWKzhD-24" value="คำขอข้อมูล" style="text;html=1;align=center;verticalAlign=middle;resizable=0;points=[];autosize=1;strokeColor=none;fillColor=none;" parent="1" vertex="1">
          <mxGeometry x="720" y="2162.5" width="80" height="30" as="geometry" />
        </mxCell>
        <mxCell id="W7xPWg52uy3qARGWKzhD-25" value="คำขอข้อมูล" style="text;html=1;align=center;verticalAlign=middle;resizable=0;points=[];autosize=1;strokeColor=none;fillColor=none;" parent="1" vertex="1">
          <mxGeometry x="700" y="2270" width="80" height="30" as="geometry" />
        </mxCell>
        <mxCell id="W7xPWg52uy3qARGWKzhD-26" value="&lt;span style=&quot;color: rgb(0, 0, 0); font-family: Helvetica; font-size: 12px; font-style: normal; font-variant-ligatures: normal; font-variant-caps: normal; font-weight: 400; letter-spacing: normal; orphans: 2; text-align: left; text-indent: 0px; text-transform: none; widows: 2; word-spacing: 0px; -webkit-text-stroke-width: 0px; white-space: normal; background-color: rgb(251, 251, 251); text-decoration-thickness: initial; text-decoration-style: initial; text-decoration-color: initial; display: inline !important; float: none;&quot;&gt;ข้อมูลลูกค้า&lt;/span&gt;" style="text;whiteSpace=wrap;html=1;" parent="1" vertex="1">
          <mxGeometry x="640" y="2050" width="90" height="40" as="geometry" />
        </mxCell>
        <mxCell id="W7xPWg52uy3qARGWKzhD-27" value="&lt;span style=&quot;color: rgb(0, 0, 0); font-family: Helvetica; font-size: 12px; font-style: normal; font-variant-ligatures: normal; font-variant-caps: normal; font-weight: 400; letter-spacing: normal; orphans: 2; text-align: left; text-indent: 0px; text-transform: none; widows: 2; word-spacing: 0px; -webkit-text-stroke-width: 0px; white-space: normal; background-color: rgb(251, 251, 251); text-decoration-thickness: initial; text-decoration-style: initial; text-decoration-color: initial; display: inline !important; float: none;&quot;&gt;ข้อมูลพัสดุ&lt;/span&gt;" style="text;whiteSpace=wrap;html=1;" parent="1" vertex="1">
          <mxGeometry x="660" y="2122.5" width="120" height="40" as="geometry" />
        </mxCell>
        <mxCell id="W7xPWg52uy3qARGWKzhD-28" value="&lt;span style=&quot;color: rgb(0, 0, 0); font-family: Helvetica; font-size: 12px; font-style: normal; font-variant-ligatures: normal; font-variant-caps: normal; font-weight: 400; letter-spacing: normal; orphans: 2; text-align: left; text-indent: 0px; text-transform: none; widows: 2; word-spacing: 0px; -webkit-text-stroke-width: 0px; white-space: normal; background-color: rgb(251, 251, 251); text-decoration-thickness: initial; text-decoration-style: initial; text-decoration-color: initial; display: inline !important; float: none;&quot;&gt;ข้อมูลการชำระเงิน&lt;/span&gt;" style="text;whiteSpace=wrap;html=1;" parent="1" vertex="1">
          <mxGeometry x="690" y="2230" width="100" height="20" as="geometry" />
        </mxCell>
        <mxCell id="W7xPWg52uy3qARGWKzhD-29" value="ข้อมูลในฐานข้อมูลทั้งหมด" style="text;html=1;align=center;verticalAlign=middle;resizable=0;points=[];autosize=1;strokeColor=none;fillColor=none;" parent="1" vertex="1">
          <mxGeometry x="300" y="2340" width="150" height="30" as="geometry" />
        </mxCell>
        <mxCell id="W7xPWg52uy3qARGWKzhD-30" value="รายงาน" style="text;html=1;align=center;verticalAlign=middle;resizable=0;points=[];autosize=1;strokeColor=none;fillColor=none;" parent="1" vertex="1">
          <mxGeometry x="-40" y="2298" width="60" height="30" as="geometry" />
        </mxCell>
        <mxCell id="DoR_LVy5gRVsDdOH0EOY-1" value="&lt;font style=&quot;font-size: 22px;&quot;&gt;ลูกค้า&lt;/font&gt;" style="rounded=0;whiteSpace=wrap;html=1;" parent="1" vertex="1">
          <mxGeometry x="-285" y="2610" width="112.5" height="45" as="geometry" />
        </mxCell>
        <mxCell id="DoR_LVy5gRVsDdOH0EOY-2" value="7.1" style="swimlane;childLayout=stackLayout;horizontal=1;startSize=50;horizontalStack=0;rounded=1;fontSize=14;fontStyle=0;strokeWidth=2;resizeParent=0;resizeLast=1;shadow=0;dashed=0;align=center;arcSize=4;whiteSpace=wrap;html=1;" parent="1" vertex="1">
          <mxGeometry x="-75" y="2750" width="188" height="120" as="geometry" />
        </mxCell>
        <mxCell id="DoR_LVy5gRVsDdOH0EOY-3" value="เลือกประเภทการชำระเงิน" style="text;align=center;verticalAlign=middle;resizable=0;points=[];autosize=1;imageAspect=0;fontColor=default;fontSize=15;" parent="DoR_LVy5gRVsDdOH0EOY-2" vertex="1">
          <mxGeometry y="50" width="188" height="70" as="geometry" />
        </mxCell>
        <mxCell id="DoR_LVy5gRVsDdOH0EOY-4" value="7.2" style="swimlane;childLayout=stackLayout;horizontal=1;startSize=50;horizontalStack=0;rounded=1;fontSize=14;fontStyle=0;strokeWidth=2;resizeParent=0;resizeLast=1;shadow=0;dashed=0;align=center;arcSize=4;whiteSpace=wrap;html=1;" parent="1" vertex="1">
          <mxGeometry x="312.75" y="2850" width="188" height="120" as="geometry" />
        </mxCell>
        <mxCell id="DoR_LVy5gRVsDdOH0EOY-5" value="กระบวนการชำระเงิน" style="text;align=center;verticalAlign=middle;resizable=0;points=[];autosize=1;imageAspect=0;fontColor=default;fontSize=15;" parent="DoR_LVy5gRVsDdOH0EOY-4" vertex="1">
          <mxGeometry y="50" width="188" height="70" as="geometry" />
        </mxCell>
        <mxCell id="DoR_LVy5gRVsDdOH0EOY-6" value="7.4" style="swimlane;childLayout=stackLayout;horizontal=1;startSize=50;horizontalStack=0;rounded=1;fontSize=14;fontStyle=0;strokeWidth=2;resizeParent=0;resizeLast=1;shadow=0;dashed=0;align=center;arcSize=4;whiteSpace=wrap;html=1;" parent="1" vertex="1">
          <mxGeometry x="635" y="2620" width="250" height="120" as="geometry" />
        </mxCell>
        <mxCell id="DoR_LVy5gRVsDdOH0EOY-7" value="ชำระเงินเสร็จสิ้นแล้วสร้างใบเสร็จรับเงิน" style="text;align=center;verticalAlign=middle;resizable=0;points=[];autosize=1;imageAspect=0;fontColor=default;fontSize=15;" parent="DoR_LVy5gRVsDdOH0EOY-6" vertex="1">
          <mxGeometry y="50" width="250" height="70" as="geometry" />
        </mxCell>
        <mxCell id="DoR_LVy5gRVsDdOH0EOY-8" value="7.3" style="swimlane;childLayout=stackLayout;horizontal=1;startSize=50;horizontalStack=0;rounded=1;fontSize=14;fontStyle=0;strokeWidth=2;resizeParent=0;resizeLast=1;shadow=0;dashed=0;align=center;arcSize=4;whiteSpace=wrap;html=1;" parent="1" vertex="1">
          <mxGeometry x="312.75" y="2500" width="188" height="120" as="geometry" />
        </mxCell>
        <mxCell id="DoR_LVy5gRVsDdOH0EOY-9" value="สร้างใบแจ้งหนี้" style="text;align=center;verticalAlign=middle;resizable=0;points=[];autosize=1;imageAspect=0;fontColor=default;fontSize=15;" parent="DoR_LVy5gRVsDdOH0EOY-8" vertex="1">
          <mxGeometry y="50" width="188" height="70" as="geometry" />
        </mxCell>
        <mxCell id="DoR_LVy5gRVsDdOH0EOY-10" value="D4&lt;span style=&quot;white-space: pre;&quot;&gt;&#x9;&lt;/span&gt;&amp;nbsp;ข้อมูลการชำระเงิน" style="html=1;dashed=0;whiteSpace=wrap;shape=mxgraph.dfd.dataStoreID;align=left;spacingLeft=3;points=[[0,0],[0.5,0],[1,0],[0,0.5],[1,0.5],[0,1],[0.5,1],[1,1]];" parent="1" vertex="1">
          <mxGeometry x="645" y="2980" width="130" height="30" as="geometry" />
        </mxCell>
        <mxCell id="DoR_LVy5gRVsDdOH0EOY-11" value="D3&lt;span style=&quot;white-space: pre;&quot;&gt;&#x9;&lt;/span&gt;&amp;nbsp;ข้อมูลพัสดุ" style="html=1;dashed=0;whiteSpace=wrap;shape=mxgraph.dfd.dataStoreID;align=left;spacingLeft=3;points=[[0,0],[0.5,0],[1,0],[0,0.5],[1,0.5],[0,1],[0.5,1],[1,1]];" parent="1" vertex="1">
          <mxGeometry x="695" y="2880" width="130" height="30" as="geometry" />
        </mxCell>
        <mxCell id="DoR_LVy5gRVsDdOH0EOY-12" value="&lt;span style=&quot;font-size: 13px;&quot;&gt;&amp;lt;&amp;lt;&lt;/span&gt;&lt;b style=&quot;font-size: 13px;&quot;&gt;Payment API&lt;br&gt;&lt;/b&gt;&lt;b style=&quot;font-size: 13px; background-color: initial;&quot;&gt;Service&lt;/b&gt;&lt;span style=&quot;font-size: 13px;&quot;&gt;&amp;gt;&amp;gt;&lt;/span&gt;" style="rounded=0;whiteSpace=wrap;html=1;" parent="1" vertex="1">
          <mxGeometry x="350.5" y="3110" width="112.5" height="45" as="geometry" />
        </mxCell>
        <mxCell id="DoR_LVy5gRVsDdOH0EOY-13" style="edgeStyle=orthogonalEdgeStyle;rounded=0;orthogonalLoop=1;jettySize=auto;html=1;entryX=0;entryY=0.329;entryDx=0;entryDy=0;entryPerimeter=0;exitX=0.5;exitY=1;exitDx=0;exitDy=0;curved=1;" parent="1" source="DoR_LVy5gRVsDdOH0EOY-1" target="DoR_LVy5gRVsDdOH0EOY-3" edge="1">
          <mxGeometry relative="1" as="geometry" />
        </mxCell>
        <mxCell id="DoR_LVy5gRVsDdOH0EOY-14" style="edgeStyle=orthogonalEdgeStyle;rounded=0;orthogonalLoop=1;jettySize=auto;html=1;entryX=1;entryY=0.5;entryDx=0;entryDy=0;curved=1;" parent="1" source="DoR_LVy5gRVsDdOH0EOY-7" target="DoR_LVy5gRVsDdOH0EOY-1" edge="1">
          <mxGeometry relative="1" as="geometry">
            <Array as="points">
              <mxPoint x="155" y="2670" />
              <mxPoint x="155" y="2633" />
            </Array>
          </mxGeometry>
        </mxCell>
        <mxCell id="DoR_LVy5gRVsDdOH0EOY-15" style="edgeStyle=orthogonalEdgeStyle;rounded=0;orthogonalLoop=1;jettySize=auto;html=1;entryX=-0.004;entryY=0.235;entryDx=0;entryDy=0;entryPerimeter=0;curved=1;" parent="1" source="DoR_LVy5gRVsDdOH0EOY-3" target="DoR_LVy5gRVsDdOH0EOY-5" edge="1">
          <mxGeometry relative="1" as="geometry" />
        </mxCell>
        <mxCell id="DoR_LVy5gRVsDdOH0EOY-16" style="edgeStyle=orthogonalEdgeStyle;rounded=0;orthogonalLoop=1;jettySize=auto;html=1;exitX=1;exitY=0.25;exitDx=0;exitDy=0;entryX=0.002;entryY=0.553;entryDx=0;entryDy=0;entryPerimeter=0;curved=1;" parent="1" source="DoR_LVy5gRVsDdOH0EOY-4" target="DoR_LVy5gRVsDdOH0EOY-7" edge="1">
          <mxGeometry relative="1" as="geometry">
            <Array as="points">
              <mxPoint x="585" y="2880" />
              <mxPoint x="585" y="2709" />
            </Array>
          </mxGeometry>
        </mxCell>
        <mxCell id="DoR_LVy5gRVsDdOH0EOY-17" style="edgeStyle=orthogonalEdgeStyle;rounded=0;orthogonalLoop=1;jettySize=auto;html=1;exitX=0.25;exitY=0;exitDx=0;exitDy=0;entryX=0.25;entryY=0.988;entryDx=0;entryDy=0;entryPerimeter=0;" parent="1" edge="1">
          <mxGeometry relative="1" as="geometry">
            <mxPoint x="405" y="2850.84" as="sourcePoint" />
            <mxPoint x="405" y="2620" as="targetPoint" />
          </mxGeometry>
        </mxCell>
        <mxCell id="DoR_LVy5gRVsDdOH0EOY-18" value="&lt;font style=&quot;font-size: 16px;&quot;&gt;ข้อมูลชำระเงิน&lt;/font&gt;" style="text;html=1;align=center;verticalAlign=middle;resizable=0;points=[];autosize=1;strokeColor=none;fillColor=none;labelBackgroundColor=default;" parent="1" vertex="1">
          <mxGeometry x="150" y="2850" width="120" height="30" as="geometry" />
        </mxCell>
        <mxCell id="DoR_LVy5gRVsDdOH0EOY-19" value="&lt;font style=&quot;font-size: 16px;&quot;&gt;คำขอชำระเงิน&lt;/font&gt;" style="text;html=1;align=center;verticalAlign=middle;resizable=0;points=[];autosize=1;strokeColor=none;fillColor=none;" parent="1" vertex="1">
          <mxGeometry x="-225" y="2720" width="120" height="30" as="geometry" />
        </mxCell>
        <mxCell id="DoR_LVy5gRVsDdOH0EOY-20" style="edgeStyle=orthogonalEdgeStyle;rounded=0;orthogonalLoop=1;jettySize=auto;html=1;exitX=0.75;exitY=1;exitDx=0;exitDy=0;entryX=0.921;entryY=0.007;entryDx=0;entryDy=0;entryPerimeter=0;" parent="1" edge="1">
          <mxGeometry relative="1" as="geometry">
            <mxPoint x="445" y="2970.0000000000005" as="sourcePoint" />
            <mxPoint x="445.36249999999995" y="3110.3150000000005" as="targetPoint" />
          </mxGeometry>
        </mxCell>
        <mxCell id="DoR_LVy5gRVsDdOH0EOY-21" value="" style="endArrow=classic;html=1;rounded=0;exitX=0.13;exitY=0;exitDx=0;exitDy=0;entryX=0.28;entryY=0.993;entryDx=0;entryDy=0;entryPerimeter=0;exitPerimeter=0;" parent="1" source="DoR_LVy5gRVsDdOH0EOY-12" target="DoR_LVy5gRVsDdOH0EOY-5" edge="1">
          <mxGeometry width="50" height="50" relative="1" as="geometry">
            <mxPoint x="325" y="2990" as="sourcePoint" />
            <mxPoint x="375" y="2940" as="targetPoint" />
          </mxGeometry>
        </mxCell>
        <mxCell id="DoR_LVy5gRVsDdOH0EOY-22" value="&lt;font style=&quot;font-size: 18px;&quot;&gt;ใบเสร็จ&lt;/font&gt;" style="text;html=1;align=center;verticalAlign=middle;resizable=0;points=[];autosize=1;strokeColor=none;fillColor=none;" parent="1" vertex="1">
          <mxGeometry x="170" y="2620" width="80" height="40" as="geometry" />
        </mxCell>
        <mxCell id="DoR_LVy5gRVsDdOH0EOY-23" value="&lt;font style=&quot;font-size: 17px;&quot;&gt;คำยืนยันการชำระเงิน&lt;/font&gt;" style="text;html=1;align=center;verticalAlign=middle;resizable=0;points=[];autosize=1;strokeColor=none;fillColor=none;labelBackgroundColor=default;" parent="1" vertex="1">
          <mxGeometry x="500.75" y="2790" width="170" height="30" as="geometry" />
        </mxCell>
        <mxCell id="DoR_LVy5gRVsDdOH0EOY-24" style="edgeStyle=orthogonalEdgeStyle;rounded=0;orthogonalLoop=1;jettySize=auto;html=1;entryX=0.5;entryY=0;entryDx=0;entryDy=0;curved=1;" parent="1" source="DoR_LVy5gRVsDdOH0EOY-9" target="DoR_LVy5gRVsDdOH0EOY-1" edge="1">
          <mxGeometry relative="1" as="geometry">
            <Array as="points">
              <mxPoint x="-229" y="2570" />
            </Array>
          </mxGeometry>
        </mxCell>
        <mxCell id="DoR_LVy5gRVsDdOH0EOY-25" value="&lt;span style=&quot;font-size: 18px;&quot;&gt;ใบแจ้งหนี้&lt;/span&gt;" style="text;html=1;align=center;verticalAlign=middle;resizable=0;points=[];autosize=1;strokeColor=none;fillColor=none;" parent="1" vertex="1">
          <mxGeometry x="80" y="2540" width="100" height="40" as="geometry" />
        </mxCell>
        <mxCell id="DoR_LVy5gRVsDdOH0EOY-26" value="&lt;font style=&quot;font-size: 15px;&quot;&gt;สถานะการชำระเงิน&lt;/font&gt;" style="text;html=1;align=center;verticalAlign=middle;resizable=0;points=[];autosize=1;strokeColor=none;fillColor=none;" parent="1" vertex="1">
          <mxGeometry x="225" y="3038" width="140" height="30" as="geometry" />
        </mxCell>
        <mxCell id="DoR_LVy5gRVsDdOH0EOY-27" value="&lt;font style=&quot;font-size: 16px;&quot;&gt;คำขอชำระเงิน&lt;/font&gt;" style="text;html=1;align=center;verticalAlign=middle;resizable=0;points=[];autosize=1;strokeColor=none;fillColor=none;" parent="1" vertex="1">
          <mxGeometry x="455" y="3038" width="120" height="30" as="geometry" />
        </mxCell>
        <mxCell id="DoR_LVy5gRVsDdOH0EOY-28" style="edgeStyle=orthogonalEdgeStyle;rounded=0;orthogonalLoop=1;jettySize=auto;html=1;exitX=0;exitY=0.5;exitDx=0;exitDy=0;entryX=1.004;entryY=0.229;entryDx=0;entryDy=0;entryPerimeter=0;curved=1;" parent="1" source="DoR_LVy5gRVsDdOH0EOY-11" target="DoR_LVy5gRVsDdOH0EOY-5" edge="1">
          <mxGeometry relative="1" as="geometry" />
        </mxCell>
        <mxCell id="DoR_LVy5gRVsDdOH0EOY-29" style="edgeStyle=orthogonalEdgeStyle;rounded=0;orthogonalLoop=1;jettySize=auto;html=1;entryX=0.5;entryY=1;entryDx=0;entryDy=0;curved=1;" parent="1" source="DoR_LVy5gRVsDdOH0EOY-5" target="DoR_LVy5gRVsDdOH0EOY-11" edge="1">
          <mxGeometry relative="1" as="geometry">
            <Array as="points">
              <mxPoint x="760" y="2950" />
            </Array>
          </mxGeometry>
        </mxCell>
        <mxCell id="DoR_LVy5gRVsDdOH0EOY-30" value="" style="endArrow=classic;html=1;rounded=0;exitX=1.001;exitY=0.884;exitDx=0;exitDy=0;exitPerimeter=0;entryX=0;entryY=0.5;entryDx=0;entryDy=0;" parent="1" source="DoR_LVy5gRVsDdOH0EOY-5" target="DoR_LVy5gRVsDdOH0EOY-10" edge="1">
          <mxGeometry width="50" height="50" relative="1" as="geometry">
            <mxPoint x="605" y="2940" as="sourcePoint" />
            <mxPoint x="655" y="2890" as="targetPoint" />
          </mxGeometry>
        </mxCell>
        <mxCell id="DoR_LVy5gRVsDdOH0EOY-31" value="ข้อมูลการชำระเงิน" style="text;html=1;align=center;verticalAlign=middle;resizable=0;points=[];autosize=1;strokeColor=none;fillColor=none;" parent="1" vertex="1">
          <mxGeometry x="505" y="2980" width="110" height="30" as="geometry" />
        </mxCell>
        <mxCell id="DoR_LVy5gRVsDdOH0EOY-32" value="คำขอข้อมูล&amp;nbsp;&amp;nbsp;" style="text;html=1;align=center;verticalAlign=middle;resizable=0;points=[];autosize=1;strokeColor=none;fillColor=none;" parent="1" vertex="1">
          <mxGeometry x="560" y="2918" width="90" height="30" as="geometry" />
        </mxCell>
        <mxCell id="DoR_LVy5gRVsDdOH0EOY-33" value="&lt;span style=&quot;color: rgb(0, 0, 0); font-family: Helvetica; font-size: 12px; font-style: normal; font-variant-ligatures: normal; font-variant-caps: normal; font-weight: 400; letter-spacing: normal; orphans: 2; text-align: left; text-indent: 0px; text-transform: none; widows: 2; word-spacing: 0px; -webkit-text-stroke-width: 0px; white-space: normal; background-color: rgb(251, 251, 251); text-decoration-thickness: initial; text-decoration-style: initial; text-decoration-color: initial; display: inline !important; float: none;&quot;&gt;ข้อมูลพัสดุ&lt;/span&gt;" style="text;whiteSpace=wrap;html=1;" parent="1" vertex="1">
          <mxGeometry x="595" y="2870" width="90" height="40" as="geometry" />
        </mxCell>
        <mxCell id="DoR_LVy5gRVsDdOH0EOY-34" value="&lt;font style=&quot;font-size: 16px;&quot;&gt;ข้อมูลการชำระเงิน&lt;/font&gt;" style="text;html=1;align=center;verticalAlign=middle;resizable=0;points=[];autosize=1;strokeColor=none;fillColor=none;labelBackgroundColor=default;" parent="1" vertex="1">
          <mxGeometry x="333" y="2760" width="140" height="30" as="geometry" />
        </mxCell>
        <mxCell id="FAqx0qO4JY_IpDhw9op0-1" style="edgeStyle=orthogonalEdgeStyle;rounded=0;orthogonalLoop=1;jettySize=auto;html=1;exitX=1;exitY=0.5;exitDx=0;exitDy=0;curved=1;entryX=-0.004;entryY=-0.012;entryDx=0;entryDy=0;entryPerimeter=0;" parent="1" source="FAqx0qO4JY_IpDhw9op0-2" target="FAqx0qO4JY_IpDhw9op0-4" edge="1">
          <mxGeometry relative="1" as="geometry" />
        </mxCell>
        <mxCell id="FAqx0qO4JY_IpDhw9op0-2" value="&lt;font style=&quot;font-size: 22px;&quot;&gt;ลูกค้า&lt;/font&gt;" style="rounded=0;whiteSpace=wrap;html=1;" parent="1" vertex="1">
          <mxGeometry x="-378" y="3360" width="112.5" height="45" as="geometry" />
        </mxCell>
        <mxCell id="FAqx0qO4JY_IpDhw9op0-3" value="8.1" style="swimlane;childLayout=stackLayout;horizontal=1;startSize=50;horizontalStack=0;rounded=1;fontSize=14;fontStyle=0;strokeWidth=2;resizeParent=0;resizeLast=1;shadow=0;dashed=0;align=center;arcSize=4;whiteSpace=wrap;html=1;" parent="1" vertex="1">
          <mxGeometry x="-97" y="3190" width="188" height="120" as="geometry" />
        </mxCell>
        <mxCell id="FAqx0qO4JY_IpDhw9op0-4" value="อ่านหมายเลขพัสดุ" style="text;align=center;verticalAlign=middle;resizable=0;points=[];autosize=1;imageAspect=0;fontColor=default;fontSize=15;" parent="FAqx0qO4JY_IpDhw9op0-3" vertex="1">
          <mxGeometry y="50" width="188" height="70" as="geometry" />
        </mxCell>
        <mxCell id="FAqx0qO4JY_IpDhw9op0-5" style="edgeStyle=orthogonalEdgeStyle;rounded=0;orthogonalLoop=1;jettySize=auto;html=1;exitX=1;exitY=0.25;exitDx=0;exitDy=0;entryX=0;entryY=0.5;entryDx=0;entryDy=0;curved=1;" parent="1" source="FAqx0qO4JY_IpDhw9op0-6" target="FAqx0qO4JY_IpDhw9op0-10" edge="1">
          <mxGeometry relative="1" as="geometry" />
        </mxCell>
        <mxCell id="FAqx0qO4JY_IpDhw9op0-6" value="8.4" style="swimlane;childLayout=stackLayout;horizontal=1;startSize=50;horizontalStack=0;rounded=1;fontSize=14;fontStyle=0;strokeWidth=2;resizeParent=0;resizeLast=1;shadow=0;dashed=0;align=center;arcSize=4;whiteSpace=wrap;html=1;" parent="1" vertex="1">
          <mxGeometry x="694" y="3442.5" width="188" height="120" as="geometry" />
        </mxCell>
        <mxCell id="FAqx0qO4JY_IpDhw9op0-7" value="เรียนดูฐานข้อมูลพิกัด" style="text;align=center;verticalAlign=middle;resizable=0;points=[];autosize=1;imageAspect=0;fontColor=default;fontSize=15;" parent="FAqx0qO4JY_IpDhw9op0-6" vertex="1">
          <mxGeometry y="50" width="188" height="70" as="geometry" />
        </mxCell>
        <mxCell id="FAqx0qO4JY_IpDhw9op0-8" value="8.3" style="swimlane;childLayout=stackLayout;horizontal=1;startSize=50;horizontalStack=0;rounded=1;fontSize=14;fontStyle=0;strokeWidth=2;resizeParent=0;resizeLast=1;shadow=0;dashed=0;align=center;arcSize=4;whiteSpace=wrap;html=1;" parent="1" vertex="1">
          <mxGeometry x="284" y="3350" width="188" height="120" as="geometry" />
        </mxCell>
        <mxCell id="FAqx0qO4JY_IpDhw9op0-9" value="ดูฐานข้อมูลพัสดุ" style="text;align=center;verticalAlign=middle;resizable=0;points=[];autosize=1;imageAspect=0;fontColor=default;fontSize=15;" parent="FAqx0qO4JY_IpDhw9op0-8" vertex="1">
          <mxGeometry y="50" width="188" height="70" as="geometry" />
        </mxCell>
        <mxCell id="FAqx0qO4JY_IpDhw9op0-10" value="&lt;font style=&quot;font-size: 13px;&quot;&gt;&amp;lt;&amp;lt;&lt;b&gt;Location API Service&lt;/b&gt;&amp;gt;&amp;gt;&lt;/font&gt;" style="rounded=0;whiteSpace=wrap;html=1;" parent="1" vertex="1">
          <mxGeometry x="1064" y="3322.5" width="120" height="60" as="geometry" />
        </mxCell>
        <mxCell id="FAqx0qO4JY_IpDhw9op0-11" style="edgeStyle=orthogonalEdgeStyle;rounded=0;orthogonalLoop=1;jettySize=auto;html=1;entryX=0.454;entryY=0.013;entryDx=0;entryDy=0;entryPerimeter=0;" parent="1" source="FAqx0qO4JY_IpDhw9op0-4" target="FAqx0qO4JY_IpDhw9op0-8" edge="1">
          <mxGeometry relative="1" as="geometry">
            <mxPoint x="368" y="3322.5" as="targetPoint" />
          </mxGeometry>
        </mxCell>
        <mxCell id="FAqx0qO4JY_IpDhw9op0-12" value="D3&lt;span style=&quot;white-space: pre;&quot;&gt;&#x9;&lt;/span&gt;&amp;nbsp;ข้อมูลพัสดุ" style="html=1;dashed=0;whiteSpace=wrap;shape=mxgraph.dfd.dataStoreID;align=left;spacingLeft=3;points=[[0,0],[0.5,0],[1,0],[0,0.5],[1,0.5],[0,1],[0.5,1],[1,1]];" parent="1" vertex="1">
          <mxGeometry x="307.5" y="3590" width="141" height="45" as="geometry" />
        </mxCell>
        <mxCell id="FAqx0qO4JY_IpDhw9op0-13" style="edgeStyle=orthogonalEdgeStyle;rounded=0;orthogonalLoop=1;jettySize=auto;html=1;exitX=0.75;exitY=1;exitDx=0;exitDy=0;entryX=1.005;entryY=0.656;entryDx=0;entryDy=0;entryPerimeter=0;" parent="1" source="FAqx0qO4JY_IpDhw9op0-10" target="FAqx0qO4JY_IpDhw9op0-7" edge="1">
          <mxGeometry relative="1" as="geometry" />
        </mxCell>
        <mxCell id="FAqx0qO4JY_IpDhw9op0-14" style="edgeStyle=orthogonalEdgeStyle;rounded=0;orthogonalLoop=1;jettySize=auto;html=1;entryX=0.5;entryY=1;entryDx=0;entryDy=0;curved=1;" parent="1" source="FAqx0qO4JY_IpDhw9op0-15" target="FAqx0qO4JY_IpDhw9op0-2" edge="1">
          <mxGeometry relative="1" as="geometry" />
        </mxCell>
        <mxCell id="FAqx0qO4JY_IpDhw9op0-15" value="8.5" style="swimlane;childLayout=stackLayout;horizontal=1;startSize=50;horizontalStack=0;rounded=1;fontSize=14;fontStyle=0;strokeWidth=2;resizeParent=0;resizeLast=1;shadow=0;dashed=0;align=center;arcSize=4;whiteSpace=wrap;html=1;" parent="1" vertex="1">
          <mxGeometry x="274" y="3730" width="194" height="120" as="geometry" />
        </mxCell>
        <mxCell id="FAqx0qO4JY_IpDhw9op0-16" value="แสดงสถานะและพิกัดสถานที่" style="text;align=center;verticalAlign=middle;resizable=0;points=[];autosize=1;imageAspect=0;fontColor=default;fontSize=15;" parent="FAqx0qO4JY_IpDhw9op0-15" vertex="1">
          <mxGeometry y="50" width="194" height="70" as="geometry" />
        </mxCell>
        <mxCell id="FAqx0qO4JY_IpDhw9op0-17" value="" style="endArrow=classic;html=1;rounded=0;exitX=0.52;exitY=0.979;exitDx=0;exitDy=0;exitPerimeter=0;entryX=1.002;entryY=0.429;entryDx=0;entryDy=0;entryPerimeter=0;curved=1;" parent="1" source="FAqx0qO4JY_IpDhw9op0-7" target="FAqx0qO4JY_IpDhw9op0-16" edge="1">
          <mxGeometry width="50" height="50" relative="1" as="geometry">
            <mxPoint x="314" y="3610" as="sourcePoint" />
            <mxPoint x="684" y="3690" as="targetPoint" />
            <Array as="points">
              <mxPoint x="804" y="3810" />
            </Array>
          </mxGeometry>
        </mxCell>
        <mxCell id="FAqx0qO4JY_IpDhw9op0-18" value="ใส่ข้อมูลเลขพัสดุ" style="text;html=1;align=center;verticalAlign=middle;resizable=0;points=[];autosize=1;strokeColor=none;fillColor=none;labelBackgroundColor=default;fontSize=15;" parent="1" vertex="1">
          <mxGeometry x="-246" y="3292.5" width="130" height="30" as="geometry" />
        </mxCell>
        <mxCell id="FAqx0qO4JY_IpDhw9op0-19" value="8.2" style="swimlane;childLayout=stackLayout;horizontal=1;startSize=50;horizontalStack=0;rounded=1;fontSize=14;fontStyle=0;strokeWidth=2;resizeParent=0;resizeLast=1;shadow=0;dashed=0;align=center;arcSize=4;whiteSpace=wrap;html=1;" parent="1" vertex="1">
          <mxGeometry x="-86" y="3360" width="188" height="120" as="geometry" />
        </mxCell>
        <mxCell id="FAqx0qO4JY_IpDhw9op0-20" value="อ่าน QR Code" style="text;align=center;verticalAlign=middle;resizable=0;points=[];autosize=1;imageAspect=0;fontColor=default;fontSize=15;" parent="FAqx0qO4JY_IpDhw9op0-19" vertex="1">
          <mxGeometry y="50" width="188" height="70" as="geometry" />
        </mxCell>
        <mxCell id="FAqx0qO4JY_IpDhw9op0-21" style="edgeStyle=orthogonalEdgeStyle;rounded=0;orthogonalLoop=1;jettySize=auto;html=1;exitX=1;exitY=0.75;exitDx=0;exitDy=0;entryX=0;entryY=0.417;entryDx=0;entryDy=0;entryPerimeter=0;curved=1;" parent="1" source="FAqx0qO4JY_IpDhw9op0-2" target="FAqx0qO4JY_IpDhw9op0-20" edge="1">
          <mxGeometry relative="1" as="geometry">
            <Array as="points">
              <mxPoint x="-265" y="3410" />
              <mxPoint x="-186" y="3410" />
              <mxPoint x="-186" y="3439" />
            </Array>
          </mxGeometry>
        </mxCell>
        <mxCell id="FAqx0qO4JY_IpDhw9op0-22" value="สแกน Qr Code" style="text;html=1;align=center;verticalAlign=middle;resizable=0;points=[];autosize=1;strokeColor=none;fillColor=none;labelBackgroundColor=default;fontSize=14;" parent="1" vertex="1">
          <mxGeometry x="-236" y="3405" width="110" height="30" as="geometry" />
        </mxCell>
        <mxCell id="FAqx0qO4JY_IpDhw9op0-23" value="คำขอเรียกดูข้อมูลพัสดุ" style="text;html=1;align=center;verticalAlign=middle;resizable=0;points=[];autosize=1;strokeColor=none;fillColor=none;fontSize=14;" parent="1" vertex="1">
          <mxGeometry x="174" y="3248" width="150" height="30" as="geometry" />
        </mxCell>
        <mxCell id="FAqx0qO4JY_IpDhw9op0-24" style="edgeStyle=orthogonalEdgeStyle;rounded=0;orthogonalLoop=1;jettySize=auto;html=1;entryX=0.004;entryY=0.655;entryDx=0;entryDy=0;entryPerimeter=0;" parent="1" source="FAqx0qO4JY_IpDhw9op0-20" target="FAqx0qO4JY_IpDhw9op0-9" edge="1">
          <mxGeometry relative="1" as="geometry" />
        </mxCell>
        <mxCell id="FAqx0qO4JY_IpDhw9op0-25" style="edgeStyle=orthogonalEdgeStyle;rounded=0;orthogonalLoop=1;jettySize=auto;html=1;entryX=0.5;entryY=0;entryDx=0;entryDy=0;curved=1;" parent="1" source="FAqx0qO4JY_IpDhw9op0-9" target="FAqx0qO4JY_IpDhw9op0-6" edge="1">
          <mxGeometry relative="1" as="geometry">
            <Array as="points">
              <mxPoint x="583" y="3430" />
              <mxPoint x="583" y="3422" />
              <mxPoint x="788" y="3422" />
            </Array>
          </mxGeometry>
        </mxCell>
        <mxCell id="FAqx0qO4JY_IpDhw9op0-26" value="" style="endArrow=classic;html=1;rounded=0;entryX=0.372;entryY=1.01;entryDx=0;entryDy=0;entryPerimeter=0;exitX=0.329;exitY=0;exitDx=0;exitDy=0;exitPerimeter=0;" parent="1" source="FAqx0qO4JY_IpDhw9op0-12" target="FAqx0qO4JY_IpDhw9op0-9" edge="1">
          <mxGeometry width="50" height="50" relative="1" as="geometry">
            <mxPoint x="374" y="3540" as="sourcePoint" />
            <mxPoint x="424" y="3490" as="targetPoint" />
          </mxGeometry>
        </mxCell>
        <mxCell id="FAqx0qO4JY_IpDhw9op0-27" value="" style="endArrow=classic;html=1;rounded=0;exitX=0.8;exitY=1.019;exitDx=0;exitDy=0;exitPerimeter=0;entryX=0.9;entryY=0.015;entryDx=0;entryDy=0;entryPerimeter=0;" parent="1" edge="1">
          <mxGeometry width="50" height="50" relative="1" as="geometry">
            <mxPoint x="426.9999999999999" y="3470.65" as="sourcePoint" />
            <mxPoint x="426.9999999999999" y="3589.995" as="targetPoint" />
          </mxGeometry>
        </mxCell>
        <mxCell id="FAqx0qO4JY_IpDhw9op0-28" value="คำขอเรียกดูข้อมูลพัสดุ" style="text;html=1;align=center;verticalAlign=middle;resizable=0;points=[];autosize=1;strokeColor=none;fillColor=none;fontSize=14;" parent="1" vertex="1">
          <mxGeometry x="114" y="3412.5" width="150" height="30" as="geometry" />
        </mxCell>
        <mxCell id="FAqx0qO4JY_IpDhw9op0-29" value="&lt;font style=&quot;font-size: 18px;&quot;&gt;คำขอเรียกดูข้อมูลพัสดุ&lt;/font&gt;" style="text;html=1;align=center;verticalAlign=middle;resizable=0;points=[];autosize=1;strokeColor=none;fillColor=none;" parent="1" vertex="1">
          <mxGeometry x="434" y="3516.25" width="190" height="40" as="geometry" />
        </mxCell>
        <mxCell id="FAqx0qO4JY_IpDhw9op0-30" value="&lt;span style=&quot;color: rgb(0, 0, 0); font-family: Helvetica; font-style: normal; font-variant-ligatures: normal; font-variant-caps: normal; font-weight: 400; letter-spacing: normal; orphans: 2; text-align: left; text-indent: 0px; text-transform: none; widows: 2; word-spacing: 0px; -webkit-text-stroke-width: 0px; white-space: normal; background-color: rgb(251, 251, 251); text-decoration-thickness: initial; text-decoration-style: initial; text-decoration-color: initial; float: none; display: inline !important;&quot;&gt;&lt;font style=&quot;font-size: 19px;&quot;&gt;ข้อมูลพัสดุ&lt;/font&gt;&lt;/span&gt;" style="text;whiteSpace=wrap;html=1;" parent="1" vertex="1">
          <mxGeometry x="244" y="3530" width="100" height="30" as="geometry" />
        </mxCell>
        <mxCell id="FAqx0qO4JY_IpDhw9op0-31" value="&lt;span style=&quot;color: rgb(0, 0, 0); font-family: Helvetica; font-size: 16px; font-style: normal; font-variant-ligatures: normal; font-variant-caps: normal; font-weight: 400; letter-spacing: normal; orphans: 2; text-align: left; text-indent: 0px; text-transform: none; widows: 2; word-spacing: 0px; -webkit-text-stroke-width: 0px; white-space: normal; background-color: rgb(251, 251, 251); text-decoration-thickness: initial; text-decoration-style: initial; text-decoration-color: initial; float: none; display: inline !important;&quot;&gt;ข้อมูลพัสดุ&lt;/span&gt;" style="text;whiteSpace=wrap;html=1;fontSize=16;" parent="1" vertex="1">
          <mxGeometry x="604" y="3397.5" width="60" height="25" as="geometry" />
        </mxCell>
        <mxCell id="FAqx0qO4JY_IpDhw9op0-32" value="&lt;font style=&quot;font-size: 14px;&quot;&gt;คำขอเรียนดูข้อมูลพิกัด&lt;/font&gt;" style="text;whiteSpace=wrap;html=1;labelBackgroundColor=default;" parent="1" vertex="1">
          <mxGeometry x="924" y="3393.75" width="140" height="32.5" as="geometry" />
        </mxCell>
        <mxCell id="FAqx0qO4JY_IpDhw9op0-33" value="&lt;span style=&quot;font-size: 14px;&quot;&gt;ข้อมูลพิกัด&lt;/span&gt;" style="text;whiteSpace=wrap;html=1;labelBackgroundColor=default;" parent="1" vertex="1">
          <mxGeometry x="1034" y="3520" width="70" height="32.5" as="geometry" />
        </mxCell>
        <mxCell id="FAqx0qO4JY_IpDhw9op0-34" value="ข้อมูลพิกัดพัสดุ" style="text;html=1;align=center;verticalAlign=middle;resizable=0;points=[];autosize=1;strokeColor=none;fillColor=none;fontSize=18;labelBackgroundColor=default;" parent="1" vertex="1">
          <mxGeometry x="584" y="3750" width="140" height="40" as="geometry" />
        </mxCell>
        <mxCell id="FAqx0qO4JY_IpDhw9op0-35" value="&lt;font style=&quot;font-size: 18px;&quot;&gt;ข้อมูลสถานะและพิกัดพัสดุ&lt;/font&gt;" style="text;html=1;align=center;verticalAlign=middle;resizable=0;points=[];autosize=1;strokeColor=none;fillColor=none;labelBackgroundColor=default;" parent="1" vertex="1">
          <mxGeometry x="-102" y="3740" width="220" height="40" as="geometry" />
        </mxCell>
        <mxCell id="xHHiqVsUM_BsaYV4PRqx-1" value="&lt;font style=&quot;font-size: 23px;&quot;&gt;ผู้รับ&lt;/font&gt;" style="rounded=0;whiteSpace=wrap;html=1;" vertex="1" parent="1">
          <mxGeometry x="-28" y="3943" width="120" height="60" as="geometry" />
        </mxCell>
        <mxCell id="xHHiqVsUM_BsaYV4PRqx-2" value="9.1" style="swimlane;childLayout=stackLayout;horizontal=1;startSize=50;horizontalStack=0;rounded=1;fontSize=14;fontStyle=0;strokeWidth=2;resizeParent=0;resizeLast=1;shadow=0;dashed=0;align=center;arcSize=4;whiteSpace=wrap;html=1;" vertex="1" parent="1">
          <mxGeometry x="262" y="3923" width="198" height="120" as="geometry" />
        </mxCell>
        <mxCell id="xHHiqVsUM_BsaYV4PRqx-3" value="&lt;font style=&quot;font-size: 18px;&quot;&gt;เช็คความถูกต้องของพัสดุ&lt;/font&gt;" style="text;html=1;align=center;verticalAlign=middle;resizable=0;points=[];autosize=1;strokeColor=none;fillColor=none;" vertex="1" parent="xHHiqVsUM_BsaYV4PRqx-2">
          <mxGeometry y="50" width="198" height="70" as="geometry" />
        </mxCell>
        <mxCell id="xHHiqVsUM_BsaYV4PRqx-4" value="9.2" style="swimlane;childLayout=stackLayout;horizontal=1;startSize=50;horizontalStack=0;rounded=1;fontSize=14;fontStyle=0;strokeWidth=2;resizeParent=0;resizeLast=1;shadow=0;dashed=0;align=center;arcSize=4;whiteSpace=wrap;html=1;" vertex="1" parent="1">
          <mxGeometry x="562" y="4063" width="192" height="120" as="geometry" />
        </mxCell>
        <mxCell id="xHHiqVsUM_BsaYV4PRqx-5" value="&lt;font style=&quot;font-size: 23px;&quot;&gt;ยืนยันพัสดุ&lt;/font&gt;" style="text;html=1;align=center;verticalAlign=middle;resizable=0;points=[];autosize=1;strokeColor=none;fillColor=none;" vertex="1" parent="xHHiqVsUM_BsaYV4PRqx-4">
          <mxGeometry y="50" width="192" height="70" as="geometry" />
        </mxCell>
        <mxCell id="xHHiqVsUM_BsaYV4PRqx-6" style="edgeStyle=orthogonalEdgeStyle;rounded=0;orthogonalLoop=1;jettySize=auto;html=1;exitX=1;exitY=0.5;exitDx=0;exitDy=0;entryX=-0.01;entryY=0.42;entryDx=0;entryDy=0;entryPerimeter=0;" edge="1" parent="1" source="xHHiqVsUM_BsaYV4PRqx-1" target="xHHiqVsUM_BsaYV4PRqx-2">
          <mxGeometry relative="1" as="geometry" />
        </mxCell>
        <mxCell id="xHHiqVsUM_BsaYV4PRqx-7" value="&lt;font style=&quot;font-size: 16px;&quot;&gt;D3&lt;span style=&quot;white-space: pre;&quot;&gt;&#x9;&lt;/span&gt;&amp;nbsp;ข้อมูลพัสดุ&lt;/font&gt;" style="html=1;dashed=0;whiteSpace=wrap;shape=mxgraph.dfd.dataStoreID;align=left;spacingLeft=3;points=[[0,0],[0.5,0],[1,0],[0,0.5],[1,0.5],[0,1],[0.5,1],[1,1]];" vertex="1" parent="1">
          <mxGeometry x="92" y="4125.5" width="160" height="45" as="geometry" />
        </mxCell>
        <mxCell id="xHHiqVsUM_BsaYV4PRqx-8" style="edgeStyle=orthogonalEdgeStyle;rounded=0;orthogonalLoop=1;jettySize=auto;html=1;entryX=1;entryY=0.5;entryDx=0;entryDy=0;" edge="1" parent="1" source="xHHiqVsUM_BsaYV4PRqx-5" target="xHHiqVsUM_BsaYV4PRqx-7">
          <mxGeometry relative="1" as="geometry" />
        </mxCell>
        <mxCell id="xHHiqVsUM_BsaYV4PRqx-9" style="edgeStyle=orthogonalEdgeStyle;rounded=0;orthogonalLoop=1;jettySize=auto;html=1;entryX=0.5;entryY=0;entryDx=0;entryDy=0;" edge="1" parent="1" source="xHHiqVsUM_BsaYV4PRqx-3" target="xHHiqVsUM_BsaYV4PRqx-4">
          <mxGeometry relative="1" as="geometry" />
        </mxCell>
        <mxCell id="xHHiqVsUM_BsaYV4PRqx-10" value="&lt;font style=&quot;font-size: 19px;&quot;&gt;ข้อมูลพัสดุ&lt;/font&gt;" style="text;html=1;align=center;verticalAlign=middle;resizable=0;points=[];autosize=1;strokeColor=none;fillColor=none;strokeWidth=2;" vertex="1" parent="1">
          <mxGeometry x="122" y="3941" width="101" height="35" as="geometry" />
        </mxCell>
        <mxCell id="xHHiqVsUM_BsaYV4PRqx-11" value="&lt;font style=&quot;font-size: 21px;&quot;&gt;ข้อมูลพัสดุ&lt;/font&gt;" style="text;html=1;align=center;verticalAlign=middle;resizable=0;points=[];autosize=1;strokeColor=none;fillColor=none;" vertex="1" parent="1">
          <mxGeometry x="518" y="3970" width="109" height="37" as="geometry" />
        </mxCell>
        <mxCell id="xHHiqVsUM_BsaYV4PRqx-12" value="&lt;font style=&quot;font-size: 17px;&quot;&gt;ข้อมูลพัสดุที่ได้รับการยืนยัน&lt;/font&gt;" style="text;html=1;align=center;verticalAlign=middle;resizable=0;points=[];autosize=1;strokeColor=none;fillColor=none;" vertex="1" parent="1">
          <mxGeometry x="288" y="4112" width="208" height="32" as="geometry" />
        </mxCell>
      </root>
    </mxGraphModel>
  </diagram>
  <diagram id="p-8EAknf8XE-6sY8VHqW" name="Page-4">
    <mxGraphModel dx="1434" dy="762" grid="0" gridSize="10" guides="1" tooltips="1" connect="1" arrows="1" fold="1" page="0" pageScale="1" pageWidth="850" pageHeight="1100" math="0" shadow="0">
      <root>
        <mxCell id="0" />
        <mxCell id="1" parent="0" />
      </root>
    </mxGraphModel>
  </diagram>
</mxfile>
